<?xml version="1.0"?>
<svg xmlns="http://www.w3.org/2000/svg" viewBox="0 0 32 32">
    <path style="text-indent:0;text-align:start;line-height:normal;text-transform:none;block-progression:tb;-inkscape-font-specification:Bitstream Vera Sans;fill: red;" d="M 27.28125 3.28125 L 24.625 5.9375 L 24.1875 5.46875 C 23.215388 4.496638 21.937997 4 20.65625 4 C 19.374503 4 18.097112 4.496638 17.125 5.46875 L 16.40625 6.15625 L 15.5 7.0625 L 14.71875 6.28125 L 13.28125 7.71875 L 16.0625 10.5 L 13.28125 13.28125 L 14.71875 14.71875 L 17.5 11.9375 L 20.0625 14.5 L 17.28125 17.28125 L 18.71875 18.71875 L 21.5 15.9375 L 24.28125 18.71875 L 25.71875 17.28125 L 24.9375 16.5 L 26.53125 14.875 C 28.475474 12.930776 28.475474 9.756724 26.53125 7.8125 L 26.0625 7.375 L 28.71875 4.71875 L 27.28125 3.28125 z M 20.65625 6 C 21.423806 6 22.191362 6.285112 22.78125 6.875 L 25.125 9.21875 C 26.304776 10.398526 26.304776 12.288974 25.125 13.46875 L 24.875 13.6875 L 23.5 15.0625 L 16.9375 8.5 L 18.53125 6.875 C 19.121138 6.285112 19.888694 6 20.65625 6 z M 7.71875 13.28125 L 6.28125 14.71875 L 7.0625 15.5 L 5.46875 17.125 C 3.524526 19.069224 3.524526 22.243276 5.46875 24.1875 L 5.90625 24.65625 L 3.28125 27.28125 L 4.71875 28.71875 L 7.34375 26.09375 L 7.8125 26.53125 C 9.756724 28.475474 12.930776 28.475474 14.875 26.53125 L 16.5 24.9375 L 17.28125 25.71875 L 18.71875 24.28125 L 7.71875 13.28125 z M 8.5 16.9375 L 15.0625 23.5 L 13.46875 25.125 C 12.288974 26.304776 10.398526 26.304776 9.21875 25.125 L 9 24.875 L 6.875 22.78125 C 5.695224 21.601474 5.695224 19.711026 6.875 18.53125 L 8.5 16.9375 z"/>
</svg>
