<?xml version="1.0" encoding="iso-8859-1"?>
<!-- Generator: Adobe Illustrator 21.0.0, SVG Export Plug-In . SVG Version: 6.00 Build 0)  -->
<svg version="1.1" xmlns="http://www.w3.org/2000/svg" xmlns:xlink="http://www.w3.org/1999/xlink" x="0px" y="0px" width="2800px"
	 height="2800px" viewBox="0 0 2800 2800" enable-background="new 0 0 2800 2800" xml:space="preserve">
<!-- <g id="BACKGROUND">
	<linearGradient id="SVGID_1_" gradientUnits="userSpaceOnUse" x1="-9.428368e-08" y1="9.428277e-08" x2="2800" y2="2800">
		<stop  offset="0" style="stop-color:#FFFF7E"/>
		<stop  offset="1" style="stop-color:#00A8C5"/>
	</linearGradient>
	<rect fill="url(#SVGID_1_)" width="2800" height="2800"/>
	<circle opacity="0.5" fill="#FFFFFF" cx="1400" cy="1400" r="1211.9"/>
</g> -->
<g id="OBJECTS">
	<g>
		<linearGradient id="SVGID_2_" gradientUnits="userSpaceOnUse" x1="1399.9993" y1="1464.3726" x2="1399.9993" y2="2060.5784">
			<stop  offset="0" style="stop-color:#283453"/>
			<stop  offset="1" style="stop-color:#4C5774"/>
		</linearGradient>
		<polygon fill="url(#SVGID_2_)" points="1710.8,1621.4 1400,1621.4 1400,1621.4 1089.2,1621.4 1089.2,1843.3 1400,2060.6 
			1400,2060.6 1400,2060.6 1400,2060.6 1400,2060.6 1710.8,1843.3 		"/>
		<g>
			<linearGradient id="SVGID_3_" gradientUnits="userSpaceOnUse" x1="1400" y1="2225.4863" x2="1400" y2="1225.8956">
				<stop  offset="0" style="stop-color:#FFDFB4"/>
				<stop  offset="1" style="stop-color:#F69275"/>
			</linearGradient>
			<rect x="1119.9" y="1225.9" fill="url(#SVGID_3_)" width="560.3" height="999.6"/>
			<g>
				<path fill="#F69275" d="M1680.1,1779c-1.2-19.5-1.9-39-2.3-58.5c-0.3-9.8-0.3-19.5-0.5-29.3l-0.2-29.3c0-19.5,0.2-39,0.7-58.5
					c0.4-19.5,1.1-39,2.3-58.5c1.2,19.5,1.9,39,2.3,58.5c0.4,19.5,0.7,39,0.7,58.5l-0.2,29.3c-0.2,9.8-0.2,19.5-0.5,29.3
					C1682,1740,1681.4,1759.5,1680.1,1779z"/>
				<path fill="#F69275" d="M1119.9,1545c1.2,19.5,1.9,39,2.3,58.5c0.3,9.8,0.3,19.5,0.5,29.3l0.2,29.3c0,19.5-0.2,39-0.7,58.5
					c-0.4,19.5-1.1,39-2.3,58.5c-1.2-19.5-1.9-39-2.3-58.5c-0.4-19.5-0.7-39-0.7-58.5l0.2-29.3c0.2-9.8,0.2-19.5,0.5-29.3
					C1118,1584,1118.6,1564.5,1119.9,1545z"/>
			</g>
			<path opacity="0.1" d="M1119.9,1586.3l4.6,11.4c17.4,42.6,46.7,79.3,84.4,105.7l86,60.3c22.8,16,49.9,24.5,77.7,24.5h27.5h27.5
				c27.8,0,55-8.6,77.7-24.5l86-60.3c37.7-26.4,67-63.1,84.4-105.7l4.6-11.4v-360.4h-560.3V1586.3z"/>
			<g>
				<linearGradient id="SVGID_4_" gradientUnits="userSpaceOnUse" x1="917.6552" y1="1030.4457" x2="1131.8081" y2="1244.5988">
					<stop  offset="0" style="stop-color:#F69275"/>
					<stop  offset="1" style="stop-color:#FFDFB4"/>
				</linearGradient>
				<path fill="url(#SVGID_4_)" d="M943.3,1014.4v116.8c0,11.5,2.4,22.9,7.1,33.4l27.8,62.6c8.6,19.4,24.4,34.8,44.1,42.9l59.5,24.4
					v-244.2l-78.3-59.2c-5.3-4-12.1-5.6-18.7-4.2l-22.9,4.7C951.1,993.8,943.3,1003.4,943.3,1014.4z"/>
				<linearGradient id="SVGID_5_" gradientUnits="userSpaceOnUse" x1="1703.1788" y1="1065.4327" x2="1847.3579" y2="1209.6118">
					<stop  offset="0" style="stop-color:#F69275"/>
					<stop  offset="1" style="stop-color:#FFDFB4"/>
				</linearGradient>
				<path fill="url(#SVGID_5_)" d="M1796.5,991.2l-78.3,59.2v244.2l59.5-24.4c19.7-8.1,35.5-23.4,44.1-42.9l27.8-62.6
					c4.7-10.5,7.1-21.9,7.1-33.4v-116.8c0-11.1-7.8-20.6-18.6-22.8l-22.9-4.7C1808.6,985.6,1801.8,987.2,1796.5,991.2z"/>
			</g>
			<g>
				<path fill="#F69275" d="M978.2,1227.3c5.4,9.2,12,17.4,19.8,24.2c7.7,6.9,16.5,12.3,26.1,16.1c9.8,4,19.6,8.2,29.2,12.7
					c9.6,4.5,19.2,9.1,28.6,14.3c-10.3-2.9-20.4-6.3-30.4-9.9c-10-3.6-19.9-7.5-29.7-11.5c-10.2-4.1-19.5-10.4-27.1-18.3
					C987.1,1247,981.3,1237.5,978.2,1227.3z"/>
				<path fill="#F69275" d="M943.3,1014.4c1.2,12.6,1.9,25.2,2.3,37.8c0.3,6.3,0.3,12.6,0.5,18.9c0.1,6.3,0.1,12.6,0.2,18.9
					c0,12.6-0.2,25.2-0.7,37.8c-0.1,3.2-0.2,6.2-0.2,9.3c0.1,3.1,0.3,6.2,0.7,9.2c0.8,6.2,2.2,12.3,4.2,18.3
					c-3.2-5.5-5.5-11.5-7.1-17.7c-0.8-3.1-1.3-6.3-1.7-9.5c-0.4-3.2-0.5-6.5-0.6-9.6c-0.4-12.6-0.7-25.2-0.7-37.8
					c0.1-6.3,0.1-12.6,0.2-18.9c0.2-6.3,0.2-12.6,0.5-18.9C941.4,1039.6,942.1,1027,943.3,1014.4z"/>
				<path fill="#F69275" d="M1849.6,1164.7c1.9-6,3.4-12.1,4.2-18.3c0.4-3.1,0.7-6.2,0.7-9.2c0.1-3.1,0-6.1-0.2-9.3
					c-0.3-6.3-0.3-12.6-0.5-18.9c-0.1-6.3-0.1-12.6-0.2-18.9c0-12.6,0.2-25.2,0.7-37.8c0.4-12.6,1.1-25.2,2.3-37.8
					c1.2,12.6,1.9,25.2,2.3,37.8c0.4,12.6,0.7,25.2,0.7,37.8c-0.1,6.3-0.1,12.6-0.2,18.9c-0.2,6.3-0.2,12.6-0.5,18.9
					c-0.1,3.1-0.2,6.4-0.6,9.6c-0.4,3.2-1,6.4-1.7,9.5C1855.1,1153.2,1852.8,1159.2,1849.6,1164.7z"/>
				<path fill="#F69275" d="M1718.2,1294.6c9.3-5.2,18.9-9.8,28.6-14.3c9.7-4.4,19.4-8.7,29.2-12.7c9.5-3.9,18.3-9.3,26.1-16.1
					c7.8-6.8,14.3-15,19.8-24.2c-3.2,10.2-9,19.7-16.5,27.6c-7.5,7.9-16.9,14.2-27.1,18.3c-9.8,4-19.7,7.9-29.7,11.5
					C1738.6,1288.3,1728.5,1291.7,1718.2,1294.6z"/>
			</g>
			<linearGradient id="SVGID_6_" gradientUnits="userSpaceOnUse" x1="1400" y1="877.2036" x2="1400" y2="1686.364">
				<stop  offset="0" style="stop-color:#F69275"/>
				<stop  offset="1" style="stop-color:#FFDFB4"/>
			</linearGradient>
			<path fill="url(#SVGID_6_)" d="M1400,1686.4h27.5c27.8,0,55-8.6,77.7-24.5l86-60.3c37.7-26.4,67-63.1,84.4-105.7l40.7-99.7
				c25.8-63.1,43.4-129.3,52.4-196.9l42.9-322H1400H988.4l42.9,322c9,67.6,26.6,133.8,52.4,196.9l40.7,99.7
				c17.4,42.6,46.7,79.3,84.4,105.7l86,60.3c22.8,16,49.9,24.5,77.7,24.5H1400z"/>
			<g>
				<path fill="#F69275" d="M1768.7,1199.2c1.9-27.1,4.7-54,7.6-80.9c3-26.9,6.3-53.8,9.8-80.6c3.6-26.8,7.4-53.6,11.6-80.4
					c4.2-26.8,8.6-53.5,13.8-80.1c-1.9,27.1-4.6,54-7.6,80.9c-2.9,26.9-6.3,53.8-9.9,80.6c-3.6,26.8-7.5,53.6-11.6,80.4
					C1778.3,1145.9,1773.9,1172.6,1768.7,1199.2z"/>
				<path fill="#F69275" d="M1505.2,1661.8c22.9-18.1,46.3-35.5,69.8-52.7l8.8-6.5c2.9-2.1,5.9-4.3,8.8-6.4
					c5.8-4.3,11.3-8.9,16.6-13.6l3.9-3.7l2-1.8l1.9-1.9l3.8-3.8l3.7-3.9c2.5-2.6,4.8-5.3,7.2-8c1.2-1.3,2.3-2.8,3.4-4.1
					c1.1-1.4,2.3-2.7,3.4-4.2c2.2-2.8,4.4-5.6,6.5-8.6c1-1.5,2.1-2.9,3.1-4.4l3-4.5c0.5-0.7,1-1.5,1.5-2.2l1.4-2.3l2.8-4.6l2.7-4.7
					c0.9-1.6,1.8-3.1,2.6-4.7l2.5-4.8c0.8-1.6,1.6-3.2,2.4-4.8c1.6-3.2,3-6.5,4.5-9.8l8.7-20.1c11.6-26.8,23.4-53.4,36-79.8
					c-9.5,27.6-19.7,54.9-30.2,82.1c-2.6,6.8-5.2,13.6-7.9,20.4c-1.4,3.4-2.8,6.9-4.4,10.2c-0.8,1.7-1.5,3.4-2.3,5l-2.5,5
					c-6.7,13.2-14.9,25.6-24,37.3c-9.2,11.6-19.5,22.3-30.7,32c-5.7,4.8-11.4,9.4-17.5,13.6c-3,2.2-6,4.2-9,6.2l-9.1,6.1
					C1554.4,1630.4,1530,1646.4,1505.2,1661.8z"/>
				<path fill="#F69275" d="M1124.5,1495.9c9.2,18,19.8,35.1,32.2,50.7c12.4,15.6,26.4,29.8,41.9,42.2l5.8,4.6l6,4.4l12.3,8.8
					c8.2,5.9,16.3,11.9,24.4,17.9c16.2,12.1,32.2,24.4,47.7,37.3c-17.5-10.2-34.5-21.1-51.4-32.2c-8.4-5.5-16.8-11.2-25.1-16.8
					l-12.5-8.6l-6.2-4.5l-6.1-4.7c-15.9-12.9-30.1-28-41.9-44.7C1140,1533.5,1130.6,1515.2,1124.5,1495.9z"/>
				<path fill="#F69275" d="M988.4,877.2c5.2,26.6,9.7,53.3,13.8,80.1c4.2,26.8,8,53.6,11.6,80.4c3.6,26.8,6.9,53.7,9.9,80.6
					c3,26.9,5.7,53.9,7.6,80.9c-5.2-26.6-9.7-53.3-13.8-80.1c-4.2-26.8-8-53.6-11.6-80.4c-3.6-26.8-6.9-53.7-9.8-80.6
					C993.1,931.2,990.4,904.3,988.4,877.2z"/>
			</g>
		</g>
		<g>
			<linearGradient id="SVGID_7_" gradientUnits="userSpaceOnUse" x1="1400" y1="329.5759" x2="1400" y2="875.0408">
				<stop  offset="0" style="stop-color:#4C5774"/>
				<stop  offset="1" style="stop-color:#283453"/>
			</linearGradient>
			<polygon fill="url(#SVGID_7_)" points="1872.4,458 1400,329.6 927.6,458 784.9,713.3 937.1,875 1400,875 1862.9,875 
				2015.1,713.3 			"/>
			<polygon opacity="0.1" fill="#FFFFFF" points="1400,329.6 927.6,458 1119.9,800.8 1400,800.8 1680.1,800.8 1872.4,458 			"/>
			<g>
				<path fill="#25314F" d="M808,671.9c-1.6,3.6-3.2,7.3-4.9,10.8c-1.7,3.6-3.3,7.2-5.1,10.7l-5.2,10.7l-5.3,10.6l-0.5-3.7
					c26.6,25.8,52.3,52.5,77.4,79.7c12.5,13.6,24.9,27.4,37.1,41.4c6.1,7,12.1,14,18,21.2c3,3.6,5.9,7.1,8.8,10.7
					c2.9,3.6,5.8,7.2,8.7,10.9c-3.5-3.1-7-6.2-10.4-9.3c-3.4-3.1-6.8-6.3-10.2-9.5c-6.8-6.3-13.4-12.8-20.1-19.3
					c-13.2-13-26.2-26.2-39.1-39.5c-25.6-26.7-50.7-54-74.8-82.1l-1.6-1.9l1.1-1.8l6.3-10.1l6.4-10c2.1-3.3,4.3-6.6,6.5-9.9
					C803.5,678.5,805.7,675.2,808,671.9z"/>
				<path fill="#25314F" d="M1340,345.9c-33.9,11.1-68,21.4-102.2,31.5l-25.6,7.5c-8.5,2.5-17.1,4.9-25.7,7.3l-25.7,7.3l-25.7,7.2
					c-34.3,9.5-68.7,18.8-103.2,27.7l-25.9,6.7l-25.9,6.5c-17.3,4.4-34.6,8.5-51.9,12.8l1.5-1.2l-7.9,13.1c-2.6,4.3-5.2,8.7-7.9,13
					l-8,13c-2.7,4.3-5.4,8.6-8.1,12.9c2.2-4.6,4.5-9.1,6.8-13.7l6.9-13.6c2.3-4.5,4.6-9.1,7-13.6l7-13.6l0.4-0.9l1.1-0.3
					c17.1-5.1,34.1-10.3,51.2-15.3l25.6-7.5l25.7-7.3c34.2-9.8,68.6-19.2,103-28.4l25.8-6.8l25.9-6.7c8.6-2.2,17.2-4.5,25.9-6.7
					l25.9-6.5C1270.5,361.9,1305.1,353.5,1340,345.9z"/>
				<path fill="#25314F" d="M1992,671.9c2.3,3.3,4.5,6.5,6.7,9.8c2.2,3.3,4.4,6.6,6.5,9.9l6.4,10l6.3,10.1l1.1,1.8l-1.6,1.9
					c-24.1,28.1-49.2,55.4-74.8,82.1c-12.8,13.3-25.8,26.5-39.1,39.5c-6.6,6.5-13.3,12.9-20.1,19.3c-3.4,3.2-6.7,6.4-10.2,9.5
					c-3.4,3.1-6.9,6.2-10.4,9.3c2.8-3.7,5.7-7.3,8.7-10.9c2.9-3.6,5.9-7.2,8.8-10.7c5.9-7.2,11.9-14.2,18-21.2
					c12.1-14,24.5-27.8,37.1-41.4c25.1-27.2,50.8-53.9,77.4-79.7l-0.5,3.7l-5.3-10.6l-5.2-10.7c-1.7-3.6-3.4-7.2-5.1-10.7
					C1995.2,679.2,1993.6,675.6,1992,671.9z"/>
				<path fill="#25314F" d="M1460,345.9c34.8,7.6,69.5,16,104,24.6l25.9,6.5c8.6,2.2,17.2,4.4,25.9,6.7l25.9,6.7l25.8,6.8
					c34.4,9.2,68.8,18.6,103,28.4l25.7,7.3l25.6,7.5c17.1,4.9,34.2,10.1,51.2,15.3l1.1,0.3l0.4,0.9l7,13.6c2.3,4.5,4.7,9,7,13.6
					l6.9,13.6c2.3,4.6,4.6,9.1,6.8,13.7c-2.7-4.3-5.4-8.6-8.1-12.9l-8-13c-2.7-4.3-5.3-8.7-7.9-13l-7.9-13.1l1.5,1.2
					c-17.3-4.2-34.6-8.4-51.9-12.8l-25.9-6.5l-25.9-6.7c-34.5-8.9-68.9-18.2-103.2-27.7l-25.7-7.2l-25.7-7.3
					c-8.6-2.5-17.1-4.8-25.7-7.3l-25.6-7.5C1528,367.3,1493.9,357,1460,345.9z"/>
			</g>
			<linearGradient id="SVGID_8_" gradientUnits="userSpaceOnUse" x1="1400" y1="1064.8942" x2="1400" y2="807.9145">
				<stop  offset="0" style="stop-color:#2D404E"/>
				<stop  offset="1" style="stop-color:#100C1A"/>
			</linearGradient>
			<polygon fill="url(#SVGID_8_)" points="1400,807.9 956.3,807.9 956.3,957.9 995.6,1002.8 1125.8,1050 1400,1064.9 1674.2,1050 
				1804.4,1002.8 1843.7,957.9 1843.7,807.9 			"/>
			<linearGradient id="SVGID_9_" gradientUnits="userSpaceOnUse" x1="1400" y1="644.1642" x2="1400" y2="957.8842">
				<stop  offset="0" style="stop-color:#4C5774"/>
				<stop  offset="1" style="stop-color:#283453"/>
			</linearGradient>
			<path fill="url(#SVGID_9_)" d="M1695,687.6l-76.7-23.4c-24.4-7.5-49.7-11.9-75.2-13.2l-127.1-6.5c-10.6-0.5-21.3-0.5-32,0
				l-127.1,6.5c-25.5,1.3-50.8,5.7-75.2,13.2l-76.7,23.4c-34.9,10.6-67.7,27.3-96.9,49.3l-51.7,38.9v182.1l20.5-26.1
				c8.3-10.5,19-18.8,31.3-24.1l67.7-29.2c18.4-7.9,37.8-13.4,57.6-16.3l70.9-10.2c28.6-4.1,57.4-6.2,86.3-6.2H1400h109.2
				c28.9,0,57.7,2.1,86.3,6.2l70.9,10.2c19.8,2.9,39.2,8.3,57.6,16.3l67.7,29.2c12.3,5.3,23.1,13.6,31.3,24.1l20.5,26.1V775.8
				l-51.7-38.9C1762.7,715,1729.9,698.3,1695,687.6z"/>
			<g>
				<path fill="#25314F" d="M1695,687.6c-24.2-6.2-48.3-12.9-72.5-19.5c-23.9-7-48.4-11.3-73-12.7l-74.9-3.1
					c-12.5-0.5-25-1.2-37.5-1.8l-18.7-0.9c-6.2-0.3-12.3-0.5-18.5-0.5c-6.2,0-12.3,0.2-18.5,0.5l-18.7,0.9l-37.5,1.8l-74.9,3.1
					c-12.3,0.7-24.6,2.2-36.8,4.3c-6.1,1.1-12.2,2.3-18.2,3.7c-6,1.4-12,3-18,4.7c-24.1,6.6-48.2,13.3-72.5,19.5
					c23.6-8.4,47.3-16.3,71-24.2c11.8-4,24.1-7.5,36.4-10.2c12.3-2.7,24.9-4.5,37.5-5.6c6.3-0.6,12.6-0.9,18.8-1.3l18.7-1.1
					l37.4-2.3l37.4-2.1l18.7-1c6.3-0.4,12.7-0.6,19-0.6c6.3,0,12.7,0.2,19,0.6l18.7,1c12.5,0.7,25,1.3,37.4,2.1l37.4,2.3l18.7,1.1
					c6.2,0.4,12.5,0.8,18.8,1.3c12.6,1.1,25.1,2.9,37.5,5.6c12.3,2.7,24.5,6.1,36.4,10.2C1647.7,671.4,1671.4,679.3,1695,687.6z"/>
				<path fill="#25314F" d="M1843.7,957.9c-1.5-15.2-2.5-30.3-3.2-45.5c-0.7-15.2-1.2-30.3-1.5-45.5c-0.5-30.3-0.4-60.7,0.7-91
					l1.6,3.2c-4.2-3.4-8.4-6.8-12.6-10.2c-4.2-3.4-8.3-6.9-12.4-10.4c-4.1-3.5-8.2-7-12.3-10.6l-6.1-5.4c-2-1.8-4-3.6-6-5.5
					c2.3,1.4,4.6,2.8,6.9,4.2l6.9,4.3c4.6,2.9,9.1,5.9,13.6,8.9c4.5,3,9,6,13.4,9.1c4.4,3.1,8.9,6.1,13.3,9.2l1.5,1.1l0.1,2.1
					c1,30.3,1.2,60.7,0.7,91c-0.3,15.2-0.7,30.3-1.5,45.5C1846.2,927.5,1845.2,942.7,1843.7,957.9z"/>
				<path fill="#25314F" d="M1509.2,845.8c24.3-2.1,48.9-1.7,73.3,0.5c6.1,0.5,12.2,1.2,18.2,2c6,0.7,12.1,1.5,18.1,2.3l18.1,2.4
					l18.1,2.5c6,0.9,12,1.7,18.2,2.8c6.1,1.1,12.2,2.4,18.2,4.1c12,3.2,23.7,7.5,34.9,12.8c22,10.4,44,21,65.5,32.5
					c-23.2-7.7-46-16.4-68.6-25.3c-11.1-4.4-22.5-8.1-34.1-10.8c-5.8-1.4-11.6-2.6-17.5-3.5c-5.8-1-11.9-1.7-17.9-2.6l-18.1-2.7
					l-18-2.8c-12-1.9-24-4-36-5.8C1557.6,850.4,1533.5,847.9,1509.2,845.8z"/>
				<path fill="#25314F" d="M1008.2,907.7c21.5-11.5,43.5-22.2,65.5-32.5c11.2-5.3,22.9-9.6,34.9-12.8c6-1.6,12.1-3,18.2-4.1
					c6.2-1.1,12.1-1.9,18.2-2.8l18.1-2.5l18.1-2.4c6-0.8,12.1-1.6,18.1-2.3l9.1-1.1c3-0.3,6.1-0.6,9.1-0.9c24.4-2.2,49-2.6,73.3-0.5
					c-24.3,2.1-48.5,4.6-72.4,8.3c-11.9,1.8-23.9,4-36,5.8l-18,2.8l-18.1,2.7c-6,0.9-12.1,1.7-17.9,2.6c-5.9,0.9-11.7,2.1-17.5,3.5
					c-11.6,2.8-23,6.4-34.1,10.8C1054.1,891.3,1031.4,899.9,1008.2,907.7z"/>
				<path fill="#25314F" d="M1008.1,736.9c-2,1.9-4,3.7-6,5.5l-6.1,5.4c-4.1,3.6-8.2,7.1-12.3,10.6c-4.1,3.5-8.3,7-12.4,10.4
					c-4.2,3.4-8.3,6.9-12.6,10.2l1.6-3.2c1,30.3,1.2,60.7,0.7,91c-0.3,15.2-0.7,30.3-1.5,45.5c-0.7,15.2-1.7,30.3-3.2,45.5
					c-1.6-15.2-2.5-30.3-3.2-45.5c-0.7-15.2-1.2-30.3-1.5-45.5c-0.5-30.3-0.3-60.7,0.7-91l0.1-2.1l1.5-1.1c4.4-3.1,8.9-6.2,13.3-9.2
					c4.5-3,8.9-6.1,13.4-9.1c4.5-3,9-6,13.6-8.9l6.9-4.3C1003.5,739.7,1005.8,738.3,1008.1,736.9z"/>
			</g>
			<g>
				<path fill="#FBB03B" d="M1467.2,462.3c-7.2-40,15.1-60.6,15.1-60.6l-18.5-20c0,0-18.9,15.6-33.9,15.6s-30-15.6-30-15.6
					s-15,15.6-30,15.6c-15,0-33.9-15.6-33.9-15.6l-18.5,20c0,0,22.3,20.6,15.1,60.6c-5.8,32.3-25.3,49.4-12.3,85.5
					c7.7,21.4,36.9,37.6,56.3,41.7c16.7,3.6,23.2,12.7,23.2,12.7s6.5-9.2,23.2-12.7c19.5-4.2,48.7-20.3,56.3-41.7
					C1492.5,511.7,1473,494.6,1467.2,462.3z"/>
				<circle fill="#E4A035" cx="1400" cy="500.8" r="60"/>
			</g>
		</g>
		<g>
			<linearGradient id="SVGID_10_" gradientUnits="userSpaceOnUse" x1="1400" y1="1745.0332" x2="1400" y2="2800">
				<stop  offset="0" style="stop-color:#4C5774"/>
				<stop  offset="1" style="stop-color:#283453"/>
			</linearGradient>
			<path fill="url(#SVGID_10_)" d="M2547.1,2242.4l-78.5-181.8l-98.3-84L1728.1,1745l-83.9,180.7L1400,2090.6l-244.2-164.9
				l-83.9-180.7l-642.2,231.5l-98.3,84l-78.5,181.8c-33.6,77.9-56.8,159.8-68.9,243.8L138.8,2800H1400h1261.2l-45.2-313.9
				C2603.9,2402.2,2580.8,2320.2,2547.1,2242.4z"/>
			<g>
				<path fill="#25314F" d="M1071.9,1745c-52.5,22.2-105.4,43-158.6,63.4c-53.1,20.3-106.5,40.1-160,59.4
					c-53.5,19.3-107.2,38.1-161.1,56.4c-53.9,18.2-108,36-162.5,52.3c52.5-22.2,105.4-43,158.5-63.4c53.1-20.3,106.5-40.1,160-59.4
					c53.5-19.3,107.2-38.1,161.1-56.4C963.2,1779.2,1017.3,1761.4,1071.9,1745z"/>
				<path fill="#25314F" d="M2370.3,1976.5c-54.6-16.4-108.6-34.2-162.5-52.3c-53.9-18.3-107.6-37.1-161.1-56.4
					c-53.5-19.3-106.9-39.1-160-59.4c-53.1-20.4-106.1-41.2-158.5-63.4c54.6,16.3,108.6,34.2,162.5,52.3
					c53.9,18.3,107.6,37.1,161.1,56.4c53.5,19.3,106.9,39.1,160,59.4C2264.9,1933.6,2317.9,1954.3,2370.3,1976.5z"/>
				<path fill="#25314F" d="M2661.2,2800c-9.9-46.7-18.2-93.5-26.2-140.5c-7.9-47-15.2-94-21.9-141.1l-5-35.3
					c-0.9-5.8-1.7-11.7-2.6-17.5l-1.4-8.7l-1.5-8.7c-4.1-23.3-8.9-46.4-14.4-69.4c-11-46-25-91.4-41-136.3
					c21.7,42.5,39,87.3,52.4,133.3c6.7,23,12.3,46.3,17,69.8c0.6,2.9,1.2,5.9,1.7,8.8l1.6,8.9c1.1,5.9,2,11.8,2.9,17.7
					c1.8,11.8,3.5,23.6,5.2,35.3c6.8,47.1,13,94.3,18.7,141.6C2652.3,2705.1,2657.5,2752.4,2661.2,2800z"/>
				<path fill="#25314F" d="M252.9,2242.4c-16,44.9-30,90.3-41,136.3c-5.5,23-10.3,46.2-14.4,69.4l-1.5,8.7l-1.4,8.7
					c-1,5.8-1.8,11.7-2.6,17.5l-5,35.3c-6.8,47.1-14.1,94.1-21.9,141.1c-7.9,46.9-16.3,93.8-26.2,140.5
					c3.7-47.6,8.9-94.9,14.5-142.2c5.7-47.3,12-94.5,18.8-141.6c1.7-11.8,3.4-23.5,5.2-35.3c1-5.9,1.9-11.8,2.9-17.7l1.6-8.9
					c0.5-2.9,1.2-5.9,1.7-8.8c4.7-23.5,10.3-46.8,17-69.8C213.9,2329.7,231.2,2284.9,252.9,2242.4z"/>
			</g>
			<linearGradient id="SVGID_11_" gradientUnits="userSpaceOnUse" x1="1400" y1="2044.4301" x2="1400" y2="2800">
				<stop  offset="0" style="stop-color:#2D404E"/>
				<stop  offset="1" style="stop-color:#100C1A"/>
			</linearGradient>
			<path fill="url(#SVGID_11_)" d="M1400,2800h133.1l-17-364.6c-1.3-28.9-5.4-57.5-12.1-85.6l-46.9-196.1
				c-3.5-14.8-9.3-29-17.1-42.1l-39.9-67.2l-39.9,67.2c-7.8,13.1-13.5,27.3-17.1,42.1l-46.9,196.1c-6.7,28.1-10.8,56.8-12.1,85.6
				l-17,364.6H1400z"/>
			<g opacity="0.3">
				<polygon points="532,2800 575.6,2800 464.3,2393.4 				"/>
				<polygon points="2224.4,2800 2268,2800 2335.7,2393.4 				"/>
			</g>
			<path opacity="0.3" d="M1430.8,2221.8c18.4,51.6,42.7,116.9,65.7,171.6c-11.2-46.3-96.5-397.3-96.5-397.3l-96.5,397.3l63.8-172
				C1378.2,2191.8,1420.2,2192.1,1430.8,2221.8z"/>
			<linearGradient id="SVGID_12_" gradientUnits="userSpaceOnUse" x1="1255.8745" y1="2044.4301" x2="1544.1255" y2="2044.4301">
				<stop  offset="0" style="stop-color:#2D404E"/>
				<stop  offset="1" style="stop-color:#100C1A"/>
			</linearGradient>
			<path fill="url(#SVGID_12_)" d="M1400,1957.5h-144.1v66.2l81.1,94.4c7.2,8.4,17.8,13.3,28.9,13.3h68.4c11.1,0,21.6-4.8,28.9-13.3
				l81.1-94.4v-66.2H1400z"/>
			<g>
				<linearGradient id="SVGID_13_" gradientUnits="userSpaceOnUse" x1="1179.0551" y1="1621.3523" x2="1179.0551" y2="2209.6299">
					<stop  offset="0" style="stop-color:#4C5774"/>
					<stop  offset="1" style="stop-color:#283453"/>
				</linearGradient>
				<polygon fill="url(#SVGID_13_)" points="1089.2,1621.4 999.3,1751.4 1151.2,2209.6 1358.8,1957.5 1189.9,1821.1 				"/>
				<linearGradient id="SVGID_14_" gradientUnits="userSpaceOnUse" x1="1620.9449" y1="1621.3523" x2="1620.9449" y2="2209.6299">
					<stop  offset="0" style="stop-color:#4C5774"/>
					<stop  offset="1" style="stop-color:#283453"/>
				</linearGradient>
				<polygon fill="url(#SVGID_14_)" points="1710.8,1621.4 1610.1,1821.1 1441.2,1957.5 1648.8,2209.6 1800.7,1751.4 				"/>
			</g>
			<g>
				<path fill="#25314F" d="M1295.9,1906.8c-4.7-3.2-9.4-6.5-14-9.8c-4.7-3.3-9.2-6.6-13.8-10c-9.2-6.7-18.3-13.5-27.4-20.3
					c-9.1-6.9-18.1-13.7-27.1-20.7l-13.4-10.5l-13.4-10.6l-0.8-0.6l-0.5-1c-7.3-14.1-14.4-28.3-21.5-42.4c-7-14.2-14-28.5-20.8-42.8
					c-6.8-14.3-13.5-28.7-20.1-43.2c-3.3-7.2-6.4-14.5-9.7-21.8c-3.1-7.3-6.3-14.6-9.3-22c4.1,6.8,8.1,13.7,12.1,20.5
					c3.9,6.9,7.9,13.8,11.7,20.7c7.7,13.9,15.3,27.8,22.8,41.8c7.5,14,14.8,28.1,22,42.2c7.2,14.1,14.3,28.3,21.4,42.5l-1.3-1.6
					l13.1,10.8l13.1,10.9c8.7,7.3,17.3,14.7,26,22.1c8.6,7.4,17.2,14.9,25.6,22.5c4.2,3.8,8.5,7.6,12.7,11.4
					C1287.6,1899,1291.8,1902.9,1295.9,1906.8z"/>
				<path fill="#25314F" d="M1198.8,2151.7c9.6-14.9,20-29.2,30.6-43.3c10.6-14.1,21.6-27.9,32.8-41.5c11.2-13.6,22.7-27,34.5-40.2
					c11.8-13.1,23.9-26.1,36.7-38.4c-9.6,14.9-20,29.2-30.6,43.4c-10.6,14.1-21.6,27.9-32.8,41.5c-11.2,13.6-22.7,27-34.5,40.2
					C1223.7,2126.5,1211.7,2139.4,1198.8,2151.7z"/>
				<path fill="#25314F" d="M1039.9,1692.7c-3.1,5.1-6.2,10.1-9.4,15.2l-9.5,15.1l-9.6,15c-3.2,5-6.4,10-9.7,15l0.4-2.5
					c11.1,30.5,21.8,61.2,32.4,91.9c10.5,30.7,20.8,61.5,30.9,92.4c5.1,15.4,9.9,30.9,14.9,46.4c5,15.5,9.7,31,14.5,46.5
					c9.5,31.1,18.8,62.2,27.3,93.6c-11.9-30.3-23-60.8-34-91.4c-5.4-15.3-10.9-30.6-16.1-46c-5.3-15.4-10.6-30.7-15.8-46.1
					c-10.4-30.8-20.5-61.6-30.4-92.6c-9.9-30.9-19.6-61.9-28.9-93.1l-0.4-1.4l0.8-1.1c3.5-4.8,7-9.6,10.6-14.3l10.7-14.3l10.7-14.2
					C1032.6,1702.2,1036.2,1697.4,1039.9,1692.7z"/>
				<path fill="#25314F" d="M1504.1,1906.8c4.1-3.9,8.3-7.8,12.5-11.6c4.2-3.9,8.4-7.6,12.7-11.4c8.5-7.6,17-15.1,25.6-22.5
					c8.6-7.4,17.2-14.8,26-22.1l13.1-10.9l13.1-10.8l-1.3,1.6c7-14.2,14.2-28.4,21.4-42.5c7.2-14.1,14.5-28.2,22-42.2
					c7.5-14,15-27.9,22.8-41.8c3.8-6.9,7.8-13.8,11.7-20.7c4-6.9,8-13.7,12.1-20.5c-3,7.4-6.1,14.7-9.3,22
					c-3.2,7.3-6.4,14.5-9.7,21.8c-6.5,14.5-13.2,28.8-20.1,43.2c-6.8,14.3-13.8,28.6-20.8,42.8c-7.1,14.2-14.2,28.4-21.5,42.4
					l-0.5,1l-0.8,0.6l-13.4,10.6l-13.4,10.5c-9,7-18,13.9-27.1,20.7c-9.1,6.8-18.2,13.7-27.4,20.3c-4.6,3.3-9.2,6.7-13.8,10
					C1513.4,1900.3,1508.8,1903.6,1504.1,1906.8z"/>
				<path fill="#25314F" d="M1601.2,2151.7c-12.8-12.3-24.9-25.2-36.7-38.4c-11.8-13.2-23.3-26.6-34.5-40.2
					c-11.2-13.6-22.2-27.4-32.8-41.5c-10.6-14.1-21-28.4-30.6-43.4c12.8,12.3,24.9,25.2,36.7,38.4c11.8,13.2,23.3,26.6,34.5,40.2
					c11.2,13.6,22.2,27.5,32.8,41.5C1581.2,2122.5,1591.5,2136.8,1601.2,2151.7z"/>
				<path fill="#25314F" d="M1760.1,1692.7c3.7,4.7,7.3,9.4,10.9,14.1l10.7,14.2l10.7,14.3c3.6,4.8,7.1,9.6,10.6,14.3l0.8,1.1
					l-0.4,1.4c-9.3,31.1-19,62.1-28.9,93.1c-9.9,30.9-20.1,61.8-30.4,92.6c-5.2,15.4-10.5,30.7-15.8,46.1
					c-5.2,15.4-10.7,30.7-16.1,46c-11,30.6-22.1,61.1-34,91.4c8.5-31.4,17.8-62.5,27.3-93.6c4.8-15.5,9.5-31.1,14.5-46.5
					c4.9-15.5,9.8-31,14.9-46.4c10.1-30.9,20.3-61.7,30.9-92.4c10.6-30.7,21.2-61.4,32.4-91.9l0.4,2.5c-3.2-5-6.5-9.9-9.7-15
					l-9.6-15l-9.5-15.1C1766.4,1702.9,1763.2,1697.8,1760.1,1692.7z"/>
			</g>
			<g>
				<linearGradient id="SVGID_15_" gradientUnits="userSpaceOnUse" x1="320.7934" y1="1934.7574" x2="847.8824" y2="1934.7574">
					<stop  offset="0" style="stop-color:#4C5774"/>
					<stop  offset="1" style="stop-color:#283453"/>
				</linearGradient>
				<polygon fill="url(#SVGID_15_)" points="320.8,2060.6 802.7,1924.3 847.9,1808.9 355.2,1956.7 				"/>
				<linearGradient id="SVGID_16_" gradientUnits="userSpaceOnUse" x1="1952.1174" y1="1934.7574" x2="2479.2065" y2="1934.7574">
					<stop  offset="0" style="stop-color:#4C5774"/>
					<stop  offset="1" style="stop-color:#283453"/>
				</linearGradient>
				<polygon fill="url(#SVGID_16_)" points="2444.8,1956.7 1952.1,1808.9 1997.3,1924.3 2479.2,2060.6 				"/>
			</g>
			<g>
				<path fill="#25314F" d="M384.2,2042.6c34.4-11.6,69-22.5,103.6-33.1l26-7.9l26.1-7.7l26.1-7.7l26.1-7.5
					c34.8-10,69.7-19.8,104.7-29.1l26.2-7.1l26.3-6.9c8.8-2.3,17.5-4.6,26.3-6.8c8.8-2.2,17.6-4.5,26.4-6.6l-1.5,1.3
					c3.6-8.2,7.1-16.4,10.7-24.6l5.4-12.3l5.5-12.2l-4.3,12.7l-4.4,12.7c-2.9,8.5-5.9,16.9-8.9,25.3l-0.3,1l-1.1,0.4
					c-8.6,2.8-17.3,5.4-25.9,8.2c-8.7,2.7-17.3,5.4-26,8l-26,7.9l-26.1,7.7c-34.7,10.3-69.6,20.3-104.5,30l-26.2,7.2l-26.2,7.1
					l-26.2,7.1l-26.3,6.9C454.8,2025.7,419.6,2034.6,384.2,2042.6z"/>
				<path fill="#25314F" d="M778.8,1829.7c-34.7,12.5-69.7,24-104.8,35.4c-8.8,2.8-17.5,5.7-26.3,8.4l-26.4,8.3
					c-8.8,2.8-17.6,5.5-26.4,8.2c-8.8,2.7-17.6,5.4-26.4,8c-8.8,2.7-17.6,5.3-26.5,7.9c-8.8,2.6-17.7,5.3-26.5,7.8l-13.3,3.9
					l-13.3,3.8l-26.6,7.6c-35.5,10-71,19.8-106.8,28.9l0.9-0.8l-4.8,12.6l-4.9,12.6l3.6-13l3.7-13l0.2-0.6l0.7-0.2
					c34.9-12.1,69.9-23.4,105-34.6l26.4-8.3l13.2-4.1l13.2-4.1c8.8-2.7,17.6-5.4,26.4-8c8.8-2.7,17.6-5.3,26.5-7.9
					c8.8-2.6,17.7-5.3,26.5-7.8c8.8-2.6,17.7-5.2,26.5-7.7l26.6-7.6c8.9-2.5,17.7-5,26.6-7.4C707.3,1848,742.9,1838.4,778.8,1829.7z
					"/>
				<path fill="#25314F" d="M2415.8,2042.6c-35.4-8.1-70.5-17-105.6-26.1l-26.3-6.9l-26.2-7.1l-26.2-7.1l-26.2-7.2
					c-34.9-9.7-69.8-19.7-104.5-30l-26.1-7.7l-26-7.9c-8.7-2.6-17.3-5.3-26-8c-8.6-2.7-17.3-5.4-25.9-8.2l-1.1-0.4l-0.3-1
					c-3-8.4-6-16.9-8.9-25.3l-4.4-12.7l-4.3-12.7l5.5,12.2l5.4,12.3c3.6,8.2,7.1,16.4,10.7,24.6l-1.5-1.3c8.8,2.1,17.6,4.4,26.4,6.6
					c8.8,2.2,17.6,4.5,26.3,6.8l26.3,6.9l26.2,7.1c35,9.4,69.9,19.2,104.7,29.1l26.1,7.5l26.1,7.7l26.1,7.7l26,7.9
					C2346.8,2020.2,2381.4,2031,2415.8,2042.6z"/>
				<path fill="#25314F" d="M2021.2,1829.7c35.9,8.7,71.5,18.3,107,28.2c8.9,2.5,17.8,4.9,26.6,7.4l26.6,7.6
					c8.9,2.5,17.7,5.1,26.5,7.7c8.8,2.6,17.7,5.2,26.5,7.8c8.8,2.6,17.7,5.3,26.5,7.9c8.8,2.7,17.6,5.3,26.4,8l13.2,4.1l13.2,4.1
					l26.4,8.3c35.1,11.2,70.2,22.6,105,34.6l0.7,0.2l0.2,0.6l3.7,13l3.6,13l-4.9-12.6l-4.8-12.6l0.9,0.8
					c-35.7-9.1-71.3-18.9-106.8-28.9l-26.6-7.6l-13.3-3.8l-13.3-3.9c-8.8-2.6-17.7-5.2-26.5-7.8c-8.8-2.6-17.7-5.3-26.5-7.9
					c-8.8-2.7-17.6-5.3-26.4-8c-8.8-2.7-17.6-5.4-26.4-8.2l-26.4-8.3c-8.8-2.8-17.5-5.6-26.3-8.4
					C2091,1853.7,2056,1842.1,2021.2,1829.7z"/>
			</g>
			<g>
				<path fill="#FBB03B" d="M2017.7,2287.3c-11.1-61.3,23.2-92.7,23.2-92.7l-28.3-30.6c0,0-28.9,23.8-51.9,23.8
					s-45.9-23.8-45.9-23.8s-23,23.8-45.9,23.8c-23,0-51.9-23.8-51.9-23.8l-28.3,30.6c0,0,34.2,31.5,23.2,92.7
					c-8.9,49.4-38.8,75.6-18.9,131c11.8,32.7,56.4,57.5,86.3,63.9c25.6,5.5,35.5,19.5,35.5,19.5s9.9-14,35.5-19.5
					c29.8-6.4,74.5-31.2,86.3-63.9C2056.5,2362.9,2026.6,2336.7,2017.7,2287.3z"/>
				<circle fill="#E4A035" cx="1914.8" cy="2346.3" r="91.9"/>
			</g>
			<rect x="611.6" y="2547.4" opacity="0.1" width="547.2" height="252.6"/>
			<linearGradient id="SVGID_17_" gradientUnits="userSpaceOnUse" x1="885.2335" y1="2547.374" x2="885.2335" y2="2702.0425">
				<stop  offset="0" style="stop-color:#4C5774"/>
				<stop  offset="1" style="stop-color:#283453"/>
			</linearGradient>
			<polygon fill="url(#SVGID_17_)" points="1158.8,2655.4 885.2,2702 611.6,2655.4 611.6,2547.4 1158.8,2547.4 			"/>
			<rect x="1641.2" y="2547.4" opacity="0.1" width="547.2" height="252.6"/>
			<linearGradient id="SVGID_18_" gradientUnits="userSpaceOnUse" x1="1914.7665" y1="2547.374" x2="1914.7665" y2="2702.0425">
				<stop  offset="0" style="stop-color:#4C5774"/>
				<stop  offset="1" style="stop-color:#283453"/>
			</linearGradient>
			<polygon fill="url(#SVGID_18_)" points="2188.4,2655.4 1914.8,2702 1641.2,2655.4 1641.2,2547.4 2188.4,2547.4 			"/>
		</g>
	</g>
</g>
</svg>
