<?xml version="1.0" encoding="utf-8"?>
<!-- Generator: Adobe Illustrator 23.0.1, SVG Export Plug-In . SVG Version: 6.00 Build 0)  -->
<svg version="1.1" xmlns="http://www.w3.org/2000/svg" xmlns:xlink="http://www.w3.org/1999/xlink" x="0px" y="0px"
	 viewBox="0 0 2850 1800" enable-background="new 0 0 2850 1800" xml:space="preserve">
<pattern  x="465" y="578.964" width="38.25" height="55" patternUnits="userSpaceOnUse" id="Új_mintázatos_színtár_1" viewBox="0 -55 38.25 55" overflow="visible">
	<g>
		<rect y="-55" fill="none" width="38.25" height="55"/>
		<rect x="0.005" y="-55" fill="none" width="38.25" height="55"/>
		<rect x="0.005" y="-55" fill="#FFFFFF" width="38.25" height="55"/>
	</g>
</pattern>
<g id="bg">
	<linearGradient id="SVGID_1_" gradientUnits="userSpaceOnUse" x1="1421.8835" y1="1134.5283" x2="1435.4465" y2="96.9589">
		<stop  offset="0" style="stop-color:#D4CFF8"/>
		<stop  offset="0.1342" style="stop-color:#C6C6F7"/>
		<stop  offset="0.3894" style="stop-color:#A0AEF3"/>
		<stop  offset="0.736" style="stop-color:#6488EE"/>
		<stop  offset="1" style="stop-color:#3168E9"/>
	</linearGradient>
	<rect y="0" fill="url(#SVGID_1_)" width="2850" height="1792.235"/>
	<g>
		<defs>
			<filter id="Adobe_OpacityMaskFilter" filterUnits="userSpaceOnUse" x="884.412" y="11.162" width="1075.826" height="1075.825">
				<feFlood  style="flood-color:white;flood-opacity:1" result="back"/>
				<feBlend  in="SourceGraphic" in2="back" mode="normal"/>
			</filter>
		</defs>
		<mask maskUnits="userSpaceOnUse" x="884.412" y="11.162" width="1075.826" height="1075.825" id="SVGID_2_">
			<g filter="url(#Adobe_OpacityMaskFilter)">
				<defs>
					
						<filter id="Adobe_OpacityMaskFilter_1_" filterUnits="userSpaceOnUse" x="884.412" y="11.162" width="1075.826" height="1075.825">
						<feFlood  style="flood-color:white;flood-opacity:1" result="back"/>
						<feBlend  in="SourceGraphic" in2="back" mode="normal"/>
					</filter>
				</defs>
				<mask maskUnits="userSpaceOnUse" x="884.412" y="11.162" width="1075.826" height="1075.825" id="SVGID_2_">
					<g filter="url(#Adobe_OpacityMaskFilter_1_)">
					</g>
				</mask>
				
					<radialGradient id="SVGID_3_" cx="2608.2546" cy="210.9441" r="537.7423" gradientTransform="matrix(0.9404 -0.3402 -0.3402 -0.9404 -958.7153 1634.7748)" gradientUnits="userSpaceOnUse">
					<stop  offset="0" style="stop-color:#FFFFFF"/>
					<stop  offset="0.1577" style="stop-color:#D0D0D0"/>
					<stop  offset="0.4681" style="stop-color:#787878"/>
					<stop  offset="0.7216" style="stop-color:#373737"/>
					<stop  offset="0.9051" style="stop-color:#0F0F0F"/>
					<stop  offset="1" style="stop-color:#000000"/>
				</radialGradient>
				<circle mask="url(#SVGID_2_)" fill="url(#SVGID_3_)" cx="1422.324" cy="549.075" r="537.766"/>
			</g>
		</mask>
		
			<radialGradient id="SVGID_4_" cx="2608.2546" cy="210.9441" r="537.7423" gradientTransform="matrix(0.9404 -0.3402 -0.3402 -0.9404 -958.7153 1634.7748)" gradientUnits="userSpaceOnUse">
			<stop  offset="0" style="stop-color:#FFFFFF"/>
			<stop  offset="1" style="stop-color:#FFFFFF"/>
		</radialGradient>
		<circle opacity="0.56" fill="url(#SVGID_4_)" cx="1422.324" cy="549.075" r="537.766"/>
		<path fill="#FFFFFF" d="M1465.667,363.819c-82.81,29.963-125.651,121.385-95.688,204.195
			c29.963,82.811,121.386,125.652,204.196,95.689c2.705-0.979,5.362-2.032,7.979-3.138c-19.361,21.774-44.268,39.177-73.593,49.787
			c-93.999,34.012-197.771-14.617-231.782-108.616c-34.011-93.998,14.618-197.769,108.615-231.782
			c29.325-10.611,59.6-13.174,88.412-8.831C1471.087,361.948,1468.373,362.84,1465.667,363.819z"/>
	</g>
	<g opacity="0.7">
		<g>
			<path fill="#FFFFFF" d="M2430.147,567.302c-2.258,0-4.089,1.902-4.089,4.239c0,2.341,1.831,4.239,4.089,4.239
				c2.266,0,4.096-1.898,4.096-4.239C2434.243,569.204,2432.413,567.302,2430.147,567.302z"/>
			<path fill="#FFFFFF" d="M2032.601,550.78c1.343,0,2.429-1.128,2.429-2.515c0-1.389-1.087-2.518-2.429-2.518
				s-2.43,1.128-2.43,2.518C2030.17,549.652,2031.258,550.78,2032.601,550.78z"/>
			<path fill="#FFFFFF" d="M2133.728,801.148c1.34,0,2.43-1.125,2.43-2.514c0-1.39-1.09-2.518-2.43-2.518
				c-1.346,0-2.433,1.128-2.433,2.518C2131.295,800.024,2132.382,801.148,2133.728,801.148z"/>
			<path fill="#FFFFFF" d="M2625.854,691.07c-1.339,0-2.426,1.128-2.426,2.518c0,1.387,1.087,2.515,2.426,2.515
				c1.343,0,2.434-1.128,2.434-2.515C2628.287,692.199,2627.196,691.07,2625.854,691.07z"/>
			<path fill="#FFFFFF" d="M2770.79,372.386c1.343,0,2.43-1.126,2.43-2.515c0-1.393-1.088-2.518-2.43-2.518
				c-1.343,0-2.429,1.125-2.429,2.518C2768.361,371.26,2769.448,372.386,2770.79,372.386z"/>
			<path opacity="0.5" fill="#FFFFFF" d="M2756.598,551.769c-2.259,0-4.096,1.894-4.096,4.239c0,2.337,1.837,4.235,4.096,4.235
				c2.261,0,4.096-1.898,4.096-4.235C2760.694,553.664,2758.86,551.769,2756.598,551.769z"/>
			<path opacity="0.1" fill="#FFFFFF" d="M2629.129,535.686c-3.46,0-6.267,2.905-6.267,6.492c0,3.58,2.807,6.484,6.267,6.484
				c3.466,0,6.273-2.904,6.273-6.484C2635.402,538.59,2632.595,535.686,2629.129,535.686z"/>
			<path opacity="0.25" fill="#FFFFFF" d="M2399.854,878.018c-3.463,0-6.27,2.905-6.27,6.489c0,3.583,2.807,6.488,6.27,6.488
				c3.459,0,6.27-2.904,6.27-6.488C2406.124,880.923,2403.314,878.018,2399.854,878.018z"/>
			<path fill="#FFFFFF" d="M2806.412,517.047c2.261,0,4.096-1.898,4.096-4.238c0-2.344-1.835-4.235-4.096-4.235
				c-2.262,0-4.093,1.891-4.093,4.235C2802.319,515.148,2804.149,517.047,2806.412,517.047z"/>
			<path opacity="0.5" fill="#FFFFFF" d="M2574.677,817.565c-2.258,0-4.096,1.898-4.096,4.238c0,2.341,1.838,4.235,4.096,4.235
				c2.262,0,4.096-1.894,4.096-4.235C2578.773,819.464,2576.939,817.565,2574.677,817.565z"/>
			<path fill="#FFFFFF" d="M2370.376,825.482c-3.466,0-6.273,2.905-6.273,6.488c0,3.583,2.807,6.488,6.273,6.488
				c3.464,0,6.267-2.904,6.267-6.488C2376.643,828.387,2373.839,825.482,2370.376,825.482z"/>
			<path opacity="0.1" fill="#FFFFFF" d="M2521.044,678.042c-3.463,0-6.27,2.904-6.27,6.488c0,3.587,2.807,6.489,6.27,6.489
				c3.459,0,6.266-2.902,6.266-6.489C2527.311,680.946,2524.504,678.042,2521.044,678.042z"/>
			<path opacity="0.25" fill="#FFFFFF" d="M2836.708,206.33c3.463,0,6.266-2.905,6.266-6.489c0-3.58-2.803-6.488-6.266-6.488
				c-3.463,0-6.273,2.908-6.273,6.488C2830.435,203.426,2833.245,206.33,2836.708,206.33z"/>
			<path fill="#FFFFFF" d="M1767.127,540.161c-2.265,0-4.093,1.899-4.093,4.239c0,2.341,1.828,4.235,4.093,4.235
				c2.262,0,4.096-1.894,4.096-4.235C1771.223,542.059,1769.389,540.161,1767.127,540.161z"/>
			<path opacity="0.5" fill="#FFFFFF" d="M1736.42,499.776c-2.262,0-4.092,1.901-4.092,4.238c0,2.344,1.83,4.239,4.092,4.239
				c2.261,0,4.096-1.895,4.096-4.239C1740.516,501.677,1738.681,499.776,1736.42,499.776z"/>
			<path opacity="0.1" fill="#FFFFFF" d="M2006.393,721.523c3.467,0,6.274-2.905,6.274-6.484c0-3.587-2.807-6.491-6.274-6.491
				c-3.459,0-6.266,2.904-6.266,6.491C2000.126,718.618,2002.933,721.523,2006.393,721.523z"/>
			<path opacity="0.25" fill="#FFFFFF" d="M2769.562,845.26c-3.463,0-6.266,2.908-6.266,6.492c0,3.583,2.803,6.484,6.266,6.484
				c3.467,0,6.274-2.901,6.274-6.484C2775.835,848.168,2773.029,845.26,2769.562,845.26z"/>
			<path fill="#FFFFFF" d="M2215.204,283.733c-2.265,0-4.095,1.895-4.095,4.235c0,2.341,1.831,4.238,4.095,4.238
				c2.259,0,4.096-1.898,4.096-4.238C2219.3,285.628,2217.463,283.733,2215.204,283.733z"/>
			<path opacity="0.5" fill="#FFFFFF" d="M2591.054,393.887c-2.259,0-4.096,1.895-4.096,4.239c0,2.341,1.837,4.232,4.096,4.232
				c2.265,0,4.096-1.891,4.096-4.232C2595.15,395.782,2593.319,393.887,2591.054,393.887z"/>
			<path fill="#FFFFFF" d="M2386.753,401.804c-3.463,0-6.273,2.905-6.273,6.488s2.81,6.488,6.273,6.488s6.266-2.905,6.266-6.488
				S2390.216,401.804,2386.753,401.804z"/>
			<path opacity="0.1" fill="#FFFFFF" d="M2414.185,252.117c-3.464,0-6.271,2.901-6.271,6.485c0,3.583,2.807,6.488,6.271,6.488
				c3.459,0,6.27-2.905,6.27-6.488C2420.455,255.018,2417.645,252.117,2414.185,252.117z"/>
			<path opacity="0.25" fill="#FFFFFF" d="M2820.331,630.012c3.464,0,6.271-2.908,6.271-6.491c0-3.581-2.807-6.485-6.271-6.485
				c-3.463,0-6.27,2.905-6.27,6.485C2814.061,627.104,2816.868,630.012,2820.331,630.012z"/>
			<path fill="#FFFFFF" d="M2790.034,810.785c-2.261,0-4.096,1.899-4.096,4.239c0,2.337,1.835,4.239,4.096,4.239
				c2.259,0,4.096-1.901,4.096-4.239C2794.13,812.683,2792.293,810.785,2790.034,810.785z"/>
			<path opacity="0.5" fill="#FFFFFF" d="M1726.592,776.017c-2.258,0-4.096,1.898-4.096,4.239c0,2.34,1.838,4.239,4.096,4.239
				c2.262,0,4.096-1.898,4.096-4.239C1730.688,777.915,1728.855,776.017,1726.592,776.017z"/>
			<path fill="#FFFFFF" d="M2043.653,295.595c3.463,0,6.27-2.905,6.27-6.489c0-3.583-2.807-6.488-6.27-6.488
				c-3.463,0-6.27,2.905-6.27,6.488C2037.383,292.691,2040.19,295.595,2043.653,295.595z"/>
			<path opacity="0.1" fill="#FFFFFF" d="M2016.224,445.285c3.46,0,6.267-2.901,6.267-6.488c0-3.583-2.807-6.489-6.267-6.489
				c-3.463,0-6.27,2.905-6.27,6.489C2009.954,442.384,2012.761,445.285,2016.224,445.285z"/>
			<path opacity="0.25" fill="#FFFFFF" d="M2245.501,102.956c3.459,0,6.27-2.908,6.27-6.492c0-3.581-2.81-6.485-6.27-6.485
				c-3.464,0-6.271,2.905-6.271,6.485C2239.231,100.048,2242.038,102.956,2245.501,102.956z"/>
			<path fill="#FFFFFF" d="M178.602,768.108c1.346,0,2.433-1.125,2.433-2.515c0-1.393-1.087-2.518-2.433-2.518
				c-1.344,0-2.43,1.125-2.43,2.518C176.171,766.983,177.258,768.108,178.602,768.108z"/>
			<path fill="#FFFFFF" d="M815.666,339.348c1.34,0,2.427-1.125,2.427-2.518c0-1.389-1.087-2.515-2.427-2.515
				c-1.346,0-2.433,1.126-2.433,2.515C813.234,338.223,814.32,339.348,815.666,339.348z"/>
			<path opacity="0.5" fill="#FFFFFF" d="M244.108,513.954c2.266,0,4.096-1.891,4.096-4.238c0-2.337-1.83-4.235-4.096-4.235
				c-2.261,0-4.093,1.898-4.093,4.235C240.015,512.062,241.846,513.954,244.108,513.954z"/>
			<path opacity="0.25" fill="#FFFFFF" d="M650.258,313.399c3.463,0,6.27-2.908,6.27-6.488c0-3.584-2.807-6.489-6.27-6.489
				c-3.459,0-6.27,2.905-6.27,6.489C643.988,310.491,646.798,313.399,650.258,313.399z"/>
			<path fill="#FFFFFF" d="M851.284,484.01c2.262,0,4.096-1.902,4.096-4.239c0-2.344-1.834-4.238-4.096-4.238
				c-2.261,0-4.093,1.894-4.093,4.238C847.191,482.108,849.023,484.01,851.284,484.01z"/>
			<path fill="#FFFFFF" d="M679.736,365.936c3.463,0,6.266-2.908,6.266-6.489c0-3.583-2.803-6.488-6.266-6.488
				c-3.464,0-6.271,2.905-6.271,6.488C673.466,363.028,676.273,365.936,679.736,365.936z"/>
			<path opacity="0.25" fill="#FFFFFF" d="M881.581,173.293c3.464,0,6.271-2.905,6.271-6.489c0-3.583-2.807-6.488-6.271-6.488
				c-3.463,0-6.27,2.905-6.27,6.488C875.311,170.389,878.118,173.293,881.581,173.293z"/>
			<path fill="#FFFFFF" d="M250.25,656.87c2.266,0,4.093-1.901,4.093-4.238c0-2.34-1.827-4.239-4.093-4.239
				c-2.258,0-4.093,1.899-4.093,4.239C246.157,654.969,247.992,656.87,250.25,656.87z"/>
			<path opacity="0.25" fill="#FFFFFF" d="M280.546,346.154c3.467,0,6.271-2.905,6.271-6.484c0-3.588-2.803-6.492-6.271-6.492
				c-3.459,0-6.27,2.905-6.27,6.492C274.277,343.249,277.087,346.154,280.546,346.154z"/>
			<path fill="#FFFFFF" d="M834.908,907.685c2.261,0,4.095-1.898,4.095-4.239c0-2.337-1.834-4.235-4.095-4.235
				c-2.262,0-4.093,1.898-4.093,4.235C830.815,905.786,832.646,907.685,834.908,907.685z"/>
			<path opacity="0.5" fill="#FFFFFF" d="M342.846,100.522c2.265,0,4.096-1.899,4.096-4.238c0-2.341-1.831-4.235-4.096-4.235
				c-2.259,0-4.093,1.894-4.093,4.235C338.754,98.624,340.587,100.522,342.846,100.522z"/>
			<path fill="#FFFFFF" d="M547.151,92.605c3.463,0,6.27-2.908,6.27-6.491c0-3.58-2.807-6.485-6.27-6.485
				c-3.464,0-6.271,2.905-6.271,6.485C540.881,89.697,543.688,92.605,547.151,92.605z"/>
			<path opacity="0.1" fill="#FFFFFF" d="M519.722,242.293c3.459,0,6.266-2.905,6.266-6.489c0-3.58-2.807-6.484-6.266-6.484
				c-3.466,0-6.274,2.905-6.274,6.484C513.448,239.388,516.256,242.293,519.722,242.293z"/>
			<path opacity="0.25" fill="#FFFFFF" d="M865.204,596.975c3.463,0,6.27-2.908,6.27-6.492c0-3.583-2.807-6.484-6.27-6.484
				c-3.464,0-6.271,2.901-6.271,6.484C858.934,594.067,861.741,596.975,865.204,596.975z"/>
			<path fill="#FFFFFF" d="M260.078,380.629c2.258,0,4.092-1.898,4.092-4.238c0-2.337-1.835-4.235-4.092-4.235
				c-2.262,0-4.096,1.898-4.096,4.235C255.982,378.73,257.815,380.629,260.078,380.629z"/>
			<path opacity="0.25" fill="#FFFFFF" d="M290.374,69.919c3.463,0,6.27-2.908,6.27-6.492c0-3.583-2.807-6.485-6.27-6.485
				c-3.463,0-6.27,2.901-6.27,6.485C284.104,67.011,286.911,69.919,290.374,69.919z"/>
			<path fill="#FFFFFF" d="M1169.045,563.764c-2.188-0.6-3.493-2.919-2.915-5.183c0.579-2.26,2.824-3.608,5.011-3.008
				c2.184,0.595,3.487,2.915,2.908,5.179C1173.471,563.015,1171.232,564.363,1169.045,563.764z"/>
			<path fill="#FFFFFF" d="M1846.177,474.92c1.296,0.355,2.07,1.73,1.727,3.075c-0.347,1.345-1.677,2.146-2.972,1.787
				c-1.296-0.352-2.073-1.731-1.727-3.075C1843.549,475.362,1844.881,474.565,1846.177,474.92z"/>
			<path fill="#FFFFFF" d="M1560.089,819.857c-1.298-0.358-2.073-1.734-1.726-3.075c0.343-1.344,1.672-2.148,2.972-1.79
				c1.296,0.355,2.07,1.731,1.727,3.075C1562.715,819.412,1561.385,820.209,1560.089,819.857z"/>
			<path fill="#FFFFFF" d="M1388.841,495.952c-1.299-0.359-2.074-1.734-1.727-3.075c0.34-1.347,1.672-2.148,2.972-1.794
				c1.296,0.355,2.07,1.735,1.727,3.082C1391.47,495.506,1390.136,496.303,1388.841,495.952z"/>
			<path fill="#FFFFFF" d="M1050.285,236.654c-1.295-0.359-2.073-1.735-1.726-3.079c0.343-1.344,1.676-2.142,2.972-1.79
				c1.298,0.359,2.069,1.734,1.729,3.079C1052.913,236.208,1051.584,237.009,1050.285,236.654z"/>
			<path opacity="0.5" fill="#FFFFFF" d="M1559.618,556.815c-2.181-0.599-3.483-2.914-2.908-5.179
				c0.579-2.263,2.817-3.612,5.005-3.009c2.187,0.6,3.489,2.915,2.91,5.179C1564.047,556.07,1561.806,557.418,1559.618,556.815z"/>
			<path opacity="0.1" fill="#FFFFFF" d="M1353.577,647.025c-3.349-0.916-5.345-4.469-4.456-7.93
				c0.885-3.469,4.314-5.53,7.667-4.611c3.346,0.92,5.341,4.469,4.456,7.93C1360.355,645.875,1356.922,647.94,1353.577,647.025z"/>
			<path opacity="0.25" fill="#FFFFFF" d="M1216.599,255.377c-3.345-0.919-5.341-4.475-4.455-7.937
				c0.888-3.465,4.321-5.527,7.667-4.611c3.348,0.919,5.344,4.468,4.459,7.934C1223.381,254.224,1219.948,256.293,1216.599,255.377z
				"/>
			<path fill="#FFFFFF" d="M980.077,367.06c-2.188-0.599-3.493-2.919-2.915-5.178c0.579-2.264,2.824-3.612,5.011-3.013
				c2.181,0.599,3.483,2.919,2.908,5.179C984.502,366.311,982.264,367.659,980.077,367.06z"/>
			<path opacity="0.5" fill="#FFFFFF" d="M1370.65,360.113c-2.184-0.6-3.487-2.919-2.908-5.18c0.579-2.26,2.817-3.608,5.005-3.008
				c2.187,0.595,3.49,2.915,2.91,5.175C1375.079,359.363,1372.838,360.711,1370.65,360.113z"/>
			<path fill="#FFFFFF" d="M1175.109,298.354c-3.345-0.916-5.341-4.472-4.455-7.934c0.888-3.465,4.318-5.528,7.67-4.611
				c3.345,0.919,5.337,4.468,4.455,7.934C1181.891,297.204,1178.458,299.269,1175.109,298.354z"/>
			<path opacity="0.1" fill="#FFFFFF" d="M1284.294,480.784c-3.342-0.915-5.341-4.468-4.455-7.934
				c0.888-3.461,4.321-5.527,7.667-4.607c3.348,0.912,5.341,4.465,4.459,7.93C1291.076,479.638,1287.643,481.704,1284.294,480.784z"
				/>
			<path opacity="0.25" fill="#FFFFFF" d="M1027.631,58.67c-3.345-0.915-5.341-4.468-4.455-7.933
				c0.888-3.462,4.318-5.528,7.667-4.611c3.345,0.915,5.341,4.472,4.459,7.934C1034.413,57.521,1030.977,59.586,1027.631,58.67z"/>
			<path fill="#FFFFFF" d="M1237.365,765.611c-2.187-0.599-3.493-2.919-2.91-5.179c0.579-2.261,2.819-3.612,5.004-3.013
				c2.187,0.599,3.49,2.919,2.911,5.179C1241.787,764.862,1239.549,766.21,1237.365,765.611z"/>
			<path opacity="0.5" fill="#FFFFFF" d="M1703.347,295.181c2.188,0.599,3.49,2.919,2.911,5.182
				c-0.579,2.257-2.82,3.604-5.004,3.009c-2.184-0.6-3.49-2.915-2.911-5.18C1698.921,295.93,1701.163,294.582,1703.347,295.181z"/>
			<path opacity="0.1" fill="#FFFFFF" d="M1863.072,302.923c3.348,0.919,5.344,4.468,4.459,7.937
				c-0.888,3.458-4.318,5.523-7.667,4.611c-3.348-0.919-5.344-4.472-4.455-7.937C1856.293,304.072,1859.73,302.007,1863.072,302.923
				z"/>
			<path opacity="0.25" fill="#FFFFFF" d="M1565.895,384.951c-3.345-0.913-5.341-4.468-4.455-7.93
				c0.888-3.466,4.318-5.53,7.667-4.611c3.348,0.92,5.344,4.469,4.455,7.93C1572.677,383.805,1569.247,385.87,1565.895,384.951z"/>
			<path fill="#FFFFFF" d="M891.122,780.966c-2.184-0.599-3.49-2.919-2.91-5.182c0.579-2.264,2.819-3.612,5.004-3.013
				c2.187,0.599,3.49,2.919,2.911,5.182C895.547,780.214,893.307,781.562,891.122,780.966z"/>
			<path opacity="0.5" fill="#FFFFFF" d="M1121.631,575.803c-2.184-0.599-3.487-2.919-2.911-5.179
				c0.582-2.264,2.82-3.612,5.008-3.013c2.187,0.599,3.487,2.919,2.908,5.179C1126.057,575.054,1123.819,576.402,1121.631,575.803z"
				/>
			<path fill="#FFFFFF" d="M1086.158,712.259c-3.346-0.919-5.341-4.472-4.456-7.933c0.885-3.466,4.318-5.531,7.667-4.611
				c3.346,0.916,5.342,4.465,4.456,7.934C1092.939,711.11,1089.504,713.175,1086.158,712.259z"/>
			<path opacity="0.1" fill="#FFFFFF" d="M1075.654,864.227c-3.345-0.919-5.341-4.468-4.459-7.934
				c0.888-3.462,4.321-5.527,7.67-4.611c3.348,0.916,5.341,4.469,4.455,7.934C1082.433,863.081,1079.003,865.147,1075.654,864.227z"
				/>
			<path opacity="0.25" fill="#FFFFFF" d="M938.677,472.572c-3.346-0.912-5.338-4.465-4.453-7.929
				c0.885-3.466,4.318-5.528,7.663-4.611c3.349,0.915,5.342,4.468,4.456,7.93C945.458,471.426,942.026,473.492,938.677,472.572z"/>
			<path fill="#FFFFFF" d="M1577.156,423.703c-2.184-0.599-3.487-2.915-2.908-5.179c0.58-2.264,2.82-3.615,5.009-3.016
				c2.184,0.599,3.49,2.922,2.907,5.186C1581.585,422.951,1579.343,424.298,1577.156,423.703z"/>
			<path opacity="0.5" fill="#FFFFFF" d="M1967.737,416.755c-2.188-0.599-3.49-2.915-2.911-5.179
				c0.579-2.261,2.824-3.608,5.008-3.013c2.184,0.599,3.487,2.919,2.908,5.182C1972.165,416.006,1969.924,417.354,1967.737,416.755z
				"/>
			<path fill="#FFFFFF" d="M1565.97,257.292c-3.346-0.919-5.342-4.472-4.456-7.933c0.888-3.466,4.318-5.531,7.667-4.611
				c3.346,0.915,5.341,4.465,4.459,7.93C1572.751,256.143,1569.314,258.208,1565.97,257.292z"/>
			<path opacity="0.1" fill="#FFFFFF" d="M1804.252,572.561c3.349,0.919,5.345,4.475,4.456,7.937
				c-0.885,3.462-4.318,5.527-7.663,4.611c-3.349-0.92-5.344-4.469-4.46-7.935C1797.474,573.714,1800.907,571.648,1804.252,572.561z
				"/>
			<path opacity="0.25" fill="#FFFFFF" d="M1624.715,115.313c-3.346-0.916-5.342-4.469-4.456-7.934
				c0.889-3.466,4.321-5.528,7.667-4.611c3.349,0.92,5.344,4.472,4.455,7.93C1631.496,114.164,1628.066,116.229,1624.715,115.313z"
				/>
		</g>
		<g>
			<path fill="#FFFFFF" d="M842.48,387.378c-1.34,0-2.427-1.125-2.427-2.514s1.087-2.515,2.427-2.515
				c1.346,0,2.433,1.126,2.433,2.515S843.826,387.378,842.48,387.378z"/>
			<path fill="#FFFFFF" d="M741.356,637.75c-1.343,0-2.433-1.125-2.433-2.518c0-1.39,1.09-2.515,2.433-2.515
				c1.346,0,2.434,1.125,2.434,2.515C743.789,636.625,742.702,637.75,741.356,637.75z"/>
			<path fill="#FFFFFF" d="M104.29,208.984c-1.339,0-2.43-1.126-2.43-2.515c0-1.389,1.09-2.518,2.43-2.518
				c1.343,0,2.434,1.128,2.434,2.518C106.724,207.858,105.633,208.984,104.29,208.984z"/>
			<path opacity="0.5" fill="#FFFFFF" d="M118.486,388.367c2.258,0,4.093,1.898,4.093,4.239c0,2.34-1.835,4.235-4.093,4.235
				c-2.265,0-4.097-1.895-4.097-4.235C114.39,390.265,116.221,388.367,118.486,388.367z"/>
			<path opacity="0.25" fill="#FFFFFF" d="M475.229,714.617c3.464,0,6.271,2.908,6.271,6.488c0,3.583-2.807,6.488-6.271,6.488
				c-3.463,0-6.27-2.904-6.27-6.488C468.96,717.525,471.766,714.617,475.229,714.617z"/>
			<path fill="#FFFFFF" d="M68.669,353.645c-2.258,0-4.096-1.894-4.096-4.238c0-2.34,1.838-4.235,4.096-4.235
				c2.265,0,4.096,1.895,4.096,4.235C72.765,351.751,70.934,353.645,68.669,353.645z"/>
			<path opacity="0.5" fill="#FFFFFF" d="M300.406,654.168c2.259,0,4.092,1.894,4.092,4.235c0,2.34-1.834,4.235-4.092,4.235
				c-2.265,0-4.096-1.895-4.096-4.235C296.31,656.062,298.142,654.168,300.406,654.168z"/>
			<path fill="#FFFFFF" d="M504.708,662.08c3.463,0,6.27,2.908,6.27,6.488c0,3.584-2.807,6.489-6.27,6.489
				c-3.463,0-6.266-2.904-6.266-6.489C498.442,664.989,501.245,662.08,504.708,662.08z"/>
			<path opacity="0.25" fill="#FFFFFF" d="M38.373,42.932c-3.46,0-6.267-2.908-6.267-6.488c0-3.581,2.807-6.489,6.267-6.489
				c3.463,0,6.27,2.908,6.27,6.489C44.643,40.024,41.836,42.932,38.373,42.932z"/>
			<path fill="#FFFFFF" d="M1107.957,376.763c2.261,0,4.093,1.894,4.093,4.239c0,2.337-1.831,4.235-4.093,4.235
				c-2.261,0-4.096-1.898-4.096-4.235C1103.861,378.658,1105.695,376.763,1107.957,376.763z"/>
			<path opacity="0.5" fill="#FFFFFF" d="M1138.661,336.378c2.261,0,4.095,1.898,4.095,4.239c0,2.341-1.834,4.239-4.095,4.239
				c-2.259,0-4.096-1.898-4.096-4.239C1134.565,338.275,1136.402,336.378,1138.661,336.378z"/>
			<path opacity="0.1" fill="#FFFFFF" d="M868.684,558.122c-3.46,0-6.271-2.905-6.271-6.485c0-3.583,2.811-6.488,6.271-6.488
				c3.466,0,6.27,2.904,6.27,6.488C874.954,555.217,872.15,558.122,868.684,558.122z"/>
			<path opacity="0.25" fill="#FFFFFF" d="M105.522,681.862c3.459,0,6.266,2.908,6.266,6.489c0,3.583-2.807,6.484-6.266,6.484
				c-3.466,0-6.273-2.901-6.273-6.484C99.249,684.77,102.056,681.862,105.522,681.862z"/>
			<path fill="#FFFFFF" d="M659.88,120.332c2.261,0,4.096,1.898,4.096,4.235c0,2.343-1.835,4.238-4.096,4.238
				c-2.262,0-4.096-1.895-4.096-4.238C655.784,122.229,657.617,120.332,659.88,120.332z"/>
			<path opacity="0.5" fill="#FFFFFF" d="M284.027,230.49c2.261,0,4.096,1.891,4.096,4.239c0,2.337-1.835,4.232-4.096,4.232
				c-2.262,0-4.092-1.895-4.092-4.232C279.934,232.38,281.765,230.49,284.027,230.49z"/>
			<path fill="#FFFFFF" d="M488.328,238.406c3.467,0,6.274,2.904,6.274,6.484c0,3.588-2.807,6.492-6.274,6.492
				c-3.46,0-6.266-2.905-6.266-6.492C482.061,241.31,484.868,238.406,488.328,238.406z"/>
			<path opacity="0.1" fill="#FFFFFF" d="M460.899,88.716c3.463,0,6.27,2.901,6.27,6.484c0,3.587-2.807,6.491-6.27,6.491
				c-3.464,0-6.271-2.905-6.271-6.491C454.629,91.617,457.436,88.716,460.899,88.716z"/>
			<path opacity="0.25" fill="#FFFFFF" d="M54.753,466.61c-3.466,0-6.27-2.908-6.27-6.488c0-3.584,2.803-6.489,6.27-6.489
				c3.46,0,6.27,2.904,6.27,6.489C61.023,463.702,58.213,466.61,54.753,466.61z"/>
			<path fill="#FFFFFF" d="M85.049,647.384c2.262,0,4.093,1.901,4.093,4.238c0,2.34-1.83,4.239-4.093,4.239
				c-2.262,0-4.096-1.899-4.096-4.239C80.953,649.285,82.788,647.384,85.049,647.384z"/>
			<path opacity="0.5" fill="#FFFFFF" d="M1148.491,612.615c2.259,0,4.092,1.902,4.092,4.239c0,2.341-1.834,4.238-4.092,4.238
				c-2.265,0-4.096-1.898-4.096-4.238C1144.395,614.517,1146.227,612.615,1148.491,612.615z"/>
			<path fill="#FFFFFF" d="M831.427,132.193c-3.46,0-6.27-2.904-6.27-6.484c0-3.588,2.81-6.492,6.27-6.492
				c3.464,0,6.267,2.905,6.267,6.492C837.694,129.289,834.891,132.193,831.427,132.193z"/>
			<path opacity="0.1" fill="#FFFFFF" d="M858.86,281.883c-3.463,0-6.266-2.901-6.266-6.484c0-3.587,2.803-6.491,6.266-6.491
				c3.46,0,6.271,2.905,6.271,6.491C865.13,278.982,862.32,281.883,858.86,281.883z"/>
			<path fill="#FFFFFF" d="M2696.479,604.71c-1.343,0-2.43-1.125-2.43-2.518c0-1.39,1.088-2.515,2.43-2.515
				c1.343,0,2.43,1.125,2.43,2.515C2698.909,603.585,2697.822,604.71,2696.479,604.71z"/>
			<path fill="#FFFFFF" d="M2059.417,175.947c-1.343,0-2.43-1.126-2.43-2.515c0-1.393,1.088-2.518,2.43-2.518
				c1.346,0,2.433,1.125,2.433,2.518C2061.85,174.822,2060.763,175.947,2059.417,175.947z"/>
			<path opacity="0.5" fill="#FFFFFF" d="M2630.973,350.556c-2.261,0-4.093-1.894-4.093-4.238c0-2.34,1.831-4.235,4.093-4.235
				c2.265,0,4.093,1.895,4.093,4.235C2635.065,348.661,2633.237,350.556,2630.973,350.556z"/>
			<path opacity="0.25" fill="#FFFFFF" d="M2224.826,149.997c-3.466,0-6.273-2.904-6.273-6.488c0-3.581,2.807-6.485,6.273-6.485
				c3.46,0,6.267,2.905,6.267,6.485C2231.093,147.093,2228.287,149.997,2224.826,149.997z"/>
			<path fill="#FFFFFF" d="M2023.796,320.608c-2.258,0-4.092-1.898-4.092-4.239c0-2.34,1.835-4.238,4.092-4.238
				c2.262,0,4.096,1.898,4.096,4.238C2027.892,318.71,2026.058,320.608,2023.796,320.608z"/>
			<path fill="#FFFFFF" d="M2195.345,202.534c-3.46,0-6.267-2.908-6.267-6.488c0-3.584,2.807-6.485,6.267-6.485
				c3.466,0,6.27,2.901,6.27,6.485C2201.615,199.626,2198.811,202.534,2195.345,202.534z"/>
			<path fill="#FFFFFF" d="M2624.83,493.468c-2.261,0-4.093-1.898-4.093-4.238c0-2.337,1.831-4.238,4.093-4.238
				c2.262,0,4.096,1.901,4.096,4.238C2628.927,491.571,2627.093,493.468,2624.83,493.468z"/>
			<path opacity="0.25" fill="#FFFFFF" d="M2594.534,182.753c-3.463,0-6.27-2.905-6.27-6.485c0-3.583,2.807-6.488,6.27-6.488
				c3.463,0,6.27,2.905,6.27,6.488C2600.804,179.847,2597.997,182.753,2594.534,182.753z"/>
			<ellipse fill="#FFFFFF" cx="2040.173" cy="740.048" rx="4.096" ry="4.239"/>
			<path opacity="0.1" fill="#FFFFFF" d="M2355.363,78.894c-3.46,0-6.271-2.904-6.271-6.492c0-3.581,2.81-6.485,6.271-6.485
				c3.463,0,6.27,2.905,6.27,6.485C2361.632,75.99,2358.825,78.894,2355.363,78.894z"/>
			<path opacity="0.25" fill="#FFFFFF" d="M2009.877,433.573c-3.46,0-6.271-2.908-6.271-6.488c0-3.588,2.81-6.489,6.271-6.489
				c3.463,0,6.27,2.901,6.27,6.489C2016.146,430.665,2013.34,433.573,2009.877,433.573z"/>
			<path fill="#FFFFFF" d="M2615.007,217.231c-2.262,0-4.097-1.901-4.097-4.239c0-2.34,1.835-4.238,4.097-4.238
				c2.261,0,4.092,1.898,4.092,4.238C2619.099,215.33,2617.268,217.231,2615.007,217.231z"/>
			<path fill="#FFFFFF" d="M1706.04,400.362c2.184-0.599,3.487-2.919,2.907-5.182c-0.575-2.257-2.816-3.605-5.004-3.009
				c-2.184,0.599-3.487,2.915-2.908,5.179C1701.614,399.613,1703.851,400.961,1706.04,400.362z"/>
			<path fill="#FFFFFF" d="M1028.907,311.522c-1.298,0.355-2.069,1.731-1.726,3.072c0.343,1.348,1.669,2.146,2.972,1.787
				c1.296-0.352,2.069-1.727,1.726-3.072C1031.536,311.964,1030.203,311.166,1028.907,311.522z"/>
			<path fill="#FFFFFF" d="M1314.995,656.456c1.295-0.359,2.069-1.735,1.727-3.075c-0.343-1.345-1.673-2.146-2.973-1.787
				c-1.296,0.355-2.069,1.731-1.726,3.075C1312.366,656.01,1313.695,656.811,1314.995,656.456z"/>
			<path fill="#FFFFFF" d="M1486.243,332.55c1.296-0.354,2.073-1.73,1.727-3.075c-0.343-1.344-1.677-2.145-2.972-1.789
				c-1.295,0.355-2.073,1.734-1.726,3.079C1483.615,332.105,1484.944,332.902,1486.243,332.55z"/>
			<path fill="#FFFFFF" d="M1824.799,73.252c1.296-0.355,2.07-1.734,1.727-3.075c-0.343-1.345-1.677-2.142-2.972-1.79
				c-1.299,0.355-2.073,1.731-1.73,3.075C1822.171,72.806,1823.5,73.608,1824.799,73.252z"/>
			<path opacity="0.5" fill="#FFFFFF" d="M1315.462,393.418c2.185-0.599,3.487-2.919,2.908-5.182
				c-0.579-2.264-2.817-3.612-5.004-3.009c-2.184,0.599-3.487,2.919-2.911,5.179C1311.033,392.668,1313.275,394.02,1315.462,393.418
				z"/>
			<path opacity="0.1" fill="#FFFFFF" d="M1521.507,483.626c3.345-0.92,5.341-4.472,4.455-7.934
				c-0.885-3.466-4.318-5.527-7.667-4.611c-3.348,0.92-5.344,4.469-4.455,7.934C1514.729,482.477,1518.158,484.543,1521.507,483.626
				z"/>
			<path opacity="0.25" fill="#FFFFFF" d="M1658.484,91.976c3.342-0.92,5.337-4.472,4.453-7.934
				c-0.885-3.466-4.318-5.531-7.663-4.611c-3.349,0.915-5.344,4.468-4.46,7.93C1651.7,90.826,1655.135,92.895,1658.484,91.976z"/>
			<path fill="#FFFFFF" d="M1895.008,203.662c2.187-0.599,3.49-2.922,2.911-5.182c-0.579-2.264-2.82-3.612-5.008-3.013
				c-2.184,0.599-3.487,2.919-2.908,5.178C1890.582,202.91,1892.82,204.261,1895.008,203.662z"/>
			<path opacity="0.5" fill="#FFFFFF" d="M1504.43,196.714c2.185-0.599,3.487-2.922,2.908-5.179
				c-0.575-2.264-2.817-3.612-5.001-3.013c-2.188,0.599-3.49,2.919-2.911,5.179C1500.005,195.965,1502.246,197.313,1504.43,196.714z
				"/>
			<path fill="#FFFFFF" d="M1699.971,134.956c3.346-0.92,5.341-4.475,4.456-7.934c-0.885-3.466-4.319-5.53-7.667-4.612
				c-3.349,0.916-5.342,4.465-4.456,7.93C1693.193,133.806,1696.622,135.867,1699.971,134.956z"/>
			<path opacity="0.1" fill="#FFFFFF" d="M1590.786,317.383c3.346-0.913,5.341-4.465,4.456-7.93
				c-0.885-3.466-4.318-5.531-7.667-4.611c-3.349,0.915-5.342,4.465-4.456,7.934
				C1584.005,316.238,1587.441,318.302,1590.786,317.383z"/>
			<path fill="#FFFFFF" d="M1637.719,602.21c2.187-0.596,3.49-2.916,2.911-5.18c-0.579-2.26-2.82-3.608-5.008-3.009
				c-2.188,0.599-3.49,2.915-2.911,5.179C1633.293,601.461,1635.532,602.809,1637.719,602.21z"/>
			<path opacity="0.5" fill="#FFFFFF" d="M1171.734,131.779c-2.187,0.599-3.49,2.919-2.911,5.182c0.579,2.26,2.82,3.608,5.004,3.013
				c2.188-0.599,3.491-2.919,2.911-5.182C1176.159,132.528,1173.917,131.18,1171.734,131.779z"/>
			<path opacity="0.1" fill="#FFFFFF" d="M1012.009,139.525c-3.346,0.916-5.341,4.465-4.456,7.934
				c0.885,3.462,4.318,5.527,7.667,4.611c3.346-0.92,5.338-4.469,4.453-7.934C1018.79,140.671,1015.354,138.605,1012.009,139.525z"
				/>
			<path opacity="0.25" fill="#FFFFFF" d="M1309.185,221.553c3.349-0.916,5.344-4.471,4.456-7.934
				c-0.885-3.462-4.315-5.527-7.667-4.611c-3.346,0.92-5.342,4.469-4.456,7.934C1302.404,220.403,1305.837,222.469,1309.185,221.553
				z"/>
			<path fill="#FFFFFF" d="M1983.959,617.564c2.187-0.599,3.493-2.915,2.915-5.179c-0.579-2.263-2.824-3.615-5.008-3.013
				c-2.188,0.595-3.49,2.919-2.911,5.182C1979.533,616.816,1981.775,618.163,1983.959,617.564z"/>
			<path opacity="0.5" fill="#FFFFFF" d="M1753.45,412.405c2.187-0.599,3.49-2.922,2.911-5.182c-0.582-2.264-2.82-3.612-5.009-3.013
				c-2.184,0.6-3.486,2.919-2.907,5.179C1749.021,411.653,1751.262,413.004,1753.45,412.405z"/>
			<path fill="#FFFFFF" d="M1788.926,548.858c3.346-0.916,5.342-4.469,4.456-7.934c-0.889-3.465-4.318-5.53-7.667-4.611
				c-3.345,0.92-5.344,4.465-4.46,7.934C1782.144,547.708,1785.58,549.773,1788.926,548.858z"/>
			<path opacity="0.1" fill="#FFFFFF" d="M1799.426,700.825c3.349-0.916,5.344-4.465,4.456-7.934
				c-0.885-3.461-4.315-5.527-7.667-4.61c-3.346,0.919-5.338,4.472-4.456,7.934C1792.648,699.68,1796.081,701.745,1799.426,700.825z
				"/>
			<path opacity="0.25" fill="#FFFFFF" d="M1936.403,309.174c3.345-0.916,5.342-4.469,4.456-7.934
				c-0.888-3.466-4.318-5.528-7.667-4.608c-3.346,0.916-5.341,4.468-4.455,7.93C1929.625,308.025,1933.058,310.09,1936.403,309.174z
				"/>
			<path fill="#FFFFFF" d="M1297.924,260.301c2.188-0.599,3.49-2.914,2.911-5.179c-0.582-2.264-2.824-3.612-5.011-3.013
				c-2.185,0.599-3.487,2.919-2.908,5.182C1293.495,259.553,1295.737,260.901,1297.924,260.301z"/>
			<path opacity="0.5" fill="#FFFFFF" d="M907.344,253.357c2.187-0.599,3.493-2.919,2.915-5.182c-0.58-2.26-2.824-3.608-5.009-3.009
				c-2.187,0.595-3.49,2.915-2.911,5.178C902.918,252.605,905.16,253.956,907.344,253.357z"/>
			<path fill="#FFFFFF" d="M1309.112,93.891c3.346-0.916,5.341-4.472,4.46-7.934c-0.889-3.466-4.322-5.527-7.667-4.611
				c-3.352,0.92-5.345,4.468-4.46,7.934C1302.333,92.742,1305.766,94.806,1309.112,93.891z"/>
			<path opacity="0.1" fill="#FFFFFF" d="M1070.832,409.163c-3.349,0.916-5.344,4.472-4.456,7.934
				c0.882,3.466,4.315,5.53,7.663,4.611c3.349-0.92,5.342-4.469,4.456-7.93C1077.609,410.312,1074.177,408.25,1070.832,409.163z"/>
		</g>
	</g>
</g>
<g id="Layer_1">
	<linearGradient id="SVGID_5_" gradientUnits="userSpaceOnUse" x1="2340.1292" y1="1146.5021" x2="2295.7576" y2="660.2626">
		<stop  offset="2.818943e-04" style="stop-color:#156187"/>
		<stop  offset="0.1729" style="stop-color:#196495"/>
		<stop  offset="0.5011" style="stop-color:#246BBB"/>
		<stop  offset="0.9476" style="stop-color:#3676F7"/>
		<stop  offset="1" style="stop-color:#3877FF"/>
	</linearGradient>
	<path fill="url(#SVGID_5_)" d="M1912.803,987.426l16.499-60.437l11.65,45.424c5.805-3.064,11.544-6.047,17.295-9.046l19.517-71.49
		l13.915,54.257c26.172-13.318,51.748-25.939,76.76-37.928l24.241-88.796l17.7,69.011c109.651-50.731,207.479-88.73,293.241-117.16
		l15.753-57.701l12.456,48.564c21.656-6.866,42.479-13.101,62.488-18.771l28.747-105.299l18.399,71.738l26.576-97.344l27.01,105.317
		c29.323-6.53,56.105-11.642,80.434-15.669l17.484-64.041l15.146,59.053c2.587-0.359,5.088-0.687,7.605-1.019l24.723-90.559
		l21.903,85.402c5.939-0.517,11.553-0.944,16.894-1.305l36.595-134.046L2850,688.793v458.418c0,0-292.562-85.635-1069.26-85.635
		C1826.168,1035.013,1870.172,1010.367,1912.803,987.426z"/>
	<linearGradient id="SVGID_6_" gradientUnits="userSpaceOnUse" x1="1112.3771" y1="1081.6924" x2="2850" y2="1081.6924">
		<stop  offset="2.818943e-04" style="stop-color:#156187"/>
		<stop  offset="0.1729" style="stop-color:#196495"/>
		<stop  offset="0.5011" style="stop-color:#246BBB"/>
		<stop  offset="0.9476" style="stop-color:#3676F7"/>
		<stop  offset="1" style="stop-color:#3877FF"/>
	</linearGradient>
	<path fill="url(#SVGID_6_)" d="M2850,1141.319c-140.159-99.866-400.943-230.712-805.284-230.712
		c-672.307,0-932.339,342.171-932.339,342.171H2850V1141.319z"/>
	<defs>
		
			<filter id="Adobe_OpacityMaskFilter_2_" filterUnits="userSpaceOnUse" x="1112.709" y="910.866" width="1168.775" height="341.652">
			<feFlood  style="flood-color:white;flood-opacity:1" result="back"/>
			<feBlend  in="SourceGraphic" in2="back" mode="normal"/>
		</filter>
	</defs>
	<mask maskUnits="userSpaceOnUse" x="1112.709" y="910.866" width="1168.775" height="341.652" id="SVGID_7_">
		<g filter="url(#Adobe_OpacityMaskFilter_2_)">
			<defs>
				
					<filter id="Adobe_OpacityMaskFilter_3_" filterUnits="userSpaceOnUse" x="1112.709" y="910.866" width="1168.775" height="341.652">
					<feFlood  style="flood-color:white;flood-opacity:1" result="back"/>
					<feBlend  in="SourceGraphic" in2="back" mode="normal"/>
				</filter>
			</defs>
			<mask maskUnits="userSpaceOnUse" x="1112.709" y="910.866" width="1168.775" height="341.652" id="SVGID_7_">
				<g filter="url(#Adobe_OpacityMaskFilter_3_)">
				</g>
			</mask>
			<linearGradient id="SVGID_8_" gradientUnits="userSpaceOnUse" x1="1719.4913" y1="1128.4031" x2="1547.936" y2="831.2604">
				<stop  offset="0" style="stop-color:#000000"/>
				<stop  offset="1" style="stop-color:#FFFFFF"/>
			</linearGradient>
			<path mask="url(#SVGID_7_)" fill="url(#SVGID_8_)" d="M2210.809,925.302c24.087,0,47.603,0.517,70.676,1.409
				c-72.521-10.037-151.114-15.845-236.104-15.845c-672.546,0-932.672,341.652-932.672,341.652h177.7
				C1348.909,1187.556,1621.556,925.302,2210.809,925.302z"/>
		</g>
	</mask>
	<path fill="#87AFFF" d="M2210.809,925.302c24.087,0,47.603,0.517,70.676,1.409c-72.521-10.037-151.114-15.845-236.104-15.845
		c-672.546,0-932.672,341.652-932.672,341.652h177.7C1348.909,1187.556,1621.556,925.302,2210.809,925.302z"/>
	<g>
		<g>
			<g>
				<linearGradient id="SVGID_9_" gradientUnits="userSpaceOnUse" x1="404.0116" y1="815.8703" x2="695.6905" y2="815.8703">
					<stop  offset="2.818943e-04" style="stop-color:#156187"/>
					<stop  offset="0.1729" style="stop-color:#196495"/>
					<stop  offset="0.5011" style="stop-color:#246BBB"/>
					<stop  offset="0.9476" style="stop-color:#3676F7"/>
					<stop  offset="1" style="stop-color:#3877FF"/>
				</linearGradient>
				<path fill="url(#SVGID_9_)" d="M641.416,1018.967l27.042-0.325l-42.916-95.459h21.186l-36.01-83.536l13.022-0.037
					l-27.647-68.787l12.325,0.064l-23.538-64.233l12.5-0.205l-24.444-71.61l9.839-0.272
					c-20.451-53.266-32.918-139.243-32.918-139.243l-0.006,0.034l-0.006-0.034c0,0-12.467,85.977-32.918,139.243l9.839,0.272
					l-24.444,71.61l12.5,0.205l-23.539,64.233l12.326-0.064L475.96,839.61l13.022,0.037l-36.009,83.536h21.186l-42.916,95.459
					l27.042,0.325l-54.273,117.45h145.839h145.84L641.416,1018.967z"/>
			</g>
		</g>
		<g>
			<g>
				<g>
					<path fill="#4874B8" d="M539.44,1026.326l25.077-0.302l-39.798-88.525h19.647l-33.394-77.468l12.076-0.034l-25.639-63.79
						l11.43,0.06L487.01,736.7l11.592-0.19l-22.669-66.408l9.125-0.253c-18.966-49.397-30.527-129.128-30.527-129.128l-0.005,0.032
						l-0.006-0.032c0,0-11.562,79.731-30.527,129.128l9.125,0.253l-22.669,66.408l11.592,0.19l-21.829,59.567l11.43-0.06
						l-25.639,63.79l12.076,0.034l-33.394,77.468h19.647l-39.798,88.525l25.077,0.302l-50.331,108.918h135.246h135.245
						L539.44,1026.326z"/>
				</g>
			</g>
			<path fill="#115170" d="M488.038,1030.882c0,0-29.874,27.263-29.819,26.48l-0.618-114.175l28.935-39.373
				c0.575-0.851-0.292-1.975-1.14-1.475c0,0-21.337,19.471-27.881,24.999l-0.601-111.062c0.09-1.268-1.594-1.493-1.78-0.239
				l-9.279,185.744c-0.115,0.777-0.96,1.105-1.487,0.577l-18.795-30.482c-0.705-0.707-1.788,0.128-1.435,1.107l18.879,50.766
				c0.059,0.165-6.019,227.025-6.019,227.025c-0.084,0.591,0.319,1.129,0.859,1.148l23.416-0.192
				c0.488,0.016,0.898-0.402,0.924-0.943c0,0-3.58-176.831-3.472-176.99l30.453-41.437
				C489.753,1031.506,488.885,1030.382,488.038,1030.882z"/>
		</g>
		<g>
			<g>
				<linearGradient id="SVGID_10_" gradientUnits="userSpaceOnUse" x1="201.3204" y1="867.5122" x2="445.1482" y2="867.5122">
					<stop  offset="2.818943e-04" style="stop-color:#156187"/>
					<stop  offset="0.1729" style="stop-color:#196495"/>
					<stop  offset="0.5011" style="stop-color:#246BBB"/>
					<stop  offset="0.9476" style="stop-color:#3676F7"/>
					<stop  offset="1" style="stop-color:#3877FF"/>
				</linearGradient>
				<path fill="url(#SVGID_10_)" d="M399.778,1037.29l22.605-0.272l-35.875-79.799h17.71l-30.101-69.831l10.885-0.03l-23.112-57.502
					l10.303,0.053l-19.677-53.694l10.449-0.172l-20.434-59.863l8.225-0.227c-17.096-44.528-27.518-116.399-27.518-116.399
					s-0.005,0.028-0.005,0.029c0-0.001-0.004-0.029-0.004-0.029s-10.422,71.872-27.518,116.399l8.225,0.227l-20.435,59.863
					l10.45,0.172l-19.677,53.694l10.303-0.053l-23.112,57.502l10.886,0.03l-30.102,69.831h17.71l-35.875,79.799l22.605,0.272
					l-45.37,98.182h121.913h121.914L399.778,1037.29z"/>
			</g>
			<path fill="#115170" d="M353.443,1041.396c0,0-26.93,24.576-26.88,23.87l-0.557-102.921l26.083-35.491
				c0.519-0.768-0.263-1.78-1.027-1.33c0,0-19.235,17.552-25.134,22.534l-0.541-100.115c0.08-1.144-1.437-1.346-1.605-0.215
				l-8.364,167.434c-0.104,0.701-0.866,0.996-1.341,0.521l-16.942-27.478c-0.635-0.638-1.611,0.115-1.294,0.997l17.019,45.762
				c0.053,0.149-5.426,204.646-5.426,204.646c-0.075,0.533,0.288,1.019,0.774,1.035l21.108-0.173c0.441,0.016,0.81-0.362,0.833-0.85
				c0,0-3.226-159.4-3.13-159.543l27.451-37.352C354.99,1041.96,354.207,1040.947,353.443,1041.396z"/>
		</g>
		<g>
			<g>
				<path fill="#749CD2" d="M1007.877,944.609l14.544-0.175l-23.082-51.342h11.395l-19.367-44.928l7.003-0.02l-14.869-36.996
					l6.629,0.034l-12.66-34.546l6.723-0.11l-13.147-38.515l5.292-0.146c-10.999-28.648-17.704-74.89-17.704-74.89
					s-0.003,0.018-0.003,0.019c0-0.001-0.003-0.019-0.003-0.019s-6.705,46.241-17.704,74.89l5.292,0.146l-13.148,38.515l6.723,0.11
					l-12.66,34.546l6.629-0.034l-14.87,36.996l7.004,0.02l-19.367,44.928h11.395l-23.082,51.342l14.544,0.175l-29.19,63.168h78.438
					h78.438L1007.877,944.609z"/>
			</g>
			<path fill="#115170" d="M978.066,947.251c0,0-17.326,15.812-17.294,15.358l-0.358-66.218l16.781-22.834
				c0.333-0.494-0.17-1.145-0.661-0.856c0,0-12.376,11.293-16.171,14.498l-0.348-64.413c0.052-0.735-0.925-0.866-1.033-0.138
				l-5.381,107.725c-0.067,0.451-0.557,0.641-0.863,0.335l-10.9-17.679c-0.409-0.41-1.037,0.074-0.833,0.643l10.949,29.442
				c0.035,0.096-3.491,131.666-3.491,131.666c-0.048,0.343,0.186,0.656,0.498,0.666l13.581-0.111
				c0.283,0.009,0.521-0.234,0.536-0.548c0,0-2.076-102.555-2.014-102.648l17.661-24.032
				C979.06,947.613,978.557,946.961,978.066,947.251z"/>
		</g>
		<g>
			<g>
				<path fill="#749CD2" d="M840.707,1063.512l21.736-0.192l-34.496-56.437h17.029l-28.944-49.387l10.467-0.021l-22.223-40.667
					l9.907,0.038l-18.92-37.975l10.048-0.121l-19.649-42.337l7.909-0.16c-16.438-31.492-26.46-82.322-26.46-82.322l-0.005,0.02
					l-0.004-0.02c0,0-10.021,50.83-26.46,82.322l7.908,0.16l-19.648,42.337l10.048,0.121l-18.921,37.975l9.907-0.038l-22.223,40.667
					l10.467,0.021l-28.945,49.387h17.029l-34.495,56.437l21.736,0.192l-43.625,69.437h117.225h117.226L840.707,1063.512z"/>
			</g>
			<path fill="#115170" d="M794.242,1066.12c0,0-22.474,16.411-22.433,15.941l-0.981-145.13c0.068-0.763-1.199-0.898-1.339-0.143
				l-6.981,111.813c-0.086,0.468-0.722,0.665-1.118,0.347l-14.14-18.35c-0.53-0.425-1.345,0.077-1.08,0.666l14.203,30.56
				c0.045,0.1-4.529,198.844-4.529,198.844c-0.063,0.355,0.241,0.679,0.646,0.691l17.616-0.115c0.368,0.01,0.676-0.243,0.695-0.568
				c0,0-2.693-168.628-2.612-168.723l22.91-24.945C795.532,1066.496,794.879,1065.82,794.242,1066.12z"/>
		</g>
		<g>
			<g>
				<g>
					<linearGradient id="SVGID_11_" gradientUnits="userSpaceOnUse" x1="484.2251" y1="933.2228" x2="734.1142" y2="933.2228">
						<stop  offset="2.818943e-04" style="stop-color:#156187"/>
						<stop  offset="0.1729" style="stop-color:#196495"/>
						<stop  offset="0.5011" style="stop-color:#246BBB"/>
						<stop  offset="0.9476" style="stop-color:#3676F7"/>
						<stop  offset="1" style="stop-color:#3877FF"/>
					</linearGradient>
					<path fill="url(#SVGID_11_)" d="M687.617,1061.203l23.167-0.205l-36.767-60.153h18.151l-30.85-52.639l11.156-0.023
						l-23.687-43.346l10.559,0.04l-20.165-40.475l10.708-0.13l-20.942-45.125l8.429-0.171
						c-17.521-33.566-28.202-87.744-28.202-87.744l-0.005,0.022l-0.005-0.022c0,0-10.681,54.178-28.202,87.744l8.43,0.171
						l-20.942,45.125l10.709,0.13l-20.166,40.475l10.559-0.04l-23.687,43.346l11.156,0.023l-30.85,52.639h18.151l-36.767,60.153
						l23.168,0.205l-46.498,74.01H609.17h124.944L687.617,1061.203z"/>
				</g>
			</g>
		</g>
		<g>
			<path fill="#4874B8" d="M940.311,1077.278l18.135-0.16l-28.781-47.088h14.208l-24.15-41.207l8.733-0.018l-18.542-33.931
				l8.266,0.031l-15.786-31.684l8.383-0.101l-16.393-35.324l6.598-0.134c-13.715-26.275-22.076-68.685-22.076-68.685l-0.004,0.016
				l-0.004-0.016c0,0-8.361,42.41-22.077,68.685l6.599,0.134l-16.393,35.324l8.383,0.101l-15.786,31.684l8.266-0.031l-18.542,33.931
				l8.733,0.018l-24.15,41.207h14.208l-28.781,47.088l18.135,0.16l-36.399,57.935h97.807h97.807L940.311,1077.278z"/>
		</g>
		<g>
			<path fill="#4874B8" d="M1089.251,1019.611l13.925-0.123l-22.098-36.153h10.908l-18.541-31.637l6.705-0.014l-14.236-26.051
				l6.347,0.024l-12.12-24.326l6.436-0.078l-12.587-27.121l5.067-0.102c-10.531-20.174-16.949-52.736-16.949-52.736l-0.003,0.013
				l-0.003-0.013c0,0-6.42,32.561-16.949,52.736l5.066,0.102l-12.587,27.121l6.437,0.078l-12.12,24.326l6.346-0.024l-14.235,26.051
				l6.705,0.014l-18.542,31.637h10.909l-22.098,36.153l13.925,0.123l-27.947,44.481h75.094h75.094L1089.251,1019.611z"/>
		</g>
		<g>
			<g>
				<linearGradient id="SVGID_12_" gradientUnits="userSpaceOnUse" x1="577.5541" y1="944.1147" x2="750.0205" y2="944.1147">
					<stop  offset="2.818943e-04" style="stop-color:#156187"/>
					<stop  offset="0.1729" style="stop-color:#196495"/>
					<stop  offset="0.5011" style="stop-color:#246BBB"/>
					<stop  offset="0.9476" style="stop-color:#3676F7"/>
					<stop  offset="1" style="stop-color:#3877FF"/>
				</linearGradient>
				<path fill="url(#SVGID_12_)" d="M717.929,1064.204l15.989-0.193l-25.375-56.443h12.527l-21.292-49.394l7.7-0.022l-16.348-40.672
					l7.288,0.038l-13.919-37.98l7.391-0.121l-14.453-42.343l5.817-0.161c-12.092-31.496-19.464-82.332-19.464-82.332
					s-0.003,0.02-0.003,0.02c0-0.001-0.003-0.02-0.003-0.02s-7.372,50.837-19.465,82.332l5.818,0.161l-14.453,42.343l7.391,0.121
					l-13.918,37.98l7.288-0.038l-16.348,40.672l7.7,0.022l-21.292,49.394h12.527l-25.375,56.443l15.989,0.193l-32.091,69.446h86.233
					h86.233L717.929,1064.204z"/>
			</g>
			<path fill="#115170" d="M685.155,1067.108c0,0-19.048,17.383-19.013,16.884l-0.393-72.799l18.449-25.104
				c0.367-0.543-0.186-1.26-0.726-0.941c0,0-13.605,12.415-17.778,15.939l-0.382-70.814c0.057-0.808-1.017-0.952-1.135-0.152
				l-5.916,118.431c-0.074,0.495-0.613,0.705-0.949,0.368l-11.984-19.435c-0.45-0.451-1.14,0.082-0.915,0.705l12.037,32.369
				c0.038,0.105-3.837,144.752-3.837,144.752c-0.053,0.377,0.203,0.72,0.547,0.732l14.93-0.122c0.312,0.01,0.574-0.257,0.589-0.602
				c0,0-2.282-112.749-2.214-112.849l19.417-26.421C686.249,1067.507,685.695,1066.79,685.155,1067.108z"/>
		</g>
	</g>
	<linearGradient id="SVGID_13_" gradientUnits="userSpaceOnUse" x1="1406.8378" y1="1743.5057" x2="1453.0936" y2="1084.3586">
		<stop  offset="0" style="stop-color:#17966B"/>
		<stop  offset="0.1453" style="stop-color:#1A9B79"/>
		<stop  offset="0.4216" style="stop-color:#23A79F"/>
		<stop  offset="0.797" style="stop-color:#30BADB"/>
		<stop  offset="1" style="stop-color:#38C6FF"/>
	</linearGradient>
	<path fill="url(#SVGID_13_)" d="M1014.265,1041.605c426.443,31.112,919.847,188.625,1428.136,190.551v0.007h1.698
		c6.095,0.018,12.193,0.027,18.293,0H2850V1800H0l0-630.614C0,1169.386,474.442,1002.221,1014.265,1041.605z"/>
	<path fill="#61D2FF" d="M2462.393,1232.163c-6.101,0.026-12.198,0.018-18.293,0h-1.698v-0.007
		c-508.289-1.927-1001.694-159.44-1428.136-190.551C474.442,1002.221,0,1169.386,0,1169.386v28.495
		c0,0,474.442-167.164,1014.265-127.781c426.443,31.112,919.847,188.625,1428.136,190.551v0.007h1.698
		c6.095,0.018,12.193,0.026,18.293,0H2850v-28.495H2462.393z"/>
	<g>
		<path fill="#115170" d="M134.34,1703.746c0.076,0.112-0.7,41.059-1.782,96.254h41.472c-2.881-108.235-5.449-205.375-5.392-205.535
			l41.223-110.848c0.77-2.138-1.594-3.96-3.133-2.417l-41.04,66.559c-1.151,1.153-2.997,0.436-3.248-1.261l-20.261-405.575
			c-0.406-2.741-4.082-2.249-3.888,0.52l-1.31,242.508c-14.288-12.069-60.881-54.584-60.881-54.584
			c-1.849-1.09-3.743,1.364-2.487,3.222l63.181,85.971l-1.347,249.305c0.12,1.708-65.113-57.821-65.113-57.821
			c-1.849-1.09-3.744,1.364-2.489,3.222L134.34,1703.746z"/>
		<g>
			<g>
				<g>
					<linearGradient id="SVGID_14_" gradientUnits="userSpaceOnUse" x1="-140.7786" y1="1253.7781" x2="418.2281" y2="1253.7781">
						<stop  offset="2.818943e-04" style="stop-color:#156187"/>
						<stop  offset="0.1729" style="stop-color:#196495"/>
						<stop  offset="0.5011" style="stop-color:#246BBB"/>
						<stop  offset="0.9476" style="stop-color:#3676F7"/>
						<stop  offset="1" style="stop-color:#3877FF"/>
					</linearGradient>
					<path fill="url(#SVGID_14_)" d="M314.212,1540.071l51.826-0.459l-82.248-134.563h40.602l-69.013-117.754l24.957-0.052
						l-52.987-96.964l23.621,0.089l-45.112-90.544l23.957-0.29L182.966,998.59l18.857-0.384
						c-39.194-75.086-63.088-196.282-63.088-196.282s-0.011,0.048-0.011,0.049c0-0.001-0.012-0.049-0.012-0.049
						s-23.894,121.196-63.088,196.282l18.857,0.384l-46.848,100.944l23.957,0.29l-45.112,90.544l23.621-0.089l-50.077,91.64v5.33
						l22.046,0.046l-22.046,37.617v380.72h418.205L314.212,1540.071z"/>
				</g>
			</g>
		</g>
		<linearGradient id="SVGID_15_" gradientUnits="userSpaceOnUse" x1="-140.7786" y1="1222.9875" x2="154.6995" y2="1222.9875">
			<stop  offset="0.0116" style="stop-color:#0C384F"/>
			<stop  offset="0.1884" style="stop-color:#103C5D"/>
			<stop  offset="0.5246" style="stop-color:#1A4783"/>
			<stop  offset="0.9819" style="stop-color:#2959BF"/>
			<stop  offset="1" style="stop-color:#2A5AC2"/>
		</linearGradient>
		<path fill="url(#SVGID_15_)" d="M114.666,1098.377l40.034-86.262l-6.814-14.682l-5.23-0.384
			c4.194-8.034,8.211-16.599,12.043-25.483c-31.989-74.153-15.964-169.641-15.964-169.641s-0.011,0.048-0.011,0.049
			c0-0.001-0.012-0.049-0.012-0.049s-23.894,121.196-63.088,196.282l18.857,0.384l-46.848,100.944l23.957,0.29l-45.112,90.544
			l23.621-0.089l-50.077,91.64v5.33l22.047,0.046l-22.047,37.617v319.139l65.327-103.979l-51.826-0.459l82.248-134.563H55.169
			l69.013-117.754l-24.956-0.052l35.005-97.271l-23.621,0.089l28.012-91.394L114.666,1098.377z"/>
	</g>
	<g>
		<path fill="#115170" d="M1127.975,1494.035c-0.068,0.19,5.05,191.954,7.755,293.083h-36.428
			c1.632-81.188,4.302-214.892,4.186-215.064l-47.473-64.596c-0.896-1.327,0.457-3.078,1.777-2.3c0,0,46.572,42.5,46.486,41.28
			l0.962-177.987l-45.107-61.377c-0.896-1.327,0.456-3.078,1.776-2.3c0,0,33.264,30.353,43.465,38.969l0.935-173.134
			c-0.139-1.977,2.486-2.328,2.776-0.371l14.465,289.553c0.18,1.211,1.497,1.723,2.319,0.9l29.3-47.519
			c1.099-1.102,2.787,0.199,2.237,1.726L1127.975,1494.035z"/>
		<g>
			<g>
				<path fill="#4874B8" d="M977.663,1498.056l-39.092-0.47l62.04-138.002h-30.626l52.057-120.763l-18.825-0.053l39.968-99.441
					l-17.818,0.092l34.028-92.858l-18.07-0.297l35.338-103.523l-14.224-0.393c29.565-77.004,47.589-201.297,47.589-201.297
					s0.008,0.049,0.008,0.05c0-0.001,0.008-0.05,0.008-0.05s18.024,124.292,47.589,201.297l-14.225,0.393l35.338,103.523
					l-18.07,0.297l34.028,92.858l-17.818-0.092l39.968,99.441l-18.825,0.053l52.057,120.763h-30.626l62.041,138.002l-39.093,0.47
					l78.461,169.792h-210.833H899.203L977.663,1498.056z"/>
			</g>
		</g>
		<g>
			<g>
				<linearGradient id="SVGID_16_" gradientUnits="userSpaceOnUse" x1="899.2028" y1="1204.4497" x2="1116.5474" y2="1204.4497">
					<stop  offset="0.0116" style="stop-color:#0C384F"/>
					<stop  offset="0.1884" style="stop-color:#103C5D"/>
					<stop  offset="0.5246" style="stop-color:#1A4783"/>
					<stop  offset="0.9819" style="stop-color:#2959BF"/>
					<stop  offset="1" style="stop-color:#2A5AC2"/>
				</linearGradient>
				<path fill="url(#SVGID_16_)" d="M991.488,1667.847l58.466-159.9l-38.998,2.746l50.481-142.636l-30.523,2.519l41.949-124.635
					l-18.766,1.495l31.655-102.391l-17.75,1.557l26.277-95.341l-18.033,1.19l26.705-106.079l-14.209,0.778
					c15.162-51.897,23.712-123.631,27.804-166.902c-4.238-23.579-6.504-39.196-6.504-39.196s-0.008,0.049-0.008,0.05
					c0-0.001-0.008-0.05-0.008-0.05s-18.024,124.292-47.589,201.297l14.224,0.393l-35.338,103.523l18.07,0.297l-34.028,92.857
					l17.818-0.092l-39.968,99.441l18.825,0.053l-52.057,120.763h30.626l-62.04,138.002l39.092,0.47l-78.461,169.791H991.488z"/>
			</g>
		</g>
		<path fill="#115170" d="M690.474,1563.377c-0.053,0.149,3.77,143.475,6.04,228.375h-29.267
			c1.341-66.799,3.285-164.417,3.196-164.549l-38.836-52.844c-0.734-1.086,0.373-2.518,1.454-1.882c0,0,38.098,34.769,38.028,33.77
			l0.787-145.608l-36.901-50.212c-0.734-1.085,0.373-2.518,1.453-1.881c0,0,27.213,24.831,35.557,31.88l0.766-141.638
			c-0.114-1.617,2.033-1.905,2.271-0.304l11.834,236.878c0.147,0.991,1.224,1.41,1.896,0.736l23.97-38.874
			c0.9-0.902,2.28,0.163,1.831,1.412L690.474,1563.377z"/>
		<g>
			<path fill="#4874B8" d="M575.991,1577.548l-29.476-0.355l46.778-104.052h-23.093l39.251-91.055l-14.194-0.039l30.136-74.978
				l-13.434,0.069l25.656-70.014l-13.625-0.224l26.644-78.055l-10.725-0.297c22.292-58.06,35.882-151.776,35.882-151.776
				s0.006,0.037,0.006,0.038c0-0.001,0.007-0.038,0.007-0.038s13.589,93.716,35.881,151.776l-10.725,0.297l26.645,78.055
				l-13.625,0.224l25.657,70.014l-13.435-0.069l30.137,74.978l-14.194,0.039l39.251,91.055h-23.093l46.778,104.052l-29.476,0.355
				l59.159,128.021H675.798H516.832L575.991,1577.548z"/>
		</g>
		<g>
			<g>
				<g>
					<linearGradient id="SVGID_17_" gradientUnits="userSpaceOnUse" x1="742.806" y1="1700.5796" x2="834.7643" y2="1700.5796">
						<stop  offset="0.0116" style="stop-color:#0C384F"/>
						<stop  offset="0.1884" style="stop-color:#103C5D"/>
						<stop  offset="0.5246" style="stop-color:#1A4783"/>
						<stop  offset="0.9819" style="stop-color:#2959BF"/>
						<stop  offset="1" style="stop-color:#2A5AC2"/>
					</linearGradient>
					<polygon fill="url(#SVGID_17_)" points="762.571,1703.311 742.806,1705.569 834.764,1705.569 830.153,1695.59 					"/>
				</g>
				<g>
					<linearGradient id="SVGID_18_" gradientUnits="userSpaceOnUse" x1="516.8316" y1="1356.1707" x2="681.5856" y2="1356.1707">
						<stop  offset="0.0116" style="stop-color:#0C384F"/>
						<stop  offset="0.1884" style="stop-color:#103C5D"/>
						<stop  offset="0.5246" style="stop-color:#1A4783"/>
						<stop  offset="0.9819" style="stop-color:#2959BF"/>
						<stop  offset="1" style="stop-color:#2A5AC2"/>
					</linearGradient>
					<path fill="url(#SVGID_18_)" d="M609.848,1705.569l39.03-118.123l-29.326,2.993l34.665-108.689l-22.943,2.621l28.661-94.922
						l-14.107,1.572l21.431-77.914l-13.339,1.593l17.544-72.473l-13.562,1.324l17.612-80.575l-10.69,0.923
						c9.823-38.021,14.585-89.763,16.761-122.747c-3.759-20.444-5.781-34.38-5.781-34.38s-0.007,0.037-0.007,0.038
						c0-0.001-0.006-0.038-0.006-0.038s-13.59,93.716-35.882,151.776l10.725,0.297l-26.644,78.055l13.625,0.224l-25.656,70.014
						l13.434-0.069l-30.136,74.978l14.194,0.039l-39.251,91.055h23.093l-46.778,104.052l29.476,0.355l-59.159,128.021H609.848z"/>
				</g>
			</g>
		</g>
		<linearGradient id="SVGID_19_" gradientUnits="userSpaceOnUse" x1="232.3526" y1="1512.8104" x2="571.2853" y2="1512.8104">
			<stop  offset="2.818943e-04" style="stop-color:#156187"/>
			<stop  offset="0.1729" style="stop-color:#196495"/>
			<stop  offset="0.5011" style="stop-color:#246BBB"/>
			<stop  offset="0.9476" style="stop-color:#3676F7"/>
			<stop  offset="1" style="stop-color:#3877FF"/>
		</linearGradient>
		<path fill="url(#SVGID_19_)" d="M401.819,1786.776H232.353l63.067-100.382l-31.423-0.279l49.867-81.588h-24.618l41.843-71.397
			l-15.132-0.03l32.128-58.791l-14.323,0.055l27.353-54.898l-14.525-0.175l28.405-61.204l-11.434-0.233
			c23.764-45.526,38.251-119.009,38.251-119.009l0.007,0.029l0.007-0.029c0,0,14.487,73.483,38.252,119.009l-11.434,0.233
			l28.405,61.204l-14.525,0.175l27.352,54.898l-14.322-0.055l32.127,58.791l-15.132,0.03l41.843,71.397h-24.618l49.868,81.588
			l-31.423,0.279l63.066,100.382H401.819z"/>
		<g>
			<g>
				<g>
					<linearGradient id="SVGID_20_" gradientUnits="userSpaceOnUse" x1="232.3526" y1="1512.8104" x2="403.4236" y2="1512.8104">
						<stop  offset="0.0116" style="stop-color:#0C384F"/>
						<stop  offset="0.1884" style="stop-color:#103C5D"/>
						<stop  offset="0.5246" style="stop-color:#1A4783"/>
						<stop  offset="0.9819" style="stop-color:#2959BF"/>
						<stop  offset="1" style="stop-color:#2A5AC2"/>
					</linearGradient>
					<path fill="url(#SVGID_20_)" d="M331.874,1786.776l36.694-85.871l-31.079,4.641l36.487-88.385l-24.315,3.852l30.156-77.064
						l-14.95,2.338l22.533-63.094l-14.138,2.295l18.426-58.502l-14.374,2.1l18.478-64.895l-11.329,1.559
						c14.043-41.821,18.097-102.945,18.96-119.348c-1.051-4.785-1.598-7.556-1.598-7.556l-0.007,0.03l-0.007-0.03
						c0,0-14.487,73.483-38.251,119.009l11.434,0.233l-28.405,61.204l14.525,0.175l-27.353,54.898l14.323-0.055l-32.128,58.791
						l15.132,0.03l-41.843,71.397h24.618l-49.867,81.588l31.423,0.279l-63.067,100.382H331.874z"/>
				</g>
			</g>
		</g>
		<path fill="#115170" d="M411.554,1683.955c-0.026,0.058,1.04,60.018,2.32,116.045H393.6c0.529-34.25,0.907-72.448,0.87-72.492
			l-33.119-36.06c-0.625-0.741,0.318-1.718,1.24-1.284c0,0,32.49,23.726,32.431,23.044l1.417-209.806
			c-0.097-1.103,1.733-1.299,1.936-0.207l10.092,161.642c0.125,0.676,1.044,0.961,1.617,0.502l20.441-26.527
			c0.767-0.615,1.944,0.111,1.562,0.963L411.554,1683.955z"/>
		<g>
			<path fill="#115170" d="M861.027,1727.176c0.056,0.083-0.539,31.361-1.353,72.824h29.798c-2.1-78.904-4-150.727-3.959-150.843
				l29.43-79.138c0.55-1.526-1.138-2.827-2.237-1.726l-29.3,47.519c-0.822,0.823-2.139,0.311-2.319-0.9l-14.465-289.553
				c-0.29-1.957-2.915-1.605-2.776,0.371l-0.935,173.134c-10.201-8.616-43.465-38.969-43.465-38.969
				c-1.32-0.778-2.672,0.974-1.776,2.3l45.107,61.377l-0.962,177.987c0.086,1.22-46.486-41.28-46.486-41.28
				c-1.32-0.778-2.673,0.974-1.777,2.3L861.027,1727.176z"/>
			<g>
				<g>
					<g>
						<linearGradient id="SVGID_21_" gradientUnits="userSpaceOnUse" x1="664.6116" y1="1405.9297" x2="1063.7042" y2="1405.9297">
							<stop  offset="2.818943e-04" style="stop-color:#156187"/>
							<stop  offset="0.1729" style="stop-color:#196495"/>
							<stop  offset="0.5011" style="stop-color:#246BBB"/>
							<stop  offset="0.9476" style="stop-color:#3676F7"/>
							<stop  offset="1" style="stop-color:#3877FF"/>
						</linearGradient>
						<path fill="url(#SVGID_21_)" d="M738.872,1610.323l-37-0.328l58.72-96.069h-28.988l49.27-84.068l-17.817-0.037l37.829-69.226
							l-16.864,0.064l32.207-64.642l-17.103-0.207l33.446-72.067l-13.463-0.274c27.982-53.606,45.041-140.132,45.041-140.132
							s0.008,0.034,0.008,0.035c0-0.001,0.008-0.035,0.008-0.035s17.059,86.526,45.041,140.132l-13.463,0.274l33.447,72.067
							l-17.103,0.207l32.207,64.642l-16.864-0.064l37.829,69.226l-17.818,0.037l49.27,84.068h-28.987l58.72,96.069l-37,0.328
							l74.261,118.199H864.158H664.612L738.872,1610.323z"/>
					</g>
				</g>
			</g>
			<linearGradient id="SVGID_22_" gradientUnits="userSpaceOnUse" x1="664.6116" y1="1405.9297" x2="875.5628" y2="1405.9297">
				<stop  offset="0.0116" style="stop-color:#0C384F"/>
				<stop  offset="0.1884" style="stop-color:#103C5D"/>
				<stop  offset="0.5246" style="stop-color:#1A4783"/>
				<stop  offset="0.9819" style="stop-color:#2959BF"/>
				<stop  offset="1" style="stop-color:#2A5AC2"/>
			</linearGradient>
			<path fill="url(#SVGID_22_)" d="M774.773,1609.995l58.72-96.069h-28.988l49.27-84.069l-17.817-0.037l24.991-69.445l-16.864,0.064
				l19.999-65.249l-17.103-0.207l28.582-61.585l-4.865-10.482l-3.734-0.274c2.994-5.736,5.862-11.85,8.598-18.193
				c-22.838-52.94-11.397-121.112-11.397-121.112s-0.008,0.034-0.008,0.035c0-0.001-0.008-0.035-0.008-0.035
				s-17.059,86.526-45.041,140.132l13.463,0.274l-33.446,72.067l17.103,0.207l-32.207,64.642l16.864-0.064l-37.829,69.226
				l17.817,0.037l-49.27,84.069h28.988l-58.72,96.069l37,0.328l-74.261,118.199h72.901l74.261-118.199L774.773,1609.995z"/>
		</g>
		<g>
			<path fill="#115170" d="M1278.191,1644.387L1277.35,1800h25.155c-0.403-15.482-0.636-24.697-0.621-24.74l30.669-82.471
				c0.573-1.59-1.186-2.947-2.331-1.798l-30.534,49.52c-0.856,0.858-2.229,0.325-2.417-0.938l-15.074-301.748
				c-0.302-2.039-3.037-1.673-2.893,0.387l-0.975,180.425c-10.63-8.979-45.295-40.61-45.295-40.61
				c-1.375-0.811-2.785,1.015-1.851,2.397L1278.191,1644.387z"/>
			<path fill="#115170" d="M1234.795,1800h8.42c-8.11-7.344-14.47-13.148-14.47-13.148c-1.376-0.811-2.786,1.015-1.852,2.397
				L1234.795,1800z"/>
			<g>
				<g>
					<g>
						<linearGradient id="SVGID_23_" gradientUnits="userSpaceOnUse" x1="1071.6783" y1="1492.8055" x2="1487.5787" y2="1492.8055">
							<stop  offset="2.818943e-04" style="stop-color:#156187"/>
							<stop  offset="0.1729" style="stop-color:#196495"/>
							<stop  offset="0.5011" style="stop-color:#246BBB"/>
							<stop  offset="0.9476" style="stop-color:#3676F7"/>
							<stop  offset="1" style="stop-color:#3877FF"/>
						</linearGradient>
						<path fill="url(#SVGID_23_)" d="M1149.067,1734.791L1108.098,1800h343.062l-40.969-65.209l38.559-0.342l-61.193-100.115
							h30.208l-51.345-87.609l18.568-0.038l-39.422-72.141l17.574,0.066l-33.563-67.365l17.824-0.215l-34.856-75.102l14.03-0.285
							c-29.161-55.864-46.938-146.033-46.938-146.033s-0.008,0.036-0.008,0.037c0-0.001-0.009-0.037-0.009-0.037
							s-17.777,90.17-46.938,146.033l14.03,0.285l-34.855,75.102l17.824,0.215l-33.563,67.365l17.574-0.066l-39.422,72.141
							l18.567,0.038l-51.345,87.609h30.209l-61.193,100.115L1149.067,1734.791z"/>
					</g>
				</g>
			</g>
			<linearGradient id="SVGID_24_" gradientUnits="userSpaceOnUse" x1="1071.6783" y1="1492.8055" x2="1291.5138" y2="1492.8055">
				<stop  offset="0.0116" style="stop-color:#0C384F"/>
				<stop  offset="0.1884" style="stop-color:#103C5D"/>
				<stop  offset="0.5246" style="stop-color:#1A4783"/>
				<stop  offset="0.9819" style="stop-color:#2959BF"/>
				<stop  offset="1" style="stop-color:#2A5AC2"/>
			</linearGradient>
			<path fill="url(#SVGID_24_)" d="M1149.067,1734.791L1108.098,1800h75.971l40.969-65.209l-38.559-0.342l61.193-100.115h-30.209
				l51.345-87.609l-18.567-0.038l26.044-72.37l-17.574,0.066l20.841-67.997l-17.824-0.215l29.785-64.179l-5.07-10.923l-3.891-0.285
				c3.12-5.977,6.109-12.349,8.96-18.959c-23.8-55.17-11.877-126.213-11.877-126.213s-0.008,0.036-0.008,0.037
				c0-0.001-0.009-0.037-0.009-0.037s-17.777,90.17-46.938,146.033l14.03,0.285l-34.855,75.102l17.824,0.216l-33.563,67.365
				l17.574-0.066l-39.422,72.141l18.567,0.038l-51.345,87.609h30.209l-61.193,100.115L1149.067,1734.791z"/>
		</g>
	</g>
	<g>
		<path fill="#115170" d="M2796.314,1547.296c-0.087,0.243,6.461,123.328,9.921,252.704h-46.602
			c2.088-103.865,5.504-152.674,5.356-152.894l-60.733-82.638c-1.147-1.697,0.584-3.938,2.273-2.943c0,0,59.58,54.37,59.47,52.81
			l1.23-227.701l-57.706-78.521c-1.147-1.697,0.583-3.938,2.272-2.943c0,0,42.555,38.831,55.605,49.854l1.197-221.492
			c-0.178-2.529,3.18-2.978,3.551-0.475l18.505,370.428c0.23,1.55,1.915,2.204,2.967,1.151l37.483-60.791
			c1.406-1.41,3.565,0.255,2.862,2.208L2796.314,1547.296z"/>
		<g>
			<g>
				<g>
					<g>
						<linearGradient id="SVGID_25_" gradientUnits="userSpaceOnUse" x1="2225.8599" y1="1247.6271" x2="2432.345" y2="1247.6271">
							<stop  offset="2.818943e-04" style="stop-color:#156187"/>
							<stop  offset="0.1729" style="stop-color:#196495"/>
							<stop  offset="0.5011" style="stop-color:#246BBB"/>
							<stop  offset="0.9476" style="stop-color:#3676F7"/>
							<stop  offset="1" style="stop-color:#3877FF"/>
						</linearGradient>
						<path fill="url(#SVGID_25_)" d="M2264.281,1367.767l-20.34,32.375h170.322l-20.34-32.375l19.143-0.17l-30.381-49.705h14.997
							l-25.492-43.496l9.219-0.019l-19.572-35.816l8.725,0.033l-16.663-33.445l8.849-0.107l-17.305-37.286l6.966-0.142
							c-14.478-27.735-23.303-72.502-23.303-72.502s-0.004,0.018-0.004,0.018c0,0-0.004-0.018-0.004-0.018
							s-8.826,44.767-23.303,72.502l6.965,0.142l-17.304,37.286l8.849,0.107l-16.663,33.445l8.725-0.033l-19.572,35.816l9.218,0.019
							l-25.492,43.496h14.998l-30.381,49.705L2264.281,1367.767z"/>
					</g>
				</g>
			</g>
			<linearGradient id="SVGID_26_" gradientUnits="userSpaceOnUse" x1="2225.8599" y1="1247.6271" x2="2335.0032" y2="1247.6271">
				<stop  offset="0.0116" style="stop-color:#0C384F"/>
				<stop  offset="0.1884" style="stop-color:#103C5D"/>
				<stop  offset="0.5246" style="stop-color:#1A4783"/>
				<stop  offset="0.9819" style="stop-color:#2959BF"/>
				<stop  offset="1" style="stop-color:#2A5AC2"/>
			</linearGradient>
			<path fill="url(#SVGID_26_)" d="M2264.281,1367.767l-20.34,32.375h37.718l20.34-32.375l-19.144-0.17l30.381-49.705h-14.998
				l25.492-43.496l-9.218-0.019l12.93-35.93l-8.725,0.033l10.347-33.759l-8.849-0.107l14.788-31.863l-2.517-5.423l-1.932-0.142
				c1.549-2.968,3.033-6.131,4.449-9.413c-11.816-27.391-5.897-62.662-5.897-62.662s-0.004,0.018-0.004,0.018
				c0,0-0.004-0.018-0.004-0.018s-8.826,44.767-23.303,72.502l6.965,0.142l-17.304,37.286l8.849,0.107l-16.663,33.445l8.725-0.033
				l-19.572,35.816l9.218,0.019l-25.492,43.496h14.998l-30.381,49.705L2264.281,1367.767z"/>
			<path fill="#115170" d="M2478.442,1634.626c0.061,0.09-0.586,34.114-1.471,79.216h32.413
				c-2.285-85.829-4.351-163.957-4.306-164.083l32.013-86.084c0.598-1.66-1.238-3.076-2.433-1.877l-31.872,51.69
				c-0.894,0.895-2.327,0.339-2.522-0.979l-15.735-314.969c-0.315-2.129-3.17-1.746-3.019,0.404l-1.017,188.331
				c-11.096-9.373-47.28-42.39-47.28-42.39c-1.436-0.847-2.907,1.059-1.932,2.502l49.066,66.765l-1.046,193.61
				c0.093,1.327-50.567-44.904-50.567-44.904c-1.436-0.846-2.908,1.059-1.933,2.502L2478.442,1634.626z"/>
			<g>
				<g>
					<g>
						<linearGradient id="SVGID_27_" gradientUnits="userSpaceOnUse" x1="2264.7856" y1="1285.1818" x2="2698.9092" y2="1285.1818">
							<stop  offset="2.818943e-04" style="stop-color:#156187"/>
							<stop  offset="0.1729" style="stop-color:#196495"/>
							<stop  offset="0.5011" style="stop-color:#246BBB"/>
							<stop  offset="0.9476" style="stop-color:#3676F7"/>
							<stop  offset="1" style="stop-color:#3877FF"/>
						</linearGradient>
						<path fill="url(#SVGID_27_)" d="M2345.565,1507.516l-40.248-0.357l63.874-104.502h-31.532l53.595-91.448l-19.381-0.04
							l41.149-75.302l-18.344,0.069l35.033-70.316l-18.605-0.225l36.382-78.393l-14.645-0.298
							c30.438-58.312,48.994-152.432,48.994-152.432s0.009,0.037,0.009,0.038c0-0.001,0.008-0.038,0.008-0.038
							s18.556,94.121,48.994,152.432l-14.645,0.298l36.383,78.393l-18.605,0.225l35.034,70.316l-18.344-0.069l41.149,75.302
							l-19.382,0.04l53.595,91.448h-31.531l63.874,104.502l-40.248,0.357l80.779,128.574h-217.062h-217.062L2345.565,1507.516z"/>
					</g>
				</g>
			</g>
			<linearGradient id="SVGID_28_" gradientUnits="userSpaceOnUse" x1="2264.7856" y1="1285.1816" x2="2494.2534" y2="1285.1816">
				<stop  offset="0.0116" style="stop-color:#0C384F"/>
				<stop  offset="0.1884" style="stop-color:#103C5D"/>
				<stop  offset="0.5246" style="stop-color:#1A4783"/>
				<stop  offset="0.9819" style="stop-color:#2959BF"/>
				<stop  offset="1" style="stop-color:#2A5AC2"/>
			</linearGradient>
			<path fill="url(#SVGID_28_)" d="M2384.617,1507.16l63.874-104.502h-31.532l53.595-91.448l-19.381-0.04l27.185-75.541
				l-18.344,0.069l21.754-70.976l-18.605-0.225l31.09-66.991l-5.292-11.402l-4.061-0.298c3.257-6.239,6.376-12.89,9.353-19.79
				c-24.843-57.587-12.398-131.743-12.398-131.743s-0.008,0.037-0.008,0.038c0-0.001-0.009-0.038-0.009-0.038
				s-18.556,94.121-48.994,152.432l14.645,0.298l-36.382,78.393l18.605,0.225l-35.033,70.316l18.344-0.069l-41.149,75.302
				l19.381,0.04l-53.595,91.448h31.532l-63.874,104.502l40.248,0.356l-80.779,128.574h79.3l80.779-128.574L2384.617,1507.16z"/>
		</g>
		<g>
			<g>
				<path fill="#4874B8" d="M2850.014,1004.538l-10.673-29.126l10.673-0.175v-36.66l-32.764-95.983l18.198-0.503
					c-37.823-98.512-60.88-257.521-60.88-257.521s-0.011,0.063-0.011,0.064c0-0.001-0.011-0.064-0.011-0.064
					s-23.058,159.009-60.88,257.521l18.198,0.503l-45.208,132.438l23.117,0.38l-43.532,118.793l22.794-0.118l-51.132,127.216
					l24.083,0.068l-66.597,154.493h39.181l-79.368,176.547l50.011,0.601l-100.375,217.216h345.178V1004.538z"/>
			</g>
		</g>
		<g>
			<g>
				<linearGradient id="SVGID_29_" gradientUnits="userSpaceOnUse" x1="2503.6431" y1="1176.827" x2="2781.6941" y2="1176.827">
					<stop  offset="0.0116" style="stop-color:#0C384F"/>
					<stop  offset="0.1884" style="stop-color:#103C5D"/>
					<stop  offset="0.5246" style="stop-color:#1A4783"/>
					<stop  offset="0.9819" style="stop-color:#2959BF"/>
					<stop  offset="1" style="stop-color:#2A5AC2"/>
				</linearGradient>
				<path fill="url(#SVGID_29_)" d="M2621.704,1769.656l74.797-204.562l-49.891,3.513l64.581-182.476l-39.048,3.222l53.667-159.447
					l-24.007,1.913l40.497-130.99l-22.708,1.992l33.616-121.971l-23.07,1.523l34.164-135.708l-18.177,0.995
					c19.397-66.392,30.335-158.163,35.57-213.52c-5.421-30.165-8.32-50.144-8.32-50.144s-0.011,0.063-0.011,0.064
					c0-0.001-0.011-0.064-0.011-0.064s-23.058,159.009-60.88,257.521l18.198,0.503l-45.208,132.438l23.117,0.38l-43.533,118.793
					l22.794-0.118l-51.132,127.216l24.083,0.068l-66.597,154.493h39.181l-79.368,176.547l50.011,0.601l-100.375,217.216H2621.704z"
					/>
			</g>
		</g>
	</g>
	<g id="_Group_2">
		<g id="house">
			<polygon fill="#F18E47" points="1484.877,1107.751 1720.343,1107.751 1720.343,1202.04 1485.286,1202.04 			"/>
			<g opacity="0.2">
				
					<linearGradient id="SVGID_30_" gradientUnits="userSpaceOnUse" x1="1484.8766" y1="672.8521" x2="1720.3428" y2="672.8521" gradientTransform="matrix(1 0 0 -1 0 1802)">
					<stop  offset="0" style="stop-color:#5D2422"/>
					<stop  offset="0.39" style="stop-color:#5A2321"/>
					<stop  offset="0.71" style="stop-color:#50201E"/>
					<stop  offset="1" style="stop-color:#3F1B19"/>
				</linearGradient>
				<polygon fill="url(#SVGID_30_)" points="1484.877,1124.643 1720.343,1124.643 1720.343,1133.652 1485.286,1133.652 				"/>
			</g>
			<g opacity="0.2">
				
					<linearGradient id="SVGID_31_" gradientUnits="userSpaceOnUse" x1="1484.8766" y1="646.2341" x2="1720.3428" y2="646.2341" gradientTransform="matrix(1 0 0 -1 0 1802)">
					<stop  offset="0" style="stop-color:#5D2422"/>
					<stop  offset="0.39" style="stop-color:#5A2321"/>
					<stop  offset="0.71" style="stop-color:#50201E"/>
					<stop  offset="1" style="stop-color:#3F1B19"/>
				</linearGradient>
				<polygon fill="url(#SVGID_31_)" points="1484.877,1151.261 1720.343,1151.261 1720.343,1160.271 1485.286,1160.271 				"/>
			</g>
			<g opacity="0.2">
				
					<linearGradient id="SVGID_32_" gradientUnits="userSpaceOnUse" x1="1484.8766" y1="619.6163" x2="1720.3428" y2="619.6163" gradientTransform="matrix(1 0 0 -1 0 1802)">
					<stop  offset="0" style="stop-color:#5D2422"/>
					<stop  offset="0.39" style="stop-color:#5A2321"/>
					<stop  offset="0.71" style="stop-color:#50201E"/>
					<stop  offset="1" style="stop-color:#3F1B19"/>
				</linearGradient>
				<polygon fill="url(#SVGID_32_)" points="1484.877,1177.879 1720.343,1177.879 1720.343,1186.888 1485.286,1186.888 				"/>
			</g>
			<polygon fill="#FBCC9B" points="1761.908,1042.333 1720.752,1107.751 1720.343,1202.04 1800.401,1202.04 1800.401,1107.751 
				1800.299,1107.751 			"/>
			
				<pattern  id="SVGID_33_" xlink:href="#√öj_mint√°zatos_sz√≠nt√°r_1" patternTransform="matrix(1 0 0 -1 53.0049 -12345.083)">
			</pattern>
			<path fill="url(#SVGID_33_)" d="M1813.096,1112.87h-10.238c-1.829,0.033-3.526-0.953-4.402-2.559l-35.013-58.047l-37.572,56.409
				c-1.615,2.63-4.489,4.223-7.576,4.198h-244.066c-1.911,0.033-3.668-1.045-4.505-2.764c-1.019-1.628-1.019-3.695,0-5.324
				l53.031-72.892c0.988-1.331,2.54-2.126,4.197-2.15h242.223c1.818,0.011,3.493,0.985,4.402,2.559l43.51,72.79
				c0.912,1.621,0.912,3.6,0,5.221C1816.271,1111.779,1814.772,1112.74,1813.096,1112.87z"/>
		</g>
		<rect x="1748.496" y="1143.992" fill="#757575" width="31.122" height="58.048"/>
	</g>
	
		<linearGradient id="SVGID_34_" gradientUnits="userSpaceOnUse" x1="1608.057" y1="530.5471" x2="1614.0972" y2="618.1815" gradientTransform="matrix(1 0 0 -1 0 1802)">
		<stop  offset="0" style="stop-color:#BFDAF4;stop-opacity:0"/>
		<stop  offset="0.54" style="stop-color:#9FC5E8;stop-opacity:0.53"/>
		<stop  offset="1" style="stop-color:#83B2DD"/>
	</linearGradient>
	<polygon opacity="0.7" fill="url(#SVGID_34_)" enable-background="new    " points="1800.401,1202.04 1715.838,1248.724 
		1422.324,1244.936 1485.286,1202.04 	"/>
	
		<linearGradient id="SVGID_35_" gradientUnits="userSpaceOnUse" x1="1674.5557" y1="797.0969" x2="1674.5557" y2="1294.1354" gradientTransform="matrix(1 0 0 -1 0 1802)">
		<stop  offset="0.03" style="stop-color:#FFFFFF;stop-opacity:0.6"/>
		<stop  offset="0.63" style="stop-color:#FFFFFF;stop-opacity:0.36"/>
		<stop  offset="1" style="stop-color:#FFFFFF;stop-opacity:0.2"/>
	</linearGradient>
	<path fill="url(#SVGID_35_)" d="M1712.665,856.109c-2.252-0.717-4.402-1.229-6.654-1.74c0.904-4.309,1.35-8.701,1.331-13.104
		c3.683,0.914,7.467,1.361,11.262,1.331c26.536,0.399,48.385-20.763,48.834-47.298c-0.225-20.298-13.297-38.22-32.556-44.636
		c1.506-8.357,1.015-16.951-1.433-25.082c-6.335-20.551-23.656-35.817-44.841-39.517c-0.399-4.768-1.683-9.421-3.788-13.718
		c15.563-14.889,16.158-39.559,1.331-55.181c2.84-4.953,4.323-10.568,4.3-16.278c-0.018-3.185-0.466-6.353-1.331-9.419
		c12.693,0.848,23.671-8.755,24.518-21.449c0.848-12.693-8.755-23.671-21.449-24.518c-1.022-0.068-2.048-0.068-3.07,0h-1.331
		c8.82-8.529,9.057-22.593,0.528-31.413c-8.529-8.82-22.593-9.057-31.413-0.528c-8.821,8.529-9.057,22.593-0.528,31.413
		c4.182,4.325,9.939,6.769,15.954,6.773h0.512c-4.664,4.171-7.342,10.123-7.371,16.38c-3.337-0.903-6.781-1.35-10.238-1.331
		c-18.995-0.341-34.67,14.78-35.011,33.775c-0.001,0.037-0.001,0.074-0.002,0.112c-0.024,5.71,1.459,11.325,4.3,16.278
		c-6.687,7.362-10.344,16.98-10.238,26.925c0.005,5.665,1.263,11.259,3.686,16.38c-0.769,0.735-1.488,1.522-2.15,2.355
		c-6.37,4.895-10.144,12.442-10.238,20.475c-0.1,1.431-0.1,2.868,0,4.3c0,0.921,0,1.843,0,2.867
		c0.005,13.387,6.442,25.956,17.302,33.784c-3.725,10.741-3.976,22.381-0.717,33.272c2.795,9.33,7.983,17.765,15.049,24.468
		c-24.328,2.473-44.974,18.918-52.826,42.077c-9.421,29.465,4.943,61.286,33.272,73.711c-1.259,2.66-2.353,5.396-3.276,8.19
		c-12.589,39.783,9.457,82.239,49.24,94.827c0.647,0.205,1.296,0.401,1.948,0.588c40.75,12.958,84.401-8.936,98.384-49.346
		c12.768-39.667-9.038-82.173-48.705-94.941C1714.393,856.615,1713.531,856.355,1712.665,856.109z"/>
	<rect x="1672.021" y="1002.303" fill="#757575" width="19.451" height="32.76"/>
</g>
</svg>
