<?xml version="1.0" encoding="utf-8"?>
<!-- Generator: Adobe Illustrator 16.0.0, SVG Export Plug-In . SVG Version: 6.00 Build 0)  -->
<!DOCTYPE svg PUBLIC "-//W3C//DTD SVG 1.1//EN" "http://www.w3.org/Graphics/SVG/1.1/DTD/svg11.dtd">
<svg version="1.1" id="Layer_1" xmlns="http://www.w3.org/2000/svg" xmlns:xlink="http://www.w3.org/1999/xlink" x="0px" y="0px"
	 width="720px" height="503.999px" viewBox="0 0 720 503.999" enable-background="new 0 0 720 503.999" xml:space="preserve">
<symbol  id="New_Symbol" viewBox="-0.763 -0.763 1.526 1.525">
	<path fill="#FFFFFF" d="M0.763,0c0-0.421-0.342-0.762-0.763-0.762S-0.763-0.421-0.763,0S-0.421,0.763,0,0.763S0.763,0.42,0.763,0z"
		/>
</symbol>
<rect fill="#DFEAE4" width="720" height="267.044"/>
<path fill="#E4AB90" d="M388.64,234.156c0,0,58.849-2.385,83.419-13.044c13.609-5.904,75.551,13.53,101.66,13.263
	s50.512-11.695,60.07-10.896s34.059,8.292,44.723,9.067c9.566,0.696,41.488-3.434,41.488-3.434l-0.021,19.788l-331.339-2.904
	V234.156z"/>
<circle fill="#FCF7F2" cx="186.489" cy="205.697" r="66.59"/>
<g>
	<path fill="#E4AB90" d="M153.149,260.252c-2.711-3.432,7.001-6.062,8.967-6.471c4.655-0.973,16.561-2.131,40.649-3.197
		c24.087-1.065,26.432-7.104,23.589-7.887c-2.843-0.782-18.584-7.34-21.417-8.41c-2.833-1.068-12.043-4.011-12.043-4.011
		c4.174,2.658,1.882,6.583-3.464,8.576c-5.349,1.995-30.966,7.887-30.966,7.887c-12.217,3.763-15.5,8.14-10.635,13.044
		c0.148,0.15,0.399,0.408,0.729,0.75c1.771,0.168,3.545,0.324,5.322,0.467C153.574,260.727,153.327,260.473,153.149,260.252z"/>
	<path fill="#FBE6C8" d="M147.481,253.205c4.352-3.47,14.473-7.478,22.398-9.275c7.928-1.797,22.815-5.236,24.444-7.663
		c1.627-2.427,2.128-6.676-5.164-6.387c0,0-15.312,8.169-25.892,11.302c-4.458,1.319-36.695,8.539-54.444,11.515
		c13.515,4.795,27.689,6.786,42.091,8.051C147.525,257.842,145.339,254.914,147.481,253.205z"/>
</g>
<path fill="#F8D4B0" d="M719.989,238.651c0,0-82.757,4.364-108.105-0.351c-9.564-1.779-30.255-8.248-35.011-8.467
	c-12.707-0.584-23.438,4.789-38.605,6.87c-6.986,0.958-41.514,1.677-87.796-1.581c-6.833-0.481-23.022-4.09-29.708-5.289
	c-9-1.614-21.5-3.492-31.86,0c-36.806,12.406-58.638-0.215-58.638-0.215l-59.086,11.99c0,0-55.64,6.891-32.034,22.322H0.264V503.84
	L720,503.999L719.989,238.651z"/>
<path fill="#E4AB90" d="M616.976,341.113c-78.093-6.189-169.519-7.609-240.306-24.9c-34.75-8.488-82.906-32.248-88.42-34.463
	c-20.292-8.15-45.196-20.078-48.911-24.414s8.824-8.266,11.368-8.901c6.024-1.506,21.5-3.625,52.875-6.25s34.125-10.625,30.375-11.5
	s-24.625-8.625-28.375-9.875s-15.918-4.619-15.918-4.619c5.582,3.256,2.793,8.494-4.082,11.369s-40,11.875-40,11.875
	c-15.747,5.536-19.807,11.415-13.207,17.565c3.68,3.43,52.481,50.761,28.625,53.365c-74.659,8.152-96.395-1.501-96.395,28.561
	c0,46.07,100.16,38.127,79.206,34.269c-31.524-5.805-35.396-25.393-5.811-30.062C339.092,327.173,720,362,720,362v-23.009
	C719.937,339.823,717.005,349.041,616.976,341.113z"/>
<path fill="#E4AB90" d="M0.001,425.434L0,438.898c0,0,21.842-17.852,73-21.234c58.919-3.896,152.577,10.335,236.667,22.234
	c35.955,5.088,142.702,12.954,124.666,20.746c-8.788,3.797-50.745,8.064-93.667,13.418c-45.167,5.635-101.078,12.674-111.333,29.937
	h55c0,0,162.965-5.195,163.307-47.028c0.189-23.159-211.974-47.404-272.641-50.688S5.002,402.533,0.001,425.434z"/>
<path fill="#FBE6C8" d="M236,372.049c-53.998-6.951-66.283-26.118-61.7-42.614c4.035-14.523,28.002-10.49,55.867-7.595
	c38.5,4,67.416-1.905,69.416-15.905s-40.956-34.323-48.5-38.5c-6.96-3.854-25-14.25-19.5-19s18.5-10.5,28.75-13.25
	s29.5-8,31.5-11.25s2.436-8.819-7.064-8.069c0,0-19.561,11.444-33.204,16.072c-7.212,2.446-70.981,19.247-83.481,19.997
	c-11.025,0.661-155,4.5-160.5,4.5s-7.582,0-7.582,0V327v2.435v100.541c54-42.024,409.83,9.895,435,22.928
	c22.235,11.514-33.001,20.281-115,29.944c-63.542,7.488-72,21.151-72,21.151h472v-56.921C494,431.156,290,379,236,372.049z"/>
<path opacity="0.6" fill="#FFFFFF" d="M619.347,58.073C619.323,57.601,619.293,57.677,619.347,58.073L619.347,58.073z"/>
<path opacity="0.6" fill="#FCF7F2" d="M675.558,25.515c-12,1.75-17.5,5-24.5,10s-8.434-5.63-16.25-5.25
	c-6.557,0.319-4.5,9.75-12,9.5c-7.001-0.233-5.25-5.25-11.943-5.319c-5.385-0.055-7.5,6-6.5,8s-7.5-8-15-7.5s-9,8.5-4.5,10.5
	s-17-3.5-22.5,0s2.461,15.042,23.5,13.5c11.726-0.859,10.709,2.849,13,4.5c10.495,7.562,20.5,0,20.5-4.5
	c0-0.396-0.008-0.678-0.018-0.873c-0.054-0.396-0.023-0.472,0,0c0.175,1.293,1.257,5.989,6.518,6.148c9.693,0.293,8-6.775,8-6.775
	s6.362,5.813,10.193,7.069c7.453,2.443,62.416,14.083,60.807-4.069c-0.373-4.21,5.806-4.676,13.136-3.854V26.803
	C706.714,26.57,687.755,23.736,675.558,25.515z"/>
<path opacity="0.6" fill="#FCF7F2" d="M0,42.031v77.362c0,0,4.999,13.437,17.805,4.737c5.452-3.704,14.279-6.762,18.194-4.3
	c11.5,7.231,35.471,3.511,38.432-2.805c2.961-6.315,13.927-0.142,18.568,1.805c15.5,6.5,32.135-3.383,24.363-9.699
	c-7.772-6.315,9.623-3.158,10.733-0.395c1.11,2.763,11.473,3.552,13.323,0.395c1.851-3.158,7.992-0.528,8.882,1.184
	c1.698,3.265,17.777,2.765,17.765-5.131c-0.006-4.357-8.118-7.619-12.56-6.829c-4.441,0.789-1.257-5.025-7.056-5.802
	c-4.833-0.647-3.331,6.71-8.512,6.315c-5.182-0.395-0.689-7.789-8.439-8.289c-5.961-0.385-6.735,4.342-8.215,5.526
	c-1.48,1.185,1.477-8.543-6.535-8.276c-7.5,0.25-5.309,5.908-6.049,7.881c0,0-16.201-26.881-31.458-17.762
	c-6.646,3.973-0.243-7.242-8.142-14.604c-8.601-8.016-23.687-9.473-28.498-0.395c-4.812,9.078-7.032-12.236-17.765-10.657
	s-11.473-0.79-12.954-3.552C10.403,45.978,9.211,38.083,0,42.031z"/>
<path opacity="0.6" fill="#FCF7F2" d="M719.673,123.432v77.362c0,0-6.688,13.437-23.823,4.737c-7.295-3.704-19.105-6.762-24.345-4.3
	c-15.387,7.231-47.46,3.511-51.422-2.805c-3.962-6.315-18.635-0.142-24.845,1.805c-20.739,6.5-42.999-3.383-32.599-9.699
	c10.399-6.315-12.875-3.158-14.362-0.395c-1.484,2.763-15.351,3.552-17.825,0.395c-2.478-3.158-10.693-0.528-11.886,1.184
	c-2.272,3.265-23.786,2.765-23.771-5.131c0.009-4.357,10.863-7.619,16.807-6.829c5.942,0.789,1.682-5.025,9.439-5.802
	c6.467-0.647,4.458,6.71,11.39,6.315c6.934-0.395,0.923-7.789,11.292-8.289c7.978-0.385,9.013,4.342,10.993,5.526
	c1.981,1.185-1.976-8.543,8.743-8.276c10.035,0.25,7.103,5.908,8.094,7.881c0,0,21.677-26.881,42.091-17.762
	c8.894,3.973,0.325-7.242,10.896-14.604c11.508-8.016,31.693-9.473,38.131-0.395c6.437,9.078,9.408-12.236,23.769-10.657
	c14.361,1.579,15.352-0.79,17.333-3.552C705.753,127.378,707.347,119.484,719.673,123.432z"/>
<path fill="#FCF7F2" d="M235.009,127.097c2.954-1.476,4.021-2.881,3.282-6.257c-0.183-0.837-0.633-2.637-0.21-5.063
	c0.113-0.649-8.018,3.27-7.304,7.701c0.245,1.524-9.362,2.109-7.799,9.389c0.038,0.175,0.078,0.33,0.117,0.494
	c-9.989,1.381-9.855-0.52-9.855-0.52c0.632,2.11,10.076,5.803,13.502,5.563c3.467-0.241,9.705-2.531,9.705-2.531
	s-1.6-1.851-5.577-3.484C231.317,131.234,232.655,128.275,235.009,127.097z"/>
<path fill="#FCF7F2" d="M272.674,163.673c2.659-1.329,3.62-2.594,2.955-5.632c-0.165-0.754-0.57-2.374-0.189-4.558
	c0.102-0.584-7.217,2.943-6.575,6.932c0.221,1.372-8.427,1.898-7.021,8.451c0.034,0.158,0.07,0.297,0.105,0.444
	c-8.991,1.244-8.871-0.468-8.871-0.468c0.569,1.899,9.07,5.223,12.153,5.008c3.121-0.218,8.736-2.279,8.736-2.279
	s-1.44-1.666-5.02-3.136C269.352,167.396,270.556,164.733,272.674,163.673z"/>
<path fill="#FCF7F2" d="M285.088,127.084c1.923-0.961,2.62-1.876,2.137-4.075c-0.118-0.546-0.412-1.719-0.137-3.299
	c0.075-0.423-5.222,2.13-4.757,5.017c0.159,0.993-6.099,1.374-5.082,6.116c0.025,0.115,0.051,0.214,0.077,0.322
	c-6.507,0.898-6.42-0.339-6.42-0.339c0.413,1.375,6.563,3.78,8.796,3.623c2.259-0.156,6.321-1.648,6.321-1.648
	s-1.042-1.207-3.632-2.27C282.684,129.78,283.555,127.852,285.088,127.084z"/>
<g>
	<path opacity="0.6" fill="#E2BFA1" d="M81.361,386.116c-0.65-1.979-22.12-0.574-26.295-0.782s-3.414,11.095,4.455,11.281
		C63.941,396.72,83.614,392.976,81.361,386.116z"/>
	<g>
		<path fill="#457480" d="M71.251,361.304c1.812,0.871,3.689,1.602,5.667,2.114v25.355c-1.793,0.719-3.717,1.197-5.667,1.623
			V361.304z"/>
		<path fill="#2A4252" d="M68.361,386.603v-26.831c0.94,0.559,1.908,1.06,2.89,1.532v29.093c-0.472,0.104-0.945,0.204-1.419,0.304
			C68.918,389.581,68.361,388.16,68.361,386.603z"/>
		<path fill="#5C99A3" d="M76.918,363.418c1.432,0.371,2.906,0.646,4.443,0.782v21.916c-1.327,1.17-2.832,2.012-4.443,2.657V363.418
			z"/>
		<path fill="#7AD3D6" d="M81.361,260.603V364.2c-1.537-0.136-3.012-0.411-4.443-0.782V254.44
			C79.499,255.301,81.361,257.732,81.361,260.603z"/>
		<path fill="#5C99A3" d="M74.861,254.103c0.72,0,1.41,0.122,2.057,0.338v108.978c-1.978-0.513-3.855-1.243-5.667-2.114V255.198
			C72.284,254.507,73.525,254.103,74.861,254.103z"/>
		<path fill="#365864" d="M68.361,260.603c0-2.254,1.147-4.238,2.89-5.404v106.105c-0.981-0.473-1.949-0.974-2.89-1.532V260.603z"/>
		<g>
			<path fill="#457480" d="M59.521,340.573c1.522-1.356,2.836-2.96,3.896-4.828c1.993,0.189,3.771,0.2,4.944,0.175v5.238
				C66.482,341.19,63.024,341.145,59.521,340.573z"/>
			<path fill="#5C99A3" d="M63.417,335.745c0.891-1.568,1.619-3.303,2.112-5.259c1.503,0.032,2.634-0.051,2.832-0.051v5.484
				C67.188,335.945,65.41,335.935,63.417,335.745z"/>
			<path fill="#2A4252" d="M68.361,341.158v3.944c0,0-4.928,0.469-12.907-1.676c1.477-0.79,2.831-1.751,4.067-2.854
				C63.024,341.145,66.482,341.19,68.361,341.158z"/>
			<path fill="#5C99A3" d="M52.168,331.359c2.447,2.92,7.266,4.008,11.249,4.386c-1.06,1.868-2.373,3.472-3.896,4.828
				c-2.915-0.476-5.857-1.314-7.937-2.782c-5.666-4-7.126-9.349-7.292-12.682c-0.127-2.543-0.073-16.694-0.041-23.265
				c0.69-0.187,1.459-0.308,2.354-0.306c0.748,0.002,1.4,0.08,1.978,0.211c0.001,2.966,0.001,8.092,0.001,11.081
				C48.585,317.219,47.559,325.859,52.168,331.359z"/>
			<path fill="#7AD3D6" d="M52.168,331.359c-4.609-5.5-3.583-14.141-3.583-18.528c0-2.989,0-8.115-0.001-11.081
				c4.258,0.961,4.193,4.936,4.193,4.936s-0.083,11.917,0.251,14.417s1.438,5.541,4.938,7.708c2.112,1.308,5.274,1.627,7.563,1.676
				c-0.493,1.956-1.222,3.69-2.112,5.259C59.434,335.367,54.615,334.279,52.168,331.359z"/>
			<path fill="#365864" d="M40.525,306.248c0-1.916,1.194-3.717,3.727-4.403c-0.032,6.57-0.086,20.722,0.041,23.265
				c0.166,3.333,1.626,8.682,7.292,12.682c2.079,1.468,5.021,2.307,7.937,2.782c-1.236,1.103-2.591,2.063-4.067,2.854
				c-0.198-0.053-0.391-0.101-0.593-0.157c-8.333-2.333-14.423-10.584-14.333-17C40.58,322.601,40.525,309.25,40.525,306.248z"/>
		</g>
		<g>
			<path fill="#457480" d="M89.417,311.04c-1.388-1.236-2.585-2.697-3.55-4.399c-1.816,0.173-3.437,0.183-4.506,0.159v4.773
				C83.074,311.603,86.225,311.561,89.417,311.04z"/>
			<path fill="#2A4252" d="M81.361,311.573v3.594c0,0,4.49,0.428,11.762-1.526c-1.346-0.721-2.58-1.596-3.706-2.601
				C86.225,311.561,83.074,311.603,81.361,311.573z"/>
			<path fill="#5C99A3" d="M96.117,302.645c-2.23,2.66-6.62,3.651-10.25,3.996c0.965,1.702,2.162,3.163,3.55,4.399
				c2.655-0.434,5.337-1.197,7.231-2.535c5.162-3.645,6.493-8.519,6.645-11.556c0.115-2.316,0.066-15.211,0.037-21.198
				c-0.629-0.17-1.329-0.28-2.146-0.278c-0.682,0.002-1.276,0.073-1.802,0.192c-0.001,2.702-0.001,7.373-0.001,10.097
				C99.382,289.76,100.317,297.633,96.117,302.645z"/>
			<path fill="#7AD3D6" d="M96.117,302.645c4.2-5.012,3.265-12.885,3.265-16.883c0-2.724,0-7.395,0.001-10.097
				c-3.88,0.875-3.821,4.497-3.821,4.497s0.076,10.858-0.229,13.137c-0.305,2.277-1.31,5.049-4.499,7.023
				c-1.925,1.191-4.806,1.482-6.892,1.526c0.449,1.783,1.113,3.363,1.925,4.792C89.497,306.296,93.887,305.305,96.117,302.645z"/>
			<path fill="#365864" d="M106.726,279.764c0-1.746-1.088-3.387-3.396-4.013c0.029,5.987,0.078,18.882-0.037,21.198
				c-0.151,3.037-1.482,7.911-6.645,11.556c-1.895,1.338-4.576,2.102-7.231,2.535c1.126,1.005,2.36,1.88,3.706,2.601
				c0.181-0.049,0.355-0.092,0.54-0.144c7.593-2.126,13.142-9.645,13.06-15.49C106.676,294.664,106.726,282.499,106.726,279.764z"/>
			<path fill="#5C99A3" d="M85.867,306.641c-0.812-1.429-0.784-3.059-0.388-4.869c-1.446,0.099-3.937,0.031-4.118,0.031v4.997
				C82.431,306.823,84.051,306.813,85.867,306.641z"/>
		</g>
	</g>
</g>
<path fill="#F8D4B0" d="M488.202,301.383c19.5,0.932,27.604,0.15,36.5-1.103c8.896-1.252,11.083-3.085,31.32-1.876
	c19.356,1.156,25.329,11.988,47.338,10.969c0,0-47.158,3.7-77.408,0.971S488.202,301.383,488.202,301.383z"/>
<g>
	<polygon opacity="0.6" fill="#E2BFA1" points="634.121,478.56 549.092,478.56 448.017,480.938 580.62,487.212 616.924,487.212 
		719.834,480.521 719.834,478.56 	"/>
	<g>
		<path fill="#2A4252" d="M628.862,368.114l-10.328,36.058l25.871-36.058c0,0,3.129-8.17,7.074-18.764
			c-4.652,1.304-9.304,2.198-13.956,3.906L628.862,368.114z"/>
		<path fill="#355563" d="M667.307,302.171l-29.783,51.086c4.652-1.708,9.304-2.603,13.956-3.906
			C658.446,330.649,667.96,304.39,667.307,302.171z"/>
		<g>
			<path fill="#1B2C34" d="M517.865,449.762l35.36,12.508l-34.412-28.021c0,0-7.965-3.621-18.297-8.206
				c1.018,4.722,1.625,9.42,3.047,14.168L517.865,449.762z"/>
			<path fill="#1C3944" d="M454.39,407.366l49.174,32.844c-1.422-4.748-2.029-9.446-3.047-14.168
				C482.273,417.947,456.644,406.851,454.39,407.366z"/>
		</g>
		<g>
			<polygon fill="#1C3944" points="557.694,277.633 557.775,278.649 563.766,353.376 570.314,346.483 			"/>
			<path fill="#142C34" d="M570.314,346.483l-6.549,6.893l0.54,6.729c0,0,13.984,36.613,16.365,43.928
				c-1.818-8.435-10.139-56.36-10.139-56.36L570.314,346.483z"/>
			<path fill="#1D434D" d="M580.529,356.651l-4.614-16.062l-5.703,6.003l0.111,0.614c0,0,8.922,49.195,10.156,57.967
				C580.164,397.247,580.529,356.651,580.529,356.651z"/>
			<polygon fill="#285563" points="557.964,278.112 557.682,277.131 570.212,346.592 575.915,340.589 			"/>
		</g>
		<g>
			<path fill="#345662" d="M590.12,339.862l-1.977-65.709c0,0-1.273-2.045-1.474,3.886c-0.091,2.669-2.564,27.029-4.545,53.318
				c-1.06,14.055-2.039,28.634-2.806,40.59c3.395,9.996,7.474,19.645,10.801,29.52V339.862z"/>
			<path fill="#1B3C47" d="M579.319,371.947c-0.987,15.382-1.621,26.422-1.621,26.422l12.422,43.855v-40.758
				C586.793,391.592,582.714,381.943,579.319,371.947z"/>
			<path fill="#59949B" d="M596.849,369.953c-0.154-6.677-3.682-53.138-3.682-53.138s-3.681-35.965-3.987-38.955
				c-0.307-2.991-1.036-3.707-1.036-3.707l1.343,59.55l0.042,58.737l0.118,9.942c2.479-3.497,5.08-6.927,7.714-10.47
				C597.138,382.372,596.916,372.933,596.849,369.953z"/>
			<path fill="#1E3E4E" d="M589.646,402.383l0.474,39.842l7.799-26.479c0,0-0.281-11.995-0.559-23.833
				C594.727,395.456,592.126,398.886,589.646,402.383z"/>
			<path fill="#7AD3D6" d="M589.22,321.878c0,0-0.324,16.841-0.465,18.879s0.133,25.751,0.593,29.841
				c0.459,4.089,0.364-26.302,0.507-29.085C589.999,338.729,589.22,321.878,589.22,321.878z"/>
		</g>
		<g>
			<path fill="#2A4252" d="M545.999,366.055l-27.88-62.185c-1.856,0.986,20.2,68.202,21.899,73.938
				c0.85,2.86,6.281,16.708,11.514,29.873l11.88,2.04L545.999,366.055z"/>
			<path fill="#2A4252" d="M585.501,465.113l-22.089-55.392l-11.88-2.04c5.26,13.234,10.319,25.78,10.319,25.78L585.501,465.113z"/>
			<path fill="#355563" d="M547.555,357.211c-8.166-15.276-26.44-51.317-29.535-53.58c-1.854-1.358,23.445,58.231,44,106.161
				l7.657-5.413C561.52,386.31,551.864,365.274,547.555,357.211z"/>
			<path fill="#355563" d="M583.078,434.345c0,0-7.614-17.145-14.914-33.314l-6.145,8.762
				c13.722,31.997,25.327,58.796,25.327,58.796L583.078,434.345z"/>
		</g>
		<g>
			<path fill="#365864" d="M538.392,380.46l-38.403-56.298c-1.653,1.299,31.904,63.575,34.59,68.922
				c1.34,2.666,9.126,15.339,16.598,27.376l12.054-0.085L538.392,380.46z"/>
			<path fill="#2A4252" d="M594.735,471.006l-31.506-50.631l-12.054,0.085c7.511,12.101,14.702,23.558,14.702,23.558
				L594.735,471.006z"/>
			<path fill="#457480" d="M538.365,371.481c-10.731-13.6-35.072-45.854-38.517-47.537c-2.065-1.01,33.342,53.188,62.022,96.745
				l6.583-6.679C557.239,397.661,544.028,378.658,538.365,371.481z"/>
			<path fill="#355563" d="M586.928,441.146c0,0-10.518-15.534-20.554-30.164l-4.503,9.708
				c19.146,29.076,35.294,53.411,35.294,53.411L586.928,441.146z"/>
		</g>
		<polygon fill="#1C3945" points="705.166,323.398 679.195,347.938 646.886,381.884 627.05,413.784 658.337,389.041 		"/>
		<g>
			<path fill="#5C99A3" d="M696.644,361.369c-14.318,9.92-28.52,20.544-28.834,20.858c-0.613,0.613-36.809,28.22-36.809,28.22
				l-7.187,7.864l-1.515,7.94l42.033-34.004l55.501-45.617v-0.753C714.717,349.19,705.647,355.132,696.644,361.369z"/>
			<path fill="#69B2BA" d="M622.3,426.252l-2.009,15.043c0,0,74.308-68.883,77.784-71.95c2.524-2.228,15.074-15.02,21.759-21.859
				v-0.877L622.3,426.252z"/>
		</g>
		<g>
			<polygon fill="#5C99A3" points="539.892,304.717 538.478,305.706 540.227,307.336 			"/>
			<polygon fill="#5C99A3" points="540.422,307.995 539.009,308.984 540.758,310.615 			"/>
			<polygon fill="#5C99A3" points="541.133,311.546 539.726,312.545 541.487,314.162 			"/>
			<polygon fill="#5C99A3" points="541.699,314.949 540.329,315.999 542.147,317.552 			"/>
			<polygon fill="#5C99A3" points="542.329,318.293 540.965,319.35 542.792,320.894 			"/>
			<polygon fill="#5C99A3" points="542.938,321.646 541.555,322.675 543.352,324.253 			"/>
			<polygon fill="#5C99A3" points="543.508,325.621 542.186,326.728 544.07,328.201 			"/>
			<polygon fill="#5C99A3" points="544.327,329.422 542.979,330.497 544.827,332.015 			"/>
			<polygon fill="#5C99A3" points="545.017,333.422 543.678,334.512 545.542,336.011 			"/>
			<g>
				<polygon fill="#69B2BA" points="587,454.049 596.8,456.06 568.417,366.237 536.244,285.887 563.434,375.98 				"/>
				<path fill="#5C99A3" d="M581.09,453.481l5.91,0.567l-50.771-168.184c0,0,11.948,70.605,17.67,90.561
					C559.62,396.381,571.08,434.531,581.09,453.481z"/>
				<polygon fill="#5C99A3" points="545.682,336.836 544.262,337.816 546.001,339.457 				"/>
				<polygon fill="#5C99A3" points="546.259,340.765 544.96,341.9 546.876,343.332 				"/>
				<polygon fill="#5C99A3" points="547.028,344.461 545.701,345.563 547.578,347.045 				"/>
				<polygon fill="#5C99A3" points="547.765,348.156 546.438,349.26 548.319,350.737 				"/>
			</g>
			<g>
				<polygon fill="#5C99A3" points="548.347,351.932 547.042,353.062 548.952,354.503 				"/>
				<polygon fill="#5C99A3" points="549.091,355.456 547.802,356.602 549.728,358.019 				"/>
				<polygon fill="#5C99A3" points="549.782,358.629 548.463,359.742 550.353,361.207 				"/>
				<polygon fill="#5C99A3" points="550.443,362.013 549.216,363.227 551.214,364.539 				"/>
			</g>
			<polygon fill="#5C99A3" points="551.756,366.013 550.438,367.126 552.327,368.592 			"/>
			<polygon fill="#5C99A3" points="552.513,369.527 551.229,370.682 553.164,372.087 			"/>
			<polygon fill="#5C99A3" points="553.33,373.232 552.043,374.381 553.973,375.793 			"/>
			<polygon fill="#5C99A3" points="554.142,376.548 552.897,377.744 554.879,379.084 			"/>
			<polygon fill="#5C99A3" points="555.12,379.719 553.894,380.935 555.896,382.244 			"/>
			<polygon fill="#5C99A3" points="556.021,382.939 554.823,384.182 556.852,385.446 			"/>
			<polygon fill="#5C99A3" points="556.942,385.927 555.7,387.124 557.682,388.463 			"/>
			<polygon fill="#5C99A3" points="558.014,389.328 556.79,390.544 558.792,391.853 			"/>
			<polygon fill="#5C99A3" points="558.955,392.55 557.737,393.771 559.747,395.068 			"/>
			<polygon fill="#5C99A3" points="559.921,395.694 558.705,396.919 560.716,398.213 			"/>
			<polygon fill="#5C99A3" points="560.899,399.016 559.661,400.219 561.649,401.548 			"/>
			<polygon fill="#5C99A3" points="561.8,402.082 560.639,403.359 562.704,404.564 			"/>
			<polygon fill="#5C99A3" points="562.68,405.065 561.475,406.299 563.495,407.577 			"/>
			<polygon fill="#5C99A3" points="563.724,408.062 562.518,409.297 564.538,410.575 			"/>
			<polygon fill="#5C99A3" points="564.86,411.197 563.656,412.433 565.679,413.708 			"/>
			<polygon fill="#5C99A3" points="565.712,414.029 564.567,415.321 566.649,416.498 			"/>
			<polygon fill="#5C99A3" points="566.857,417.055 565.649,418.287 567.667,419.568 			"/>
			<polygon fill="#5C99A3" points="567.695,419.818 566.52,421.081 568.571,422.311 			"/>
			<polygon fill="#5C99A3" points="568.575,422.567 567.466,423.889 569.578,425.011 			"/>
			<polygon fill="#5C99A3" points="569.602,425.31 568.483,426.622 570.587,427.76 			"/>
			<polygon fill="#5C99A3" points="570.65,428.25 569.478,429.516 571.533,430.738 			"/>
			<polygon fill="#5C99A3" points="572.852,434.021 571.679,435.288 573.735,436.511 			"/>
			<polygon fill="#5C99A3" points="573.895,436.916 572.77,438.225 574.869,439.37 			"/>
			<polygon fill="#5C99A3" points="575.34,440.383 574.275,441.741 576.425,442.792 			"/>
			<polygon fill="#5C99A3" points="576.604,443.52 575.547,444.884 577.703,445.922 			"/>
			<polygon fill="#5C99A3" points="578.047,446.632 577.021,448.021 579.198,449.008 			"/>
			<polygon fill="#5C99A3" points="571.639,431.038 570.467,432.305 572.521,433.527 			"/>
		</g>
		<path fill="#4D7A87" d="M614.698,407.742l-9.031,36.558l20.812-35.726v-17.258C619.456,401.107,614.698,407.742,614.698,407.742z"
			/>
		<path fill="#5F9AA3" d="M687.339,307.963c0,0-0.817,0.146-3.271,3.298c-1.8,2.31-38.271,53.125-57.589,80.056v17.258
			l15.596-26.771L687.339,307.963z"/>
		<polygon fill="#5A99A2" points="604.747,445.421 604.958,451.314 632.452,407.995 626.706,407.995 		"/>
		<path fill="#6CB7BF" d="M686.419,309.083c1.022-3.571-29.199,46.908-29.199,46.908l-30.514,52.004h5.746l10.001-15.757
			C642.453,392.238,685.396,312.656,686.419,309.083z"/>
		<path fill="#2A4252" d="M478.663,372.623c0,0,28.979,31.035,33.407,36.356c5.749,6.909,27.394,27.937,27.394,27.937l25.831,10.811
			l-38.354-42.129C526.94,405.598,485.616,375.84,478.663,372.623z"/>
		<path fill="#7AD3D6" d="M660.032,351.266c0,0-8.557,14.087-9.719,15.768c-1.162,1.68-13.047,22.201-14.742,25.95
			c-1.695,3.75,13.756-22.42,15.302-24.738C652.42,365.926,660.032,351.266,660.032,351.266z"/>
		<g>
			<path fill="#285563" d="M509.368,446.303c-8.103-2.835-60.228-16.353-60.228-16.353c4.701,4.839,57.413,25.173,83.488,35.102
				c6.483-1.492,12.67-3.894,18.994-5.642C533.401,453.092,513.872,447.879,509.368,446.303z"/>
			<path fill="#2A4252" d="M588.331,479.753c0,0,0,0-3.869-4.382c-4.562-5.166-18.283-10.916-32.839-15.961
				c-6.324,1.748-12.511,4.149-18.994,5.642c4.108,1.565,7.562,2.874,10.055,3.821c8.817,3.348,28.268,8.983,37.209,10.827
				C579.893,479.7,584.092,479.145,588.331,479.753z"/>
		</g>
		<g>
			<path fill="#1B2C34" d="M648.704,446.743l-34.967,13.57l33.551-29.049c0,0,7.851-3.859,18.04-8.755
				c-0.874,4.751-1.339,9.466-2.618,14.254L648.704,446.743z"/>
			<path fill="#1C3945" d="M710.87,402.449l-48.16,34.314c1.279-4.788,1.744-9.503,2.618-14.254
				C683.319,413.868,708.601,402.002,710.87,402.449z"/>
		</g>
		<g>
			<path fill="#1C3944" d="M682.54,446.109c-4.504,1.575-24.033,6.789-42.254,13.107c6.323,1.748,12.51,4.148,18.994,5.642
				c15.919-6.062,41.765-16.001,60.554-23.926v-5.162C704.746,439.766,686.994,444.551,682.54,446.109z"/>
			<path fill="#1B2C34" d="M603.577,479.56c0,0,0,0,3.869-4.382c4.562-5.166,18.283-10.916,32.84-15.961
				c6.323,1.748,12.51,4.148,18.994,5.642c-4.109,1.565-7.562,2.874-10.056,3.82c-8.817,3.348-28.268,8.984-37.209,10.828
				C612.016,479.507,607.817,478.95,603.577,479.56z"/>
		</g>
		<path fill="#7AD3D6" d="M552.636,338.975c0,0,4.477,15.863,4.914,17.858c0.438,1.996,7.354,24.679,8.942,28.476
			c1.589,3.795-7.031-25.347-7.675-28.059C558.174,354.537,552.636,338.975,552.636,338.975z"/>
		<g>
			<g>
				<polygon fill="#5C99A3" points="491.327,354.275 490.407,355.735 492.651,356.561 				"/>
				<polygon fill="#5C99A3" points="493.087,357.092 492.167,358.552 494.411,359.376 				"/>
				<polygon fill="#5C99A3" points="495.118,360.089 494.209,361.556 496.459,362.363 				"/>
				<polygon fill="#5C99A3" points="496.961,363.007 496.104,364.505 498.383,365.231 				"/>
				<polygon fill="#5C99A3" points="498.839,365.845 497.99,367.348 500.272,368.062 				"/>
				<polygon fill="#5C99A3" points="500.698,368.697 499.822,370.184 502.092,370.941 				"/>
				<polygon fill="#5C99A3" points="502.766,372.142 501.976,373.676 504.284,374.302 				"/>
				<polygon fill="#5C99A3" points="504.994,375.327 504.169,376.843 506.461,377.524 				"/>
				<polygon fill="#5C99A3" points="507.181,378.747 506.369,380.271 508.669,380.93 				"/>
				<g>
					<path fill="#69B2BB" d="M541.476,399.922l-60.812-61.59l59.997,72.504l17.802,21.509c1.04-2.994,1.945-5.852,3.018-8.877
						L541.476,399.922z"/>
					<path fill="#528893" d="M557.854,431.611c-4.374-0.541-8.747-0.463-13.121-1.17c13.262,15.891,30.111,35.033,42.252,44.984
						l5.669-1.769L557.854,431.611z"/>
					<path fill="#5C99A3" d="M480.641,338.318c0,0,38.392,60.448,51.403,76.624c3.48,4.327,7.848,9.698,12.689,15.499
						c4.374,0.707,8.747,0.629,13.121,1.17L480.641,338.318z"/>
					<polygon fill="#5C99A3" points="509.118,381.637 508.189,383.091 510.429,383.929 					"/>
					<polygon fill="#5C99A3" points="511.174,385.034 510.417,386.585 512.738,387.161 					"/>
					<polygon fill="#5C99A3" points="513.316,388.143 512.521,389.674 514.824,390.312 					"/>
					<polygon fill="#5C99A3" points="515.427,391.264 514.633,392.795 516.939,393.428 					"/>
					<path fill="#365864" d="M602.621,471.712l-41.142-48.244c-1.072,3.025-1.978,5.883-3.018,8.877L596.38,479.7L602.621,471.712z"
						/>
				</g>
				<g>
					<polygon fill="#5C99A3" points="517.428,394.518 516.664,396.065 518.983,396.653 					"/>
					<polygon fill="#5C99A3" points="519.48,397.478 518.736,399.034 521.061,399.593 					"/>
					<polygon fill="#5C99A3" points="521.349,400.135 520.563,401.672 522.874,402.289 					"/>
					<polygon fill="#5C99A3" points="523.271,402.996 522.608,404.592 524.96,405.027 					"/>
				</g>
				<polygon fill="#5C99A3" points="526.03,406.176 525.247,407.713 527.558,408.331 				"/>
				<polygon fill="#5C99A3" points="528.091,409.121 527.355,410.683 529.685,411.229 				"/>
				<polygon fill="#5C99A3" points="530.281,412.22 529.54,413.777 531.866,414.331 				"/>
				<polygon fill="#5C99A3" points="532.314,414.961 531.632,416.547 533.979,417.013 				"/>
				<polygon fill="#5C99A3" points="534.445,417.506 533.787,419.101 536.14,419.532 				"/>
				<polygon fill="#5C99A3" points="536.525,420.125 535.902,421.733 538.263,422.113 				"/>
				<polygon fill="#5C99A3" points="538.532,422.521 537.853,424.106 540.197,424.571 				"/>
				<polygon fill="#5C99A3" points="540.841,425.24 540.183,426.835 542.535,427.265 				"/>
				<polygon fill="#5C99A3" points="542.956,427.844 542.308,429.443 544.663,429.858 				"/>
				<polygon fill="#528893" points="545.065,430.369 544.419,431.969 546.775,432.382 				"/>
				<polygon fill="#528893" points="547.256,433.051 546.581,434.64 548.93,435.094 				"/>
				<polygon fill="#528893" points="549.275,435.528 548.7,437.154 551.071,437.465 				"/>
				<polygon fill="#528893" points="551.242,437.936 550.61,439.541 552.968,439.937 				"/>
				<polygon fill="#528893" points="553.367,440.295 552.734,441.899 555.093,442.295 				"/>
				<polygon fill="#528893" points="555.631,442.743 555,444.349 557.358,444.74 				"/>
				<polygon fill="#528893" points="557.513,445.024 556.959,446.658 559.334,446.936 				"/>
				<polygon fill="#5C99A3" points="559.743,447.368 559.106,448.973 561.464,449.373 				"/>
				<polygon fill="#5C99A3" points="561.587,449.591 560.992,451.211 563.36,451.547 				"/>
				<polygon fill="#5C99A3" points="563.464,451.783 562.953,453.431 565.336,453.646 				"/>
				<polygon fill="#5C99A3" points="565.474,453.912 564.952,455.557 567.331,455.789 				"/>
				<polygon fill="#5C99A3" points="567.58,456.216 566.989,457.838 569.358,458.167 				"/>
				<polygon fill="#5C99A3" points="571.847,460.683 571.258,462.305 573.626,462.636 				"/>
				<polygon fill="#5C99A3" points="573.93,462.945 573.4,464.588 575.781,464.83 				"/>
				<polygon fill="#5C99A3" points="576.607,465.582 576.152,467.246 578.541,467.383 				"/>
				<polygon fill="#5C99A3" points="578.988,467.982 578.544,469.65 580.933,469.771 				"/>
				<polygon fill="#5C99A3" points="581.524,470.292 581.118,471.969 583.509,472.036 				"/>
				<polygon fill="#5C99A3" points="569.571,458.403 568.983,460.025 571.352,460.355 				"/>
			</g>
			<path fill="#7AD3D6" d="M508.619,372.115c0,0,15.327,19.779,17.079,22.228c1.753,2.45,24.291,29.126,28.645,33.332
				c4.354,4.205-24.245-30.225-26.692-33.523C525.202,390.852,508.619,372.115,508.619,372.115z"/>
		</g>
		<g>
			<g>
				<g>
					<path fill="#69B2BB" d="M687.152,422.75l-27.438,14.205c-0.154,3.206-0.399,6.193-0.572,9.359l24.627-13.155l36.064-19.27
						v-5.07L687.152,422.75z"/>
					<path fill="#528893" d="M659.982,445.865c4.253,1.157,8.27,2.887,12.585,3.892c-18.295,9.677-41.145,21.004-56.151,25.61
						l-4.575-3.786L659.982,445.865z"/>
					<path fill="#5C99A3" d="M659.982,445.865c4.253,1.157,8.27,2.887,12.585,3.892c6.68-3.532,12.757-6.848,17.617-9.532
						c6.36-3.513,17.655-10.866,29.649-18.94v-7.391L659.982,445.865z"/>
					<polygon fill="#5C99A3" points="718.581,421.836 719.834,422.019 719.834,421.071 					"/>
					<polygon fill="#5C99A3" points="717.675,422.524 717.831,424.243 715.458,423.961 					"/>
					<polygon fill="#5C99A3" points="714.538,424.613 714.693,426.331 712.318,426.041 					"/>
					<path fill="#365864" d="M603.356,466.003l56.358-29.048c-0.154,3.206-0.399,6.193-0.572,9.359l-53.04,29.446L603.356,466.003z"
						/>
				</g>
				<g>
					<polygon fill="#5C99A3" points="711.453,426.865 711.573,428.587 709.205,428.252 					"/>
					<polygon fill="#5C99A3" points="708.433,428.826 708.531,430.549 706.168,430.185 					"/>
					<polygon fill="#5C99A3" points="705.696,430.577 705.839,432.297 703.468,431.993 					"/>
					<polygon fill="#5C99A3" points="702.833,432.496 702.84,434.224 700.499,433.735 					"/>
				</g>
				<polygon fill="#5C99A3" points="699.073,434.393 699.216,436.111 696.844,435.808 				"/>
				<polygon fill="#5C99A3" points="696.05,436.336 696.14,438.061 693.777,437.682 				"/>
				<polygon fill="#5C99A3" points="692.849,438.374 692.943,440.096 690.581,439.727 				"/>
				<polygon fill="#5C99A3" points="689.929,440.14 689.958,441.866 687.61,441.407 				"/>
				<polygon fill="#5C99A3" points="686.991,441.687 686.997,443.411 684.655,442.919 				"/>
				<polygon fill="#5C99A3" points="684.075,443.321 684.041,445.047 681.712,444.503 				"/>
				<polygon fill="#5C99A3" points="681.308,444.777 681.337,446.503 678.99,446.044 				"/>
				<polygon fill="#5C99A3" points="678.143,446.419 678.146,448.145 675.806,447.65 				"/>
				<polygon fill="#5C99A3" points="675.197,448.027 675.19,449.752 672.854,449.244 				"/>
				<polygon fill="#528893" points="672.288,449.563 672.28,451.29 669.942,450.778 				"/>
				<polygon fill="#528893" points="669.245,451.215 669.267,452.941 666.921,452.471 				"/>
				<polygon fill="#528893" points="666.437,452.742 666.353,454.466 664.04,453.854 				"/>
				<polygon fill="#528893" points="663.703,454.224 663.681,455.95 661.349,455.422 				"/>
				<polygon fill="#528893" points="660.844,455.602 660.821,457.327 658.488,456.799 				"/>
				<polygon fill="#528893" points="657.82,457.009 657.796,458.734 655.465,458.203 				"/>
				<polygon fill="#528893" points="655.214,458.406 655.106,460.129 652.805,459.484 				"/>
				<polygon fill="#5C99A3" points="652.262,459.73 652.243,461.456 649.909,460.933 				"/>
				<polygon fill="#5C99A3" points="649.714,461.088 649.649,462.812 647.33,462.227 				"/>
				<polygon fill="#5C99A3" points="647.146,462.406 646.993,464.123 644.706,463.42 				"/>
				<polygon fill="#5C99A3" points="644.479,463.613 644.338,465.333 642.048,464.646 				"/>
				<polygon fill="#5C99A3" points="641.656,464.946 641.587,466.672 639.271,466.078 				"/>
				<polygon fill="#5C99A3" points="636.015,467.462 635.944,469.188 633.627,468.595 				"/>
				<polygon fill="#5C99A3" points="633.229,468.768 633.095,470.487 630.802,469.81 				"/>
				<polygon fill="#5C99A3" points="629.752,470.191 629.542,471.904 627.28,471.125 				"/>
				<polygon fill="#5C99A3" points="626.638,471.511 626.417,473.223 624.161,472.428 				"/>
				<polygon fill="#5C99A3" points="623.416,472.687 623.156,474.392 620.919,473.548 				"/>
				<polygon fill="#5C99A3" points="638.983,466.216 638.913,467.94 636.597,467.348 				"/>
			</g>
			<path fill="#7AD3D6" d="M702.133,422.651c-3.515,2.125-43.031,23.144-37.408,20.902c5.623-2.242,36.591-18.382,39.142-19.985
				c1.493-0.938,9.548-5.611,15.968-9.323v-0.677C713.049,416.947,704.229,421.384,702.133,422.651z"/>
		</g>
		<g>
			<path fill="#243944" d="M617.151,280.779c0,0-4.492,20.763-6.658,27.562c-2.54,7.976-6.272,27.639-9.169,44.04l13.825-13.825
				C616.634,313.734,618.151,284.053,617.151,280.779z"/>
			<path fill="#1B2C34" d="M601.324,352.381c-2.467,13.967-4.327,25.569-4.327,25.569l0.203,42.223l15.747-47.168
				c0,0,1.091-15.862,2.202-34.449L601.324,352.381z"/>
		</g>
		<g>
			<polygon fill="#5C99A3" points="640.353,308.074 638.628,308.062 639.109,310.403 			"/>
			<polygon fill="#5C99A3" points="638.888,311.055 637.162,311.042 637.645,313.385 			"/>
			<polygon fill="#5C99A3" points="637.41,314.36 635.685,314.36 636.185,316.699 			"/>
			<polygon fill="#5C99A3" points="635.902,317.464 634.178,317.525 634.761,319.846 			"/>
			<polygon fill="#5C99A3" points="634.479,320.555 632.755,320.627 633.352,322.942 			"/>
			<polygon fill="#5C99A3" points="633.036,323.641 631.311,323.679 631.862,326.006 			"/>
			<polygon fill="#5C99A3" points="631.198,327.211 629.479,327.35 630.163,329.642 			"/>
			<polygon fill="#5C99A3" points="629.666,330.784 627.943,330.882 628.572,333.189 			"/>
			<polygon fill="#5C99A3" points="627.911,334.445 626.188,334.56 626.841,336.859 			"/>
			<g>
				<polygon fill="#69B2BB" points="591.99,459.38 598.249,466.578 627.99,374.75 648.282,290.609 618.286,379.809 				"/>
				<path fill="#5C99A3" d="M587.653,454.184l4.337,5.196l56.292-168.797c0,0-31.138,64.485-38.027,84.068
					C603.365,394.232,590.465,432.938,587.653,454.184z"/>
				<polygon fill="#5C99A3" points="626.478,337.614 624.752,337.592 625.22,339.937 				"/>
				<polygon fill="#5C99A3" points="624.672,341.151 622.957,341.327 623.69,343.603 				"/>
				<polygon fill="#5C99A3" points="623.16,344.611 621.44,344.741 622.111,347.036 				"/>
				<polygon fill="#5C99A3" points="621.621,348.05 619.9,348.182 620.578,350.477 				"/>
			</g>
			<g>
				<polygon fill="#5C99A3" points="619.909,351.466 618.191,351.632 618.914,353.912 				"/>
				<polygon fill="#5C99A3" points="618.476,354.77 616.761,354.957 617.511,357.228 				"/>
				<polygon fill="#5C99A3" points="617.203,357.758 615.483,357.9 616.175,360.188 				"/>
				<polygon fill="#5C99A3" points="615.782,360.898 614.079,361.177 614.948,363.405 				"/>
			</g>
			<polygon fill="#5C99A3" points="614.536,364.92 612.817,365.064 613.51,367.354 			"/>
			<polygon fill="#5C99A3" points="613.12,368.224 611.405,368.422 612.168,370.688 			"/>
			<polygon fill="#5C99A3" points="611.64,371.718 609.925,371.909 610.681,374.178 			"/>
			<polygon fill="#5C99A3" points="610.382,374.891 608.675,375.146 609.515,377.387 			"/>
			<polygon fill="#5C99A3" points="609.343,378.043 607.64,378.324 608.513,380.551 			"/>
			<polygon fill="#5C99A3" points="608.214,381.19 606.518,381.51 607.438,383.715 			"/>
			<polygon fill="#5C99A3" points="607.234,384.16 605.529,384.416 606.369,386.655 			"/>
			<polygon fill="#5C99A3" points="606.14,387.553 604.438,387.835 605.312,390.062 			"/>
			<polygon fill="#5C99A3" points="605.042,390.725 603.342,391.016 604.229,393.237 			"/>
			<polygon fill="#5C99A3" points="604.008,393.847 602.309,394.142 603.199,396.361 			"/>
			<polygon fill="#5C99A3" points="602.883,397.122 601.177,397.387 602.028,399.622 			"/>
			<polygon fill="#5C99A3" points="601.842,400.145 600.155,400.513 601.143,402.691 			"/>
			<polygon fill="#5C99A3" points="600.832,403.086 599.136,403.393 600.042,405.605 			"/>
			<polygon fill="#5C99A3" points="599.948,406.134 598.249,406.441 599.156,408.654 			"/>
			<polygon fill="#5C99A3" points="599.06,409.348 597.362,409.657 598.272,411.868 			"/>
			<polygon fill="#5C99A3" points="598.114,412.15 596.432,412.54 597.448,414.705 			"/>
			<polygon fill="#5C99A3" points="597.296,415.28 595.598,415.585 596.5,417.799 			"/>
			<polygon fill="#5C99A3" points="596.38,418.019 594.688,418.367 595.65,420.558 			"/>
			<polygon fill="#5C99A3" points="595.505,420.77 593.835,421.204 594.908,423.343 			"/>
			<polygon fill="#5C99A3" points="594.755,423.6 593.082,424.022 594.139,426.168 			"/>
			<polygon fill="#5C99A3" points="593.907,426.604 592.218,426.957 593.186,429.144 			"/>
			<polygon fill="#5C99A3" points="592.359,432.584 590.671,432.937 591.639,435.125 			"/>
			<polygon fill="#5C99A3" points="591.534,435.548 589.858,435.964 590.907,438.113 			"/>
			<polygon fill="#5C99A3" points="590.706,439.211 589.051,439.702 590.194,441.804 			"/>
			<polygon fill="#5C99A3" points="589.92,442.5 588.268,443.002 589.425,445.096 			"/>
			<polygon fill="#5C99A3" points="589.294,445.874 587.653,446.412 588.856,448.479 			"/>
			<polygon fill="#5C99A3" points="593.098,429.449 591.409,429.804 592.377,431.99 			"/>
		</g>
		<g>
			<polygon fill="#5C99A3" points="467.358,386.547 466.796,388.079 469.036,388.398 			"/>
			<polygon fill="#5C99A3" points="469.544,388.804 468.983,390.337 471.225,390.655 			"/>
			<polygon fill="#5C99A3" points="472.02,391.175 471.468,392.713 473.711,393.014 			"/>
			<polygon fill="#5C99A3" points="474.302,393.509 473.807,395.065 476.06,395.287 			"/>
			<polygon fill="#5C99A3" points="476.602,395.764 476.115,397.323 478.369,397.531 			"/>
			<polygon fill="#5C99A3" points="478.89,398.035 478.372,399.585 480.622,399.836 			"/>
			<polygon fill="#5C99A3" points="481.483,400.812 481.059,402.388 483.319,402.511 			"/>
			<polygon fill="#5C99A3" points="484.179,403.317 483.715,404.885 485.971,405.061 			"/>
			<polygon fill="#5C99A3" points="486.88,406.051 486.432,407.621 488.689,407.775 			"/>
			<g>
				<polygon fill="#69B2BB" points="588.331,479.753 601.842,479.7 522.813,418.849 454.33,373.905 524.221,429.11 				"/>
				<path fill="#5C99A3" d="M579.893,479.7l10.027,0.053L454.307,373.897c0,0,47.509,48.33,62.755,60.721
					C532.308,447.008,561.862,470.413,579.893,479.7z"/>
				<polygon fill="#5C99A3" points="489.245,408.34 488.674,409.87 490.912,410.201 				"/>
				<polygon fill="#5C99A3" points="491.82,411.078 491.428,412.662 493.689,412.734 				"/>
				<polygon fill="#5C99A3" points="494.419,413.528 493.987,415.104 496.245,415.238 				"/>
				<polygon fill="#5C99A3" points="496.991,415.998 496.56,417.574 498.819,417.702 				"/>
			</g>
			<g>
				<polygon fill="#5C99A3" points="499.488,418.613 499.088,420.197 501.351,420.281 				"/>
				<polygon fill="#5C99A3" points="501.974,420.946 501.595,422.533 503.855,422.59 				"/>
				<polygon fill="#5C99A3" points="504.229,423.034 503.808,424.611 506.067,424.726 				"/>
				<polygon fill="#5C99A3" points="506.574,425.302 506.279,426.909 508.541,426.847 				"/>
			</g>
			<polygon fill="#5C99A3" points="509.76,427.696 509.339,429.274 511.6,429.388 			"/>
			<polygon fill="#5C99A3" points="512.25,430.014 511.88,431.604 514.142,431.648 			"/>
			<polygon fill="#5C99A3" points="514.891,432.447 514.514,434.037 516.775,434.087 			"/>
			<polygon fill="#5C99A3" points="517.315,434.581 516.999,436.184 519.263,436.15 			"/>
			<polygon fill="#5C99A3" points="519.792,436.513 519.499,438.12 521.762,438.053 			"/>
			<polygon fill="#5C99A3" points="522.235,438.525 521.979,440.137 524.237,440.021 			"/>
			<polygon fill="#5C99A3" points="524.569,440.344 524.253,441.946 526.516,441.912 			"/>
			<polygon fill="#5C99A3" points="527.242,442.403 526.949,444.01 529.213,443.942 			"/>
			<polygon fill="#5C99A3" points="529.717,444.395 529.435,446.002 531.696,445.921 			"/>
			<polygon fill="#5C99A3" points="532.169,446.312 531.889,447.921 534.15,447.835 			"/>
			<polygon fill="#5C99A3" points="534.728,448.36 534.417,449.965 536.682,449.92 			"/>
			<polygon fill="#5C99A3" points="537.088,450.253 536.877,451.872 539.134,451.689 			"/>
			<polygon fill="#5C99A3" points="539.386,452.091 539.118,453.701 541.378,453.6 			"/>
			<polygon fill="#5C99A3" points="541.818,453.853 541.55,455.464 543.812,455.362 			"/>
			<polygon fill="#5C99A3" points="544.398,455.67 544.132,457.281 546.394,457.177 			"/>
			<polygon fill="#5C99A3" points="546.594,457.406 546.403,459.03 548.657,458.815 			"/>
			<polygon fill="#5C99A3" points="549.12,459.136 548.85,460.745 551.11,460.648 			"/>
			<polygon fill="#5C99A3" points="551.267,460.825 551.038,462.443 553.296,462.286 			"/>
			<polygon fill="#5C99A3" points="553.438,462.483 553.294,464.11 555.542,463.837 			"/>
			<polygon fill="#5C99A3" points="555.722,464.055 555.563,465.681 557.813,465.424 			"/>
			<polygon fill="#5C99A3" points="558.126,465.77 557.901,467.388 560.159,467.224 			"/>
			<polygon fill="#5C99A3" points="562.961,469.059 562.735,470.675 564.994,470.511 			"/>
			<polygon fill="#5C99A3" points="565.337,470.739 565.173,472.365 567.423,472.117 			"/>
			<polygon fill="#5C99A3" points="568.337,472.648 568.246,474.278 570.483,473.932 			"/>
			<polygon fill="#5C99A3" points="571.016,474.397 570.937,476.029 573.171,475.668 			"/>
			<polygon fill="#5C99A3" points="573.821,476.032 573.777,477.665 576.003,477.253 			"/>
			<polygon fill="#5C99A3" points="560.403,467.399 560.18,469.017 562.438,468.853 			"/>
		</g>
		<path fill="#5F9AA3" d="M719.101,371.954l-1.016-0.681l-0.632,1.584c-0.39,0.214-0.778,0.427-1.17,0.642l-1.007-0.703l-0.69,1.638
			c-0.524,0.289-1.051,0.579-1.577,0.87l-1.183-0.728l-0.612,1.719c-0.488,0.27-0.979,0.541-1.468,0.812l-1.067-0.693l-0.625,1.631
			c-0.548,0.304-1.096,0.609-1.644,0.914l-1.128-0.716l-0.628,1.694c-0.368,0.206-0.736,0.411-1.104,0.616l-1.06-0.798l-0.873,1.88
			c-0.432,0.242-0.864,0.484-1.295,0.727l-1.291-0.759l-0.604,1.826c-0.413,0.232-0.825,0.466-1.235,0.697l-1.228-0.762
			l-0.662,1.833c-0.407,0.23-0.812,0.461-1.215,0.69l-1.222-0.757l-0.655,1.827c-0.397,0.228-0.792,0.454-1.185,0.68l-1.393-0.827
			l-0.682,2.021c-0.298,0.172-0.596,0.345-0.891,0.515l-1.38-0.794l-0.636,1.965c-0.219,0.128-0.437,0.256-0.653,0.382l-1.33-0.814
			l-0.708,2.013c-0.251,0.146-0.501,0.295-0.747,0.44l-1.451-0.735l-0.504,1.899c-0.555,0.332-1.097,0.658-1.626,0.979l-1.006-0.614
			l-0.547,1.559c-0.459,0.281-0.903,0.555-1.338,0.824l-1.07-0.607l-0.506,1.595c-0.49,0.31-0.966,0.612-1.416,0.903l-1.158-0.663
			l-0.576,1.804c-0.242,0.162-0.479,0.321-0.703,0.476c-0.073,0.05-0.151,0.104-0.226,0.155l-1.259-0.659l-0.527,1.886
			c-0.273,0.188-0.55,0.378-0.83,0.572l-1.208-0.611l-0.466,1.768c-0.304,0.21-0.61,0.423-0.92,0.637l-1.252-0.599l-0.424,1.765
			c-0.252,0.174-0.506,0.352-0.761,0.529l-1.195-0.626l-0.509,1.818c-0.36,0.253-0.72,0.505-1.087,0.763l-1.148-0.582l-0.45,1.707
			c-0.326,0.229-0.657,0.465-0.986,0.698l-1.178-0.586l-0.448,1.738c-0.303,0.216-0.609,0.435-0.916,0.652l-1.173-0.581
			l-0.443,1.736c-0.342,0.244-0.683,0.487-1.027,0.735l-1.207-0.627l-0.512,1.865c-0.242,0.175-0.483,0.349-0.725,0.523l-1.29-0.572
			l-0.374,1.779c-0.228,0.166-0.455,0.333-0.684,0.499l-1.332-0.647l-0.49,1.98c-0.21,0.154-0.42,0.31-0.631,0.465l-1.26-0.612
			l-0.467,1.887c-0.284,0.211-0.568,0.422-0.852,0.633l-1.156-0.561l-0.429,1.741c-0.212,0.159-0.425,0.318-0.637,0.478
			l-1.257-0.537l-0.338,1.737c-0.295,0.222-0.59,0.444-0.884,0.667l-1.116-0.545l-0.431,1.723c-0.197,0.151-0.396,0.303-0.593,0.453
			l-1.226-0.559l-0.402,1.812c-0.173,0.133-0.345,0.266-0.517,0.398l-1.32-0.521l-0.299,1.781c-0.196,0.153-0.394,0.307-0.589,0.461
			l-1.261-0.512l-0.308,1.749c-0.244,0.192-0.491,0.387-0.733,0.58l-1.261-0.57l-0.418,1.915c-0.163,0.131-0.329,0.264-0.492,0.395
			l-1.297-0.588l-0.438,2c-0.219,0.179-0.437,0.357-0.653,0.536l-1.225-0.555l-0.419,1.916c-0.194,0.162-0.381,0.321-0.572,0.481
			l-1.321-0.541l-0.353,1.958c-0.356,0.304-0.71,0.607-1.059,0.909l-1.296-0.463l-0.243,1.806c-0.284,0.251-0.568,0.502-0.848,0.75
			l-1.352-0.473l-0.243,1.91c-0.283,0.26-0.56,0.516-0.836,0.771l-1.295-0.421l-0.191,1.816c-1.249,1.191-2.427,2.354-3.495,3.47
			l-2.433,8.069l-0.012,0.008l-0.252,0.866l-0.199,0.657l0.009-0.006l-3.341,11.453l80.773-58.518l35.638-30.163v-8.229
			C719.59,371.686,719.347,371.818,719.101,371.954z"/>
		<g>
			<path fill="#1C3747" d="M602.907,451.043c-4.462,13.419-9.845,28.71-9.845,28.71h21.868l4.824-32.081
				c-4.05,3.561-8.408,6.656-13.785,8.15C604.892,455.822,604.286,452.981,602.907,451.043z"/>
			<path fill="#345662" d="M616.909,415.549c-4.712,8.926-9.889,23.129-14.002,35.494c1.379,1.938,1.984,4.779,3.062,4.779
				c5.377-1.494,9.735-4.59,13.785-8.15l3.972-25.612l33.415-10.056C645.684,411.255,617.714,414.025,616.909,415.549z"/>
		</g>
		<g>
			<path fill="#528893" d="M592.588,468.867c3.063,5.101,6.761,10.913,6.761,10.913H587l-4.687-12.318
				c2.781,1.354,4.479,2.653,8.172,3.222C591.225,470.684,591.641,469.604,592.588,468.867z"/>
			<path fill="#7AD3D6" d="M584.72,457.009c0,0,5.044,7.158,7.868,11.858c-0.947,0.736-1.363,1.816-2.103,1.816
				c-3.693-0.568-4.776-0.867-7.558-2.221l-3.189-6.193L555.7,450.427C564.145,451.454,584.72,457.009,584.72,457.009z"/>
		</g>
	</g>
</g>
<g>
	<g>
		<g>
			<path fill="#DFD2C6" d="M459.368,177.49c-11.915,0-21.608-10.62-21.608-23.675c0-13.054,9.693-23.675,21.608-23.675
				s21.608,10.621,21.608,23.675C480.977,166.87,471.283,177.49,459.368,177.49z M459.368,130.618
				c-11.651,0-21.13,10.406-21.13,23.197s9.479,23.197,21.13,23.197s21.13-10.406,21.13-23.197S471.02,130.618,459.368,130.618z"/>
		</g>
		<g>
			<polygon fill="#9C819D" points="441.713,212.98 440.881,212.512 460.531,177.49 460.888,178.874 			"/>
		</g>
		<g>
			
				<rect x="424.189" y="239.948" transform="matrix(0.4114 0.9115 -0.9115 0.4114 485.9361 -271.6038)" fill="#9C819D" width="58.127" height="0.956"/>
		</g>
		<g>
			<polygon fill="#9C819D" points="464.643,267.99 432.078,267.379 460.912,215.059 446.551,175.228 447.45,174.903 
				461.958,215.141 433.68,266.453 464.66,267.035 			"/>
		</g>
		<g>
			
				<rect x="464.308" y="267.812" transform="matrix(0.994 0.1096 -0.1096 0.994 32.2354 -50.092)" fill="#9C819D" width="15.278" height="0.955"/>
		</g>
		<g>
			<rect x="458.561" y="121.311" fill="#FDF5DE" width="3.941" height="20.784"/>
		</g>
		<path opacity="0.6" fill="#E2BFA1" d="M482.369,279.943c0,2.234-1.812,1.812-4.047,1.812l-34.324,2.082
			c-7.503,0-21.352-9.006-13.849-9.006l34.057,1.246C466.441,276.078,482.369,279.943,482.369,279.943z"/>
		<g>
			
				<rect x="449.575" y="123.341" transform="matrix(0.9003 -0.4352 0.4352 0.9003 -13.1982 209.8322)" fill="#FFFAEE" width="3.942" height="20.784"/>
		</g>
		<g>
			
				<rect x="443.278" y="128.836" transform="matrix(0.6647 -0.7471 0.7471 0.6647 45.2679 379.3234)" fill="#FFFAEE" width="3.942" height="20.783"/>
		</g>
		<g>
			
				<rect x="439.326" y="135.745" transform="matrix(0.3379 -0.9412 0.9412 0.3379 154.6337 512.0911)" fill="#FEFFEC" width="3.942" height="20.783"/>
		</g>
		<g>
			<path fill="#D6CAC1" d="M430.047,274.447c-0.156,0.977,0.258,1.855,0.923,1.963l0,0c0.666,0.104,1.331-0.602,1.487-1.578
				l16.931-106.17c0.155-0.977-0.258-1.854-0.923-1.96l0,0c-0.666-0.106-1.332,0.601-1.487,1.577L430.047,274.447z"/>
		</g>
		<g>
			<path fill="#DFD2C6" d="M480.192,280.225c0.175,0.953,0.853,1.627,1.516,1.508l0,0c0.663-0.123,1.06-0.994,0.886-1.947
				l-18.905-103.633c-0.174-0.953-0.853-1.627-1.516-1.507l0,0c-0.663,0.121-1.06,0.993-0.886,1.945L480.192,280.225z"/>
		</g>
		<g>
			<path fill="#9C819D" d="M458.917,180.709l4.824,96.527c0.048,0.943,0.632,1.682,1.306,1.65c0.672-0.037,1.18-0.828,1.133-1.773
				l-4.949-99.043C460.376,178.866,459.596,179.737,458.917,180.709z"/>
		</g>
		<g>
			
				<rect x="437.923" y="143.868" transform="matrix(-0.0518 -0.9987 0.9987 -0.0518 308.6183 601.55)" fill="#FEFFEC" width="3.942" height="20.783"/>
		</g>
		<g>
			
				<rect x="440.132" y="152.77" transform="matrix(-0.4457 -0.8952 0.8952 -0.4457 493.1018 631.644)" fill="#FFFAEE" width="3.942" height="20.784"/>
		</g>
		<g>
			
				<rect x="445.03" y="159.165" transform="matrix(-0.7482 -0.6635 0.6635 -0.7482 668.9507 592.9921)" fill="#FFFAEE" width="3.942" height="20.784"/>
		</g>
		<g>
			
				<rect x="466.991" y="162.584" transform="matrix(-0.9134 0.407 -0.407 -0.9134 967.7255 140.0888)" fill="#FDF5DE" width="3.942" height="20.783"/>
		</g>
		<g>
			
				<rect x="432.735" y="240.866" transform="matrix(0.4698 0.8828 -0.8828 0.4698 459.1685 -281.8276)" fill="#DFD2C6" width="62.941" height="0.955"/>
		</g>
		<g>
			
				<rect x="472.755" y="158.141" transform="matrix(-0.7095 0.7047 -0.7047 -0.7095 930.0474 -47.0744)" fill="#FDF5DE" width="3.942" height="20.021"/>
		</g>
		<g>
			
				<rect x="477.02" y="151.295" transform="matrix(-0.3404 0.9403 -0.9403 -0.3404 793.6003 -234.3398)" fill="#F4EAD3" width="3.941" height="19.757"/>
		</g>
		<g>
			
				<rect x="478.22" y="143.135" transform="matrix(0.0431 0.9991 -0.9991 0.0431 611.9741 -333.6984)" fill="#F4EAD3" width="3.942" height="18.982"/>
		</g>
		<g>
			
				<rect x="476.514" y="135.663" transform="matrix(0.3951 0.9186 -0.9186 0.3951 422.7796 -351.7508)" fill="#F4EAD3" width="3.942" height="18.981"/>
		</g>
		<g>
			<polygon fill="#EADFD6" points="449.435,213.084 442.416,212.378 442.264,213.338 449.373,214.038 449.406,214.042 
				467.981,213.265 467.795,212.267 			"/>
			<polygon fill="#EADFD6" points="468.234,213.254 444.66,270.174 432.279,267.049 432.046,267.977 445.227,271.303 
				469.69,212.237 468.979,212.267 			"/>
		</g>
		<g>
			
				<rect x="472.144" y="128.202" transform="matrix(0.7271 0.6866 -0.6866 0.7271 224.1791 -287.8334)" fill="#FDF5DE" width="3.942" height="19.69"/>
		</g>
		<g>
			
				<rect x="466.134" y="123.315" transform="matrix(0.9268 0.3757 -0.3757 0.9268 84.4317 -166.0704)" fill="#FDF5DE" width="3.941" height="20.35"/>
		</g>
		<g>
			<path fill="#FDF5DE" d="M460.471,164.908c-5.729,0-10.391-5.171-10.391-11.526c0-6.356,4.661-11.527,10.391-11.527
				c5.73,0,10.393,5.171,10.393,11.527C470.863,159.737,466.201,164.908,460.471,164.908z M460.471,142.333
				c-5.466,0-9.913,4.957-9.913,11.049s4.447,11.048,9.913,11.048c5.467,0,9.914-4.956,9.914-11.048
				S465.938,142.333,460.471,142.333z"/>
		</g>
		<g>
			
				<rect x="452.869" y="147.518" transform="matrix(0.6577 0.7533 -0.7533 0.6577 267.9148 -294.0256)" fill="#FDF5DE" width="9.172" height="0.478"/>
		</g>
		<g>
			
				<rect x="455.879" y="154.258" transform="matrix(0.5706 0.8212 -0.8212 0.5706 325.7634 -306.6313)" fill="#FDF5DE" width="0.477" height="7.916"/>
		</g>
		<g>
			
				<rect x="461.802" y="158.642" transform="matrix(0.5141 0.8577 -0.8577 0.5141 362.3008 -321.8192)" fill="#EADFD6" width="6.813" height="0.477"/>
		</g>
		<g>
			
				<rect x="466.205" y="146.512" transform="matrix(0.6953 0.7188 -0.7188 0.6953 250.047 -289.5162)" fill="#EADFD6" width="0.478" height="7.209"/>
		</g>
		<g>
			
				<rect x="461.981" y="253.234" transform="matrix(0.0245 0.9997 -0.9997 0.0245 721.3512 -198.6316)" fill="#DFD2C6" width="0.955" height="34.171"/>
		</g>
		<g>
			<polygon fill="#DFD2C6" points="449.435,213.084 448.404,212.98 462.737,178.461 463.623,178.818 			"/>
		</g>
		<g>
			<path fill="#DFD2C6" d="M468.13,212.088c-6.088-12.687-14.768-30.684-15.399-31.523c0.058,0.076,0.308-1.104,0.308-1.104
				s0.336-0.062,8.435,16.633c3.936,8.114,7.529,15.602,7.568,15.684L468.13,212.088z"/>
		</g>
		<g>
			
				<rect x="460.423" y="164.674" transform="matrix(-0.9998 0.0182 -0.0182 -0.9998 927.8988 341.6799)" fill="#FDF5DE" width="3.941" height="20.783"/>
		</g>
		<g>
			<path fill="#EADFD6" d="M442.773,281.678c-0.077,0.967,0.404,1.791,1.076,1.848l0,0c0.672,0.053,1.279-0.688,1.357-1.652
				l8.461-105.003c0.078-0.965-0.403-1.792-1.075-1.847l0,0c-0.672-0.055-1.28,0.686-1.357,1.651L442.773,281.678z"/>
		</g>
		<g>
			
				<rect x="451.269" y="163.166" transform="matrix(-0.9314 -0.364 0.364 -0.9314 812.2086 500.1934)" fill="#FDF5DE" width="3.942" height="20.784"/>
		</g>
		<g>
			<ellipse fill="#FDF5DE" cx="461.435" cy="153.815" rx="2.978" ry="3.568"/>
		</g>
	</g>
	<g>
		<path opacity="0.8" fill="#E2BFA1" d="M496.229,285.494c0.323-0.508-2.033-1.047-5.188,0.051
			c-1.142,0.396-8.951,1.217-5.554,3.965C486.723,290.51,492.887,290.76,496.229,285.494z"/>
		<g>
			<path fill="#457480" d="M493.305,278.318c0.524,0.252,1.067,0.463,1.639,0.611v7.332c-0.519,0.209-1.074,0.346-1.639,0.469
				V278.318z"/>
			<path fill="#2A4252" d="M492.47,285.635v-7.76c0.271,0.162,0.552,0.307,0.835,0.443v8.412c-0.137,0.031-0.273,0.061-0.41,0.088
				C492.631,286.496,492.47,286.084,492.47,285.635z"/>
			<path fill="#5C99A3" d="M494.943,278.93c0.414,0.107,0.841,0.188,1.285,0.227v6.338c-0.384,0.338-0.818,0.58-1.285,0.768V278.93z
				"/>
			<path fill="#7AD3D6" d="M496.229,249.199v29.958c-0.444-0.039-0.871-0.119-1.285-0.227v-31.512
				C495.69,247.666,496.229,248.369,496.229,249.199z"/>
			<path fill="#5C99A3" d="M494.349,247.32c0.209,0,0.408,0.035,0.595,0.098v31.512c-0.571-0.148-1.114-0.359-1.639-0.611v-30.682
				C493.604,247.437,493.963,247.32,494.349,247.32z"/>
			<path fill="#365864" d="M492.47,249.199c0-0.651,0.331-1.225,0.835-1.562v30.682c-0.283-0.137-0.563-0.281-0.835-0.443V249.199z"
				/>
			<g>
				<path fill="#457480" d="M489.913,272.324c0.44-0.393,0.82-0.855,1.127-1.396c0.576,0.055,1.09,0.059,1.43,0.051v1.514
					C491.926,272.502,490.926,272.488,489.913,272.324z"/>
				<path fill="#5C99A3" d="M491.04,270.928c0.257-0.453,0.468-0.955,0.61-1.521c0.435,0.01,0.762-0.014,0.819-0.014v1.586
					C492.13,270.986,491.616,270.982,491.04,270.928z"/>
				<path fill="#2A4252" d="M492.47,272.492v1.141c0,0-1.425,0.137-3.732-0.484c0.427-0.229,0.818-0.506,1.176-0.824
					C490.926,272.488,491.926,272.502,492.47,272.492z"/>
				<path fill="#5C99A3" d="M487.787,269.66c0.707,0.844,2.101,1.158,3.253,1.268c-0.307,0.541-0.687,1.004-1.127,1.396
					c-0.843-0.139-1.693-0.381-2.295-0.805c-1.639-1.156-2.061-2.703-2.108-3.668c-0.037-0.734-0.021-4.826-0.012-6.727
					c0.199-0.053,0.422-0.088,0.681-0.088c0.216,0,0.404,0.023,0.571,0.061c0.001,0.857,0.001,2.34,0.001,3.203
					C486.751,265.57,486.454,268.068,487.787,269.66z"/>
				<path fill="#7AD3D6" d="M487.787,269.66c-1.333-1.592-1.036-4.09-1.036-5.359c0-0.863,0-2.346-0.001-3.203
					c1.231,0.277,1.213,1.428,1.213,1.428s-0.023,3.445,0.072,4.168c0.097,0.723,0.416,1.602,1.428,2.229
					c0.611,0.379,1.525,0.471,2.188,0.484c-0.143,0.566-0.354,1.068-0.61,1.521C489.888,270.818,488.494,270.504,487.787,269.66z"/>
				<path fill="#365864" d="M484.42,262.398c0-0.555,0.346-1.074,1.078-1.273c-0.01,1.9-0.025,5.992,0.012,6.727
					c0.048,0.965,0.47,2.512,2.108,3.668c0.602,0.424,1.452,0.666,2.295,0.805c-0.357,0.318-0.749,0.596-1.176,0.824
					c-0.058-0.016-0.113-0.029-0.172-0.045c-2.409-0.676-4.171-3.061-4.145-4.916C484.436,267.127,484.42,263.268,484.42,262.398z"
					/>
			</g>
			<g>
				<path fill="#457480" d="M498.559,263.785c-0.401-0.357-0.748-0.781-1.027-1.273c-0.524,0.051-0.993,0.053-1.303,0.047v1.381
					C496.724,263.947,497.635,263.936,498.559,263.785z"/>
				<path fill="#2A4252" d="M496.229,263.939v1.037c0,0,1.299,0.123,3.401-0.441c-0.39-0.209-0.746-0.461-1.071-0.75
					C497.635,263.936,496.724,263.947,496.229,263.939z"/>
				<path fill="#5C99A3" d="M500.496,261.357c-0.646,0.768-1.915,1.055-2.965,1.154c0.279,0.492,0.626,0.916,1.027,1.273
					c0.768-0.125,1.543-0.348,2.091-0.734c1.493-1.053,1.878-2.463,1.921-3.342c0.034-0.67,0.02-4.398,0.012-6.129
					c-0.183-0.049-0.385-0.082-0.621-0.08c-0.197,0-0.369,0.021-0.521,0.055c-0.001,0.781-0.001,2.133-0.001,2.92
					C501.439,257.631,501.71,259.908,500.496,261.357z"/>
				<path fill="#7AD3D6" d="M500.496,261.357c1.214-1.449,0.943-3.727,0.943-4.883c0-0.787,0-2.139,0.001-2.92
					c-1.122,0.254-1.105,1.301-1.105,1.301s0.022,3.141-0.066,3.799c-0.088,0.658-0.378,1.459-1.301,2.031
					c-0.557,0.344-1.39,0.428-1.993,0.441c0.131,0.516,0.322,0.973,0.557,1.385C498.581,262.412,499.851,262.125,500.496,261.357z"
					/>
				<path fill="#365864" d="M503.563,254.74c0-0.504-0.314-0.979-0.981-1.16c0.008,1.73,0.022,5.459-0.012,6.129
					c-0.043,0.879-0.428,2.289-1.921,3.342c-0.548,0.387-1.323,0.609-2.091,0.734c0.325,0.289,0.682,0.541,1.071,0.75
					c0.052-0.014,0.103-0.025,0.156-0.041c2.195-0.613,3.8-2.789,3.776-4.479C503.549,259.049,503.563,255.531,503.563,254.74z"/>
				<path fill="#5C99A3" d="M497.531,262.512c-0.234-0.412-0.227-0.885-0.111-1.408c-0.419,0.029-1.139,0.01-1.191,0.01v1.445
					C496.538,262.564,497.007,262.562,497.531,262.512z"/>
			</g>
		</g>
	</g>
	<g>
		<path opacity="0.6" fill="#E2BFA1" d="M423.262,275.691c-0.136-0.404-8.581-0.311-9.459-0.24
			c-2.509,0.201,1.543,2.307,3.201,2.346C417.935,277.818,423.736,277.092,423.262,275.691z"/>
		<g>
			<path fill="#457480" d="M421.133,270.623c0.382,0.178,0.777,0.328,1.193,0.434v5.178c-0.378,0.146-0.782,0.244-1.193,0.332
				V270.623z"/>
			<path fill="#2A4252" d="M420.524,275.791v-5.48c0.197,0.115,0.401,0.217,0.608,0.312v5.943c-0.1,0.021-0.199,0.041-0.299,0.061
				C420.642,276.4,420.524,276.109,420.524,275.791z"/>
			<path fill="#5C99A3" d="M422.326,271.057c0.302,0.076,0.612,0.131,0.936,0.158v4.477c-0.278,0.238-0.596,0.41-0.936,0.543
				V271.057z"/>
			<path fill="#7AD3D6" d="M423.262,250.056v21.159c-0.323-0.027-0.634-0.082-0.936-0.158v-22.258
				C422.87,248.974,423.262,249.47,423.262,250.056z"/>
			<path fill="#5C99A3" d="M421.894,248.73c0.151,0,0.297,0.024,0.433,0.068v22.258c-0.416-0.105-0.812-0.256-1.193-0.434v-21.67
				C421.351,248.812,421.612,248.73,421.894,248.73z"/>
			<path fill="#365864" d="M420.524,250.056c0-0.459,0.24-0.865,0.608-1.104v21.67c-0.207-0.096-0.411-0.197-0.608-0.312V250.056z"
				/>
			<g>
				<path fill="#457480" d="M418.662,266.391c0.32-0.277,0.598-0.605,0.82-0.986c0.42,0.037,0.794,0.041,1.042,0.035v1.07
					C420.128,266.516,419.399,266.506,418.662,266.391z"/>
				<path fill="#5C99A3" d="M419.482,265.404c0.188-0.32,0.341-0.676,0.444-1.074c0.316,0.006,0.556-0.01,0.598-0.01v1.119
					C420.276,265.445,419.902,265.441,419.482,265.404z"/>
				<path fill="#2A4252" d="M420.524,266.51v0.805c0,0-1.038,0.096-2.72-0.342c0.312-0.162,0.597-0.357,0.857-0.582
					C419.399,266.506,420.128,266.516,420.524,266.51z"/>
				<path fill="#5C99A3" d="M417.113,264.508c0.515,0.596,1.529,0.82,2.369,0.896c-0.223,0.381-0.5,0.709-0.82,0.986
					c-0.614-0.098-1.234-0.27-1.672-0.568c-1.193-0.816-1.501-1.91-1.536-2.59c-0.027-0.52-0.017-3.41-0.008-4.752
					c0.145-0.039,0.307-0.062,0.495-0.062c0.157,0,0.294,0.016,0.416,0.043c0.001,0.605,0.001,1.652,0.001,2.264
					C416.358,261.621,416.142,263.385,417.113,264.508z"/>
				<path fill="#7AD3D6" d="M417.113,264.508c-0.972-1.123-0.755-2.887-0.755-3.783c0-0.611,0-1.658-0.001-2.264
					c0.897,0.195,0.883,1.008,0.883,1.008s-0.017,2.434,0.053,2.943c0.07,0.512,0.304,1.133,1.041,1.576
					c0.445,0.266,1.11,0.332,1.593,0.342c-0.104,0.398-0.257,0.754-0.444,1.074C418.643,265.328,417.628,265.104,417.113,264.508z"
					/>
				<path fill="#365864" d="M414.66,259.379c0-0.391,0.252-0.758,0.786-0.898c-0.009,1.342-0.02,4.232,0.008,4.752
					c0.035,0.68,0.343,1.773,1.536,2.59c0.438,0.299,1.058,0.471,1.672,0.568c-0.261,0.225-0.546,0.42-0.857,0.582
					c-0.041-0.012-0.082-0.02-0.125-0.031c-1.754-0.477-3.039-2.162-3.019-3.473C414.671,262.719,414.66,259.992,414.66,259.379z"/>
			</g>
			<g>
				<path fill="#457480" d="M424.959,260.357c-0.292-0.252-0.545-0.551-0.748-0.898c-0.382,0.035-0.724,0.037-0.949,0.033v0.975
					C423.623,260.473,424.286,260.465,424.959,260.357z"/>
				<path fill="#2A4252" d="M423.262,260.467v0.734c0,0,0.947,0.088,2.479-0.312c-0.284-0.146-0.543-0.326-0.781-0.531
					C424.286,260.465,423.623,260.473,423.262,260.467z"/>
				<path fill="#5C99A3" d="M426.371,258.645c-0.47,0.541-1.395,0.744-2.16,0.814c0.203,0.348,0.456,0.646,0.748,0.898
					c0.561-0.088,1.124-0.244,1.524-0.518c1.088-0.744,1.368-1.738,1.399-2.359c0.024-0.473,0.014-3.107,0.008-4.33
					c-0.133-0.035-0.28-0.057-0.452-0.057c-0.145,0-0.27,0.016-0.379,0.039c-0.001,0.553-0.001,1.506-0.001,2.062
					C427.059,256.012,427.256,257.621,426.371,258.645z"/>
				<path fill="#7AD3D6" d="M426.371,258.645c0.885-1.023,0.688-2.633,0.688-3.449c0-0.557,0-1.51,0.001-2.062
					c-0.818,0.18-0.806,0.918-0.806,0.918s0.016,2.219-0.049,2.684c-0.063,0.465-0.274,1.031-0.947,1.436
					c-0.405,0.242-1.013,0.303-1.452,0.311c0.095,0.365,0.235,0.688,0.405,0.979C424.977,259.389,425.901,259.186,426.371,258.645z"
					/>
				<path fill="#365864" d="M428.605,253.971c0-0.357-0.229-0.691-0.715-0.82c0.006,1.223,0.017,3.857-0.008,4.33
					c-0.031,0.621-0.312,1.615-1.399,2.359c-0.4,0.273-0.964,0.43-1.524,0.518c0.238,0.205,0.497,0.385,0.781,0.531
					c0.038-0.01,0.074-0.018,0.113-0.029c1.6-0.434,2.769-1.969,2.751-3.164C428.595,257.014,428.605,254.529,428.605,253.971z"/>
				<path fill="#5C99A3" d="M424.211,259.459c-0.17-0.291-0.164-0.625-0.081-0.994c-0.305,0.02-0.829,0.006-0.868,0.006v1.021
					C423.487,259.496,423.829,259.494,424.211,259.459z"/>
			</g>
		</g>
	</g>
</g>
</svg>
